<?xml version="1.0" encoding="utf-8" standalone="no"?>
<!DOCTYPE svg PUBLIC "-//W3C//DTD SVG 1.1//EN"
  "http://www.w3.org/Graphics/SVG/1.1/DTD/svg11.dtd">
<!-- Created with matplotlib (http://matplotlib.org/) -->
<svg height="504pt" version="1.1" viewBox="0 0 864 504" width="864pt" xmlns="http://www.w3.org/2000/svg" xmlns:xlink="http://www.w3.org/1999/xlink">
 <defs>
  <style type="text/css">
*{stroke-linecap:butt;stroke-linejoin:round;}
  </style>
 </defs>
 <g id="figure_1">
  <g id="patch_1">
   <path d="
M0 504
L864 504
L864 0
L0 0
z
" style="fill:#ffffff;"/>
  </g>
  <g id="axes_1">
   <g id="patch_2">
    <path d="
M108 397.882
L412.364 397.882
L412.364 93.5182
L108 93.5182
z
" style="fill:#ffffff;"/>
   </g>
   <g id="PathCollection_1">
    <defs>
     <path d="
M0 2.23607
C0.593012 2.23607 1.16182 2.00046 1.58114 1.58114
C2.00046 1.16182 2.23607 0.593012 2.23607 0
C2.23607 -0.593012 2.00046 -1.16182 1.58114 -1.58114
C1.16182 -2.00046 0.593012 -2.23607 0 -2.23607
C-0.593012 -2.23607 -1.16182 -2.00046 -1.58114 -1.58114
C-2.00046 -1.16182 -2.23607 -0.593012 -2.23607 0
C-2.23607 0.593012 -2.00046 1.16182 -1.58114 1.58114
C-1.16182 2.00046 -0.593012 2.23607 0 2.23607
z
" id="C0_0_919e3f95db"/>
    </defs>
    <g clip-path="url(#p54f1dd02a6)">
     <use style="fill:#0000ff;stroke:#000000;" x="309.646770496" xlink:href="#C0_0_919e3f95db" y="218.78109637"/>
    </g>
    <g clip-path="url(#p54f1dd02a6)">
     <use style="fill:#0000ff;stroke:#000000;" x="275.702571897" xlink:href="#C0_0_919e3f95db" y="233.060342802"/>
    </g>
    <g clip-path="url(#p54f1dd02a6)">
     <use style="fill:#0000ff;stroke:#000000;" x="312.406319983" xlink:href="#C0_0_919e3f95db" y="230.245140817"/>
    </g>
    <g clip-path="url(#p54f1dd02a6)">
     <use style="fill:#0000ff;stroke:#000000;" x="208.62576335" xlink:href="#C0_0_919e3f95db" y="258.976761075"/>
    </g>
    <g clip-path="url(#p54f1dd02a6)">
     <use style="fill:#0000ff;stroke:#000000;" x="139.13294535" xlink:href="#C0_0_919e3f95db" y="245.849188183"/>
    </g>
    <g clip-path="url(#p54f1dd02a6)">
     <use style="fill:#0000ff;stroke:#000000;" x="263.948788945" xlink:href="#C0_0_919e3f95db" y="261.701635724"/>
    </g>
    <g clip-path="url(#p54f1dd02a6)">
     <use style="fill:#0000ff;stroke:#000000;" x="236.612059685" xlink:href="#C0_0_919e3f95db" y="279.729466617"/>
    </g>
    <g clip-path="url(#p54f1dd02a6)">
     <use style="fill:#0000ff;stroke:#000000;" x="238.082223464" xlink:href="#C0_0_919e3f95db" y="241.26507586"/>
    </g>
    <g clip-path="url(#p54f1dd02a6)">
     <use style="fill:#0000ff;stroke:#000000;" x="319.500594433" xlink:href="#C0_0_919e3f95db" y="211.96138247"/>
    </g>
    <g clip-path="url(#p54f1dd02a6)">
     <use style="fill:#0000ff;stroke:#000000;" x="179.369578191" xlink:href="#C0_0_919e3f95db" y="243.56089566"/>
    </g>
    <g clip-path="url(#p54f1dd02a6)">
     <use style="fill:#0000ff;stroke:#000000;" x="134.466403162" xlink:href="#C0_0_919e3f95db" y="261.122035315"/>
    </g>
   </g>
   <g id="PathCollection_2">
    <defs>
     <path d="
M0 8.66025
C2.29673 8.66025 4.49969 7.74776 6.12372 6.12372
C7.74776 4.49969 8.66025 2.29673 8.66025 0
C8.66025 -2.29673 7.74776 -4.49969 6.12372 -6.12372
C4.49969 -7.74776 2.29673 -8.66025 0 -8.66025
C-2.29673 -8.66025 -4.49969 -7.74776 -6.12372 -6.12372
C-7.74776 -4.49969 -8.66025 -2.29673 -8.66025 0
C-8.66025 2.29673 -7.74776 4.49969 -6.12372 6.12372
C-4.49969 7.74776 -2.29673 8.66025 0 8.66025
z
" id="C1_0_2aea4494f3"/>
    </defs>
    <g clip-path="url(#p54f1dd02a6)">
     <use style="fill:#008000;fill-opacity:0.5;stroke:#008000;stroke-opacity:0.5;" x="134.466403162" xlink:href="#C1_0_2aea4494f3" y="278.510047575"/>
    </g>
    <g clip-path="url(#p54f1dd02a6)">
     <use style="fill:#008000;fill-opacity:0.5;stroke:#008000;stroke-opacity:0.5;" x="173.04863901" xlink:href="#C1_0_2aea4494f3" y="250.907519022"/>
    </g>
    <g clip-path="url(#p54f1dd02a6)">
     <use style="fill:#008000;fill-opacity:0.5;stroke:#008000;stroke-opacity:0.5;" x="211.203794378" xlink:href="#C1_0_2aea4494f3" y="256.598141216"/>
    </g>
    <g clip-path="url(#p54f1dd02a6)">
     <use style="fill:#008000;fill-opacity:0.5;stroke:#008000;stroke-opacity:0.5;" x="280.113803622" xlink:href="#C1_0_2aea4494f3" y="219.902660797"/>
    </g>
    <g clip-path="url(#p54f1dd02a6)">
     <use style="fill:#008000;fill-opacity:0.5;stroke:#008000;stroke-opacity:0.5;" x="141.710976377" xlink:href="#C1_0_2aea4494f3" y="243.470568324"/>
    </g>
    <g clip-path="url(#p54f1dd02a6)">
     <use style="fill:#008000;fill-opacity:0.5;stroke:#008000;stroke-opacity:0.5;" x="314.697820853" xlink:href="#C1_0_2aea4494f3" y="216.771313135"/>
    </g>
   </g>
   <g id="patch_3">
    <path clip-path="url(#p54f1dd02a6)" d="
M318.3 198.985
C325.319 198.985 332.051 201.773 337.014 206.737
C341.977 211.7 344.766 218.432 344.766 225.451
C344.766 232.47 341.977 239.203 337.014 244.166
C332.051 249.129 325.319 251.918 318.3 251.918
C311.281 251.918 304.548 249.129 299.585 244.166
C294.622 239.203 291.833 232.47 291.833 225.451
C291.833 218.432 294.622 211.7 299.585 206.737
C304.548 201.773 311.281 198.985 318.3 198.985
z
" style="fill:#ff0000;fill-opacity:0.5;stroke:#ff0000;stroke-opacity:0.5;"/>
   </g>
   <g id="matplotlib.axis_1">
    <g id="xtick_1">
     <g id="line2d_1">
      <defs>
       <path d="
M0 0
L0 -4" id="mc7db9fdffb" style="stroke:#000000;stroke-width:0.5;"/>
      </defs>
      <g>
       <use style="stroke:#000000;stroke-width:0.5;" x="121.233201581" xlink:href="#mc7db9fdffb" y="397.881818182"/>
      </g>
     </g>
     <g id="line2d_2">
      <defs>
       <path d="
M0 0
L0 4" id="m5a7d422ac3" style="stroke:#000000;stroke-width:0.5;"/>
      </defs>
      <g>
       <use style="stroke:#000000;stroke-width:0.5;" x="121.233201581" xlink:href="#m5a7d422ac3" y="93.5181818182"/>
      </g>
     </g>
     <g id="text_1">
      <!-- −5 -->
      <defs>
       <path d="
M10.5938 35.5
L73.1875 35.5
L73.1875 27.2031
L10.5938 27.2031
z
" id="DejaVuSans-2212"/>
       <path d="
M10.7969 72.9062
L49.5156 72.9062
L49.5156 64.5938
L19.8281 64.5938
L19.8281 46.7344
Q21.9688 47.4688 24.1094 47.8281
Q26.2656 48.1875 28.4219 48.1875
Q40.625 48.1875 47.75 41.5
Q54.8906 34.8125 54.8906 23.3906
Q54.8906 11.625 47.5625 5.09375
Q40.2344 -1.42188 26.9062 -1.42188
Q22.3125 -1.42188 17.5469 -0.640625
Q12.7969 0.140625 7.71875 1.70312
L7.71875 11.625
Q12.1094 9.23438 16.7969 8.0625
Q21.4844 6.89062 26.7031 6.89062
Q35.1562 6.89062 40.0781 11.3281
Q45.0156 15.7656 45.0156 23.3906
Q45.0156 31 40.0781 35.4375
Q35.1562 39.8906 26.7031 39.8906
Q22.75 39.8906 18.8125 39.0156
Q14.8906 38.1406 10.7969 36.2812
z
" id="DejaVuSans-35"/>
      </defs>
      <g transform="translate(114.828514081 409.480255682)scale(0.1 -0.1)">
       <use xlink:href="#DejaVuSans-2212"/>
       <use x="83.7890625" xlink:href="#DejaVuSans-35"/>
      </g>
     </g>
    </g>
    <g id="xtick_2">
     <g id="line2d_3">
      <g>
       <use style="stroke:#000000;stroke-width:0.5;" x="187.399209486" xlink:href="#mc7db9fdffb" y="397.881818182"/>
      </g>
     </g>
     <g id="line2d_4">
      <g>
       <use style="stroke:#000000;stroke-width:0.5;" x="187.399209486" xlink:href="#m5a7d422ac3" y="93.5181818182"/>
      </g>
     </g>
     <g id="text_2">
      <!-- 0 -->
      <defs>
       <path d="
M31.7812 66.4062
Q24.1719 66.4062 20.3281 58.9062
Q16.5 51.4219 16.5 36.375
Q16.5 21.3906 20.3281 13.8906
Q24.1719 6.39062 31.7812 6.39062
Q39.4531 6.39062 43.2812 13.8906
Q47.125 21.3906 47.125 36.375
Q47.125 51.4219 43.2812 58.9062
Q39.4531 66.4062 31.7812 66.4062
M31.7812 74.2188
Q44.0469 74.2188 50.5156 64.5156
Q56.9844 54.8281 56.9844 36.375
Q56.9844 17.9688 50.5156 8.26562
Q44.0469 -1.42188 31.7812 -1.42188
Q19.5312 -1.42188 13.0625 8.26562
Q6.59375 17.9688 6.59375 36.375
Q6.59375 54.8281 13.0625 64.5156
Q19.5312 74.2188 31.7812 74.2188" id="DejaVuSans-30"/>
      </defs>
      <g transform="translate(184.879678236 409.480255682)scale(0.1 -0.1)">
       <use xlink:href="#DejaVuSans-30"/>
      </g>
     </g>
    </g>
    <g id="xtick_3">
     <g id="line2d_5">
      <g>
       <use style="stroke:#000000;stroke-width:0.5;" x="253.565217391" xlink:href="#mc7db9fdffb" y="397.881818182"/>
      </g>
     </g>
     <g id="line2d_6">
      <g>
       <use style="stroke:#000000;stroke-width:0.5;" x="253.565217391" xlink:href="#m5a7d422ac3" y="93.5181818182"/>
      </g>
     </g>
     <g id="text_3">
      <!-- 5 -->
      <g transform="translate(251.206623641 409.480255682)scale(0.1 -0.1)">
       <use xlink:href="#DejaVuSans-35"/>
      </g>
     </g>
    </g>
    <g id="xtick_4">
     <g id="line2d_7">
      <g>
       <use style="stroke:#000000;stroke-width:0.5;" x="319.731225296" xlink:href="#mc7db9fdffb" y="397.881818182"/>
      </g>
     </g>
     <g id="line2d_8">
      <g>
       <use style="stroke:#000000;stroke-width:0.5;" x="319.731225296" xlink:href="#m5a7d422ac3" y="93.5181818182"/>
      </g>
     </g>
     <g id="text_4">
      <!-- 10 -->
      <defs>
       <path d="
M12.4062 8.29688
L28.5156 8.29688
L28.5156 63.9219
L10.9844 60.4062
L10.9844 69.3906
L28.4219 72.9062
L38.2812 72.9062
L38.2812 8.29688
L54.3906 8.29688
L54.3906 0
L12.4062 0
z
" id="DejaVuSans-31"/>
      </defs>
      <g transform="translate(314.249975296 409.480255682)scale(0.1 -0.1)">
       <use xlink:href="#DejaVuSans-31"/>
       <use x="63.623046875" xlink:href="#DejaVuSans-30"/>
      </g>
     </g>
    </g>
    <g id="xtick_5">
     <g id="line2d_9">
      <g>
       <use style="stroke:#000000;stroke-width:0.5;" x="385.897233202" xlink:href="#mc7db9fdffb" y="397.881818182"/>
      </g>
     </g>
     <g id="line2d_10">
      <g>
       <use style="stroke:#000000;stroke-width:0.5;" x="385.897233202" xlink:href="#m5a7d422ac3" y="93.5181818182"/>
      </g>
     </g>
     <g id="text_5">
      <!-- 15 -->
      <g transform="translate(380.520670702 409.480255682)scale(0.1 -0.1)">
       <use xlink:href="#DejaVuSans-31"/>
       <use x="63.623046875" xlink:href="#DejaVuSans-35"/>
      </g>
     </g>
    </g>
    <g id="text_6">
     <!-- timestamp: 827 -->
     <defs>
      <path d="
M44.2812 53.0781
L44.2812 44.5781
Q40.4844 46.5312 36.375 47.5
Q32.2812 48.4844 27.875 48.4844
Q21.1875 48.4844 17.8438 46.4375
Q14.5 44.3906 14.5 40.2812
Q14.5 37.1562 16.8906 35.375
Q19.2812 33.5938 26.5156 31.9844
L29.5938 31.2969
Q39.1562 29.25 43.1875 25.5156
Q47.2188 21.7812 47.2188 15.0938
Q47.2188 7.46875 41.1875 3.01562
Q35.1562 -1.42188 24.6094 -1.42188
Q20.2188 -1.42188 15.4531 -0.5625
Q10.6875 0.296875 5.42188 2
L5.42188 11.2812
Q10.4062 8.6875 15.2344 7.39062
Q20.0625 6.10938 24.8125 6.10938
Q31.1562 6.10938 34.5625 8.28125
Q37.9844 10.4531 37.9844 14.4062
Q37.9844 18.0625 35.5156 20.0156
Q33.0625 21.9688 24.7031 23.7812
L21.5781 24.5156
Q13.2344 26.2656 9.51562 29.9062
Q5.8125 33.5469 5.8125 39.8906
Q5.8125 47.6094 11.2812 51.7969
Q16.75 56 26.8125 56
Q31.7812 56 36.1719 55.2656
Q40.5781 54.5469 44.2812 53.0781" id="DejaVuSans-73"/>
      <path d="
M52 44.1875
Q55.375 50.25 60.0625 53.125
Q64.75 56 71.0938 56
Q79.6406 56 84.2812 50.0156
Q88.9219 44.0469 88.9219 33.0156
L88.9219 0
L79.8906 0
L79.8906 32.7188
Q79.8906 40.5781 77.0938 44.375
Q74.3125 48.1875 68.6094 48.1875
Q61.625 48.1875 57.5625 43.5469
Q53.5156 38.9219 53.5156 30.9062
L53.5156 0
L44.4844 0
L44.4844 32.7188
Q44.4844 40.625 41.7031 44.4062
Q38.9219 48.1875 33.1094 48.1875
Q26.2188 48.1875 22.1562 43.5312
Q18.1094 38.875 18.1094 30.9062
L18.1094 0
L9.07812 0
L9.07812 54.6875
L18.1094 54.6875
L18.1094 46.1875
Q21.1875 51.2188 25.4844 53.6094
Q29.7812 56 35.6875 56
Q41.6562 56 45.8281 52.9688
Q50 49.9531 52 44.1875" id="DejaVuSans-6d"/>
      <path d="
M9.42188 54.6875
L18.4062 54.6875
L18.4062 0
L9.42188 0
z

M9.42188 75.9844
L18.4062 75.9844
L18.4062 64.5938
L9.42188 64.5938
z
" id="DejaVuSans-69"/>
      <path d="
M56.2031 29.5938
L56.2031 25.2031
L14.8906 25.2031
Q15.4844 15.9219 20.4844 11.0625
Q25.4844 6.20312 34.4219 6.20312
Q39.5938 6.20312 44.4531 7.46875
Q49.3125 8.73438 54.1094 11.2812
L54.1094 2.78125
Q49.2656 0.734375 44.1875 -0.34375
Q39.1094 -1.42188 33.8906 -1.42188
Q20.7969 -1.42188 13.1562 6.1875
Q5.51562 13.8125 5.51562 26.8125
Q5.51562 40.2344 12.7656 48.1094
Q20.0156 56 32.3281 56
Q43.3594 56 49.7812 48.8906
Q56.2031 41.7969 56.2031 29.5938
M47.2188 32.2344
Q47.125 39.5938 43.0938 43.9844
Q39.0625 48.3906 32.4219 48.3906
Q24.9062 48.3906 20.3906 44.1406
Q15.875 39.8906 15.1875 32.1719
z
" id="DejaVuSans-65"/>
      <path d="
M19.1875 8.29688
L53.6094 8.29688
L53.6094 0
L7.32812 0
L7.32812 8.29688
Q12.9375 14.1094 22.625 23.8906
Q32.3281 33.6875 34.8125 36.5312
Q39.5469 41.8438 41.4219 45.5312
Q43.3125 49.2188 43.3125 52.7812
Q43.3125 58.5938 39.2344 62.25
Q35.1562 65.9219 28.6094 65.9219
Q23.9688 65.9219 18.8125 64.3125
Q13.6719 62.7031 7.8125 59.4219
L7.8125 69.3906
Q13.7656 71.7812 18.9375 73
Q24.125 74.2188 28.4219 74.2188
Q39.75 74.2188 46.4844 68.5469
Q53.2188 62.8906 53.2188 53.4219
Q53.2188 48.9219 51.5312 44.8906
Q49.8594 40.875 45.4062 35.4062
Q44.1875 33.9844 37.6406 27.2188
Q31.1094 20.4531 19.1875 8.29688" id="DejaVuSans-32"/>
      <path d="
M11.7188 12.4062
L22.0156 12.4062
L22.0156 0
L11.7188 0
z

M11.7188 51.7031
L22.0156 51.7031
L22.0156 39.3125
L11.7188 39.3125
z
" id="DejaVuSans-3a"/>
      <path d="
M34.2812 27.4844
Q23.3906 27.4844 19.1875 25
Q14.9844 22.5156 14.9844 16.5
Q14.9844 11.7188 18.1406 8.90625
Q21.2969 6.10938 26.7031 6.10938
Q34.1875 6.10938 38.7031 11.4062
Q43.2188 16.7031 43.2188 25.4844
L43.2188 27.4844
z

M52.2031 31.2031
L52.2031 0
L43.2188 0
L43.2188 8.29688
Q40.1406 3.32812 35.5469 0.953125
Q30.9531 -1.42188 24.3125 -1.42188
Q15.9219 -1.42188 10.9531 3.29688
Q6 8.01562 6 15.9219
Q6 25.1406 12.1719 29.8281
Q18.3594 34.5156 30.6094 34.5156
L43.2188 34.5156
L43.2188 35.4062
Q43.2188 41.6094 39.1406 45
Q35.0625 48.3906 27.6875 48.3906
Q23 48.3906 18.5469 47.2656
Q14.1094 46.1406 10.0156 43.8906
L10.0156 52.2031
Q14.9375 54.1094 19.5781 55.0469
Q24.2188 56 28.6094 56
Q40.4844 56 46.3438 49.8438
Q52.2031 43.7031 52.2031 31.2031" id="DejaVuSans-61"/>
      <path d="
M18.3125 70.2188
L18.3125 54.6875
L36.8125 54.6875
L36.8125 47.7031
L18.3125 47.7031
L18.3125 18.0156
Q18.3125 11.3281 20.1406 9.42188
Q21.9688 7.51562 27.5938 7.51562
L36.8125 7.51562
L36.8125 0
L27.5938 0
Q17.1875 0 13.2344 3.875
Q9.28125 7.76562 9.28125 18.0156
L9.28125 47.7031
L2.6875 47.7031
L2.6875 54.6875
L9.28125 54.6875
L9.28125 70.2188
z
" id="DejaVuSans-74"/>
      <path id="DejaVuSans-20"/>
      <path d="
M31.7812 34.625
Q24.75 34.625 20.7188 30.8594
Q16.7031 27.0938 16.7031 20.5156
Q16.7031 13.9219 20.7188 10.1562
Q24.75 6.39062 31.7812 6.39062
Q38.8125 6.39062 42.8594 10.1719
Q46.9219 13.9688 46.9219 20.5156
Q46.9219 27.0938 42.8906 30.8594
Q38.875 34.625 31.7812 34.625
M21.9219 38.8125
Q15.5781 40.375 12.0312 44.7188
Q8.5 49.0781 8.5 55.3281
Q8.5 64.0625 14.7188 69.1406
Q20.9531 74.2188 31.7812 74.2188
Q42.6719 74.2188 48.875 69.1406
Q55.0781 64.0625 55.0781 55.3281
Q55.0781 49.0781 51.5312 44.7188
Q48 40.375 41.7031 38.8125
Q48.8281 37.1562 52.7969 32.3125
Q56.7812 27.4844 56.7812 20.5156
Q56.7812 9.90625 50.3125 4.23438
Q43.8438 -1.42188 31.7812 -1.42188
Q19.7344 -1.42188 13.25 4.23438
Q6.78125 9.90625 6.78125 20.5156
Q6.78125 27.4844 10.7812 32.3125
Q14.7969 37.1562 21.9219 38.8125
M18.3125 54.3906
Q18.3125 48.7344 21.8438 45.5625
Q25.3906 42.3906 31.7812 42.3906
Q38.1406 42.3906 41.7188 45.5625
Q45.3125 48.7344 45.3125 54.3906
Q45.3125 60.0625 41.7188 63.2344
Q38.1406 66.4062 31.7812 66.4062
Q25.3906 66.4062 21.8438 63.2344
Q18.3125 60.0625 18.3125 54.3906" id="DejaVuSans-38"/>
      <path d="
M18.1094 8.20312
L18.1094 -20.7969
L9.07812 -20.7969
L9.07812 54.6875
L18.1094 54.6875
L18.1094 46.3906
Q20.9531 51.2656 25.2656 53.625
Q29.5938 56 35.5938 56
Q45.5625 56 51.7812 48.0938
Q58.0156 40.1875 58.0156 27.2969
Q58.0156 14.4062 51.7812 6.48438
Q45.5625 -1.42188 35.5938 -1.42188
Q29.5938 -1.42188 25.2656 0.953125
Q20.9531 3.32812 18.1094 8.20312
M48.6875 27.2969
Q48.6875 37.2031 44.6094 42.8438
Q40.5312 48.4844 33.4062 48.4844
Q26.2656 48.4844 22.1875 42.8438
Q18.1094 37.2031 18.1094 27.2969
Q18.1094 17.3906 22.1875 11.75
Q26.2656 6.10938 33.4062 6.10938
Q40.5312 6.10938 44.6094 11.75
Q48.6875 17.3906 48.6875 27.2969" id="DejaVuSans-70"/>
      <path d="
M8.20312 72.9062
L55.0781 72.9062
L55.0781 68.7031
L28.6094 0
L18.3125 0
L43.2188 64.5938
L8.20312 64.5938
z
" id="DejaVuSans-37"/>
     </defs>
     <g transform="translate(220.822443182 424.158380682)scale(0.1 -0.1)">
      <use xlink:href="#DejaVuSans-74"/>
      <use x="39.208984375" xlink:href="#DejaVuSans-69"/>
      <use x="66.9921875" xlink:href="#DejaVuSans-6d"/>
      <use x="164.404296875" xlink:href="#DejaVuSans-65"/>
      <use x="225.927734375" xlink:href="#DejaVuSans-73"/>
      <use x="278.02734375" xlink:href="#DejaVuSans-74"/>
      <use x="317.236328125" xlink:href="#DejaVuSans-61"/>
      <use x="378.515625" xlink:href="#DejaVuSans-6d"/>
      <use x="475.927734375" xlink:href="#DejaVuSans-70"/>
      <use x="539.404296875" xlink:href="#DejaVuSans-3a"/>
      <use x="573.095703125" xlink:href="#DejaVuSans-20"/>
      <use x="604.8828125" xlink:href="#DejaVuSans-38"/>
      <use x="668.505859375" xlink:href="#DejaVuSans-32"/>
      <use x="732.12890625" xlink:href="#DejaVuSans-37"/>
     </g>
    </g>
   </g>
   <g id="matplotlib.axis_2">
    <g id="ytick_1">
     <g id="line2d_11">
      <defs>
       <path d="
M0 0
L4 0" id="md7965d1ba0" style="stroke:#000000;stroke-width:0.5;"/>
      </defs>
      <g>
       <use style="stroke:#000000;stroke-width:0.5;" x="108.0" xlink:href="#md7965d1ba0" y="106.751383399"/>
      </g>
     </g>
     <g id="line2d_12">
      <defs>
       <path d="
M0 0
L-4 0" id="md9a1c1a7cd" style="stroke:#000000;stroke-width:0.5;"/>
      </defs>
      <g>
       <use style="stroke:#000000;stroke-width:0.5;" x="412.363636364" xlink:href="#md9a1c1a7cd" y="106.751383399"/>
      </g>
     </g>
     <g id="text_7">
      <!-- −5 -->
      <g transform="translate(91.190625 109.510758399)scale(0.1 -0.1)">
       <use xlink:href="#DejaVuSans-2212"/>
       <use x="83.7890625" xlink:href="#DejaVuSans-35"/>
      </g>
     </g>
    </g>
    <g id="ytick_2">
     <g id="line2d_13">
      <g>
       <use style="stroke:#000000;stroke-width:0.5;" x="108.0" xlink:href="#md7965d1ba0" y="172.917391304"/>
      </g>
     </g>
     <g id="line2d_14">
      <g>
       <use style="stroke:#000000;stroke-width:0.5;" x="412.363636364" xlink:href="#md9a1c1a7cd" y="172.917391304"/>
      </g>
     </g>
     <g id="text_8">
      <!-- 0 -->
      <g transform="translate(98.9609375 175.676766304)scale(0.1 -0.1)">
       <use xlink:href="#DejaVuSans-30"/>
      </g>
     </g>
    </g>
    <g id="ytick_3">
     <g id="line2d_15">
      <g>
       <use style="stroke:#000000;stroke-width:0.5;" x="108.0" xlink:href="#md7965d1ba0" y="239.083399209"/>
      </g>
     </g>
     <g id="line2d_16">
      <g>
       <use style="stroke:#000000;stroke-width:0.5;" x="412.363636364" xlink:href="#md9a1c1a7cd" y="239.083399209"/>
      </g>
     </g>
     <g id="text_9">
      <!-- 5 -->
      <g transform="translate(99.2828125 241.842774209)scale(0.1 -0.1)">
       <use xlink:href="#DejaVuSans-35"/>
      </g>
     </g>
    </g>
    <g id="ytick_4">
     <g id="line2d_17">
      <g>
       <use style="stroke:#000000;stroke-width:0.5;" x="108.0" xlink:href="#md7965d1ba0" y="305.249407115"/>
      </g>
     </g>
     <g id="line2d_18">
      <g>
       <use style="stroke:#000000;stroke-width:0.5;" x="412.363636364" xlink:href="#md9a1c1a7cd" y="305.249407115"/>
      </g>
     </g>
     <g id="text_10">
      <!-- 10 -->
      <g transform="translate(93.0375 308.008782115)scale(0.1 -0.1)">
       <use xlink:href="#DejaVuSans-31"/>
       <use x="63.623046875" xlink:href="#DejaVuSans-30"/>
      </g>
     </g>
    </g>
    <g id="ytick_5">
     <g id="line2d_19">
      <g>
       <use style="stroke:#000000;stroke-width:0.5;" x="108.0" xlink:href="#md7965d1ba0" y="371.41541502"/>
      </g>
     </g>
     <g id="line2d_20">
      <g>
       <use style="stroke:#000000;stroke-width:0.5;" x="412.363636364" xlink:href="#md9a1c1a7cd" y="371.41541502"/>
      </g>
     </g>
     <g id="text_11">
      <!-- 15 -->
      <g transform="translate(93.246875 374.17479002)scale(0.1 -0.1)">
       <use xlink:href="#DejaVuSans-31"/>
       <use x="63.623046875" xlink:href="#DejaVuSans-35"/>
      </g>
     </g>
    </g>
   </g>
   <g id="patch_4">
    <path d="
M108 397.882
L412.364 397.882" style="fill:none;stroke:#000000;"/>
   </g>
   <g id="patch_5">
    <path d="
M108 93.5182
L412.364 93.5182" style="fill:none;stroke:#000000;"/>
   </g>
   <g id="patch_6">
    <path d="
M412.364 397.882
L412.364 93.5182" style="fill:none;stroke:#000000;"/>
   </g>
   <g id="patch_7">
    <path d="
M108 397.882
L108 93.5182" style="fill:none;stroke:#000000;"/>
   </g>
   <g id="text_12">
    <!-- 4 -->
    <defs>
     <path d="
M37.7969 64.3125
L12.8906 25.3906
L37.7969 25.3906
z

M35.2031 72.9062
L47.6094 72.9062
L47.6094 25.3906
L58.0156 25.3906
L58.0156 17.1875
L47.6094 17.1875
L47.6094 0
L37.7969 0
L37.7969 17.1875
L4.89062 17.1875
L4.89062 26.7031
z
" id="DejaVuSans-34"/>
    </defs>
    <g transform="translate(309.646770496 218.78109637)scale(0.1 -0.1)">
     <use xlink:href="#DejaVuSans-34"/>
    </g>
   </g>
   <g id="text_13">
    <!-- 6 -->
    <defs>
     <path d="
M33.0156 40.375
Q26.375 40.375 22.4844 35.8281
Q18.6094 31.2969 18.6094 23.3906
Q18.6094 15.5312 22.4844 10.9531
Q26.375 6.39062 33.0156 6.39062
Q39.6562 6.39062 43.5312 10.9531
Q47.4062 15.5312 47.4062 23.3906
Q47.4062 31.2969 43.5312 35.8281
Q39.6562 40.375 33.0156 40.375
M52.5938 71.2969
L52.5938 62.3125
Q48.875 64.0625 45.0938 64.9844
Q41.3125 65.9219 37.5938 65.9219
Q27.8281 65.9219 22.6719 59.3281
Q17.5312 52.7344 16.7969 39.4062
Q19.6719 43.6562 24.0156 45.9219
Q28.375 48.1875 33.5938 48.1875
Q44.5781 48.1875 50.9531 41.5156
Q57.3281 34.8594 57.3281 23.3906
Q57.3281 12.1562 50.6875 5.35938
Q44.0469 -1.42188 33.0156 -1.42188
Q20.3594 -1.42188 13.6719 8.26562
Q6.98438 17.9688 6.98438 36.375
Q6.98438 53.6562 15.1875 63.9375
Q23.3906 74.2188 37.2031 74.2188
Q40.9219 74.2188 44.7031 73.4844
Q48.4844 72.75 52.5938 71.2969" id="DejaVuSans-36"/>
    </defs>
    <g transform="translate(275.702571897 233.060342802)scale(0.1 -0.1)">
     <use xlink:href="#DejaVuSans-36"/>
    </g>
   </g>
   <g id="text_14">
    <!-- 7 -->
    <g transform="translate(312.406319983 230.245140817)scale(0.1 -0.1)">
     <use xlink:href="#DejaVuSans-37"/>
    </g>
   </g>
   <g id="text_15">
    <!-- 8 -->
    <g transform="translate(208.62576335 258.976761075)scale(0.1 -0.1)">
     <use xlink:href="#DejaVuSans-38"/>
    </g>
   </g>
   <g id="text_16">
    <!-- 9 -->
    <defs>
     <path d="
M10.9844 1.51562
L10.9844 10.5
Q14.7031 8.73438 18.5 7.8125
Q22.3125 6.89062 25.9844 6.89062
Q35.75 6.89062 40.8906 13.4531
Q46.0469 20.0156 46.7812 33.4062
Q43.9531 29.2031 39.5938 26.9531
Q35.25 24.7031 29.9844 24.7031
Q19.0469 24.7031 12.6719 31.3125
Q6.29688 37.9375 6.29688 49.4219
Q6.29688 60.6406 12.9375 67.4219
Q19.5781 74.2188 30.6094 74.2188
Q43.2656 74.2188 49.9219 64.5156
Q56.5938 54.8281 56.5938 36.375
Q56.5938 19.1406 48.4062 8.85938
Q40.2344 -1.42188 26.4219 -1.42188
Q22.7031 -1.42188 18.8906 -0.6875
Q15.0938 0.046875 10.9844 1.51562
M30.6094 32.4219
Q37.25 32.4219 41.125 36.9531
Q45.0156 41.5 45.0156 49.4219
Q45.0156 57.2812 41.125 61.8438
Q37.25 66.4062 30.6094 66.4062
Q23.9688 66.4062 20.0938 61.8438
Q16.2188 57.2812 16.2188 49.4219
Q16.2188 41.5 20.0938 36.9531
Q23.9688 32.4219 30.6094 32.4219" id="DejaVuSans-39"/>
    </defs>
    <g transform="translate(139.13294535 245.849188183)scale(0.1 -0.1)">
     <use xlink:href="#DejaVuSans-39"/>
    </g>
   </g>
   <g id="text_17">
    <!-- 10 -->
    <g transform="translate(263.948788945 261.701635724)scale(0.1 -0.1)">
     <use xlink:href="#DejaVuSans-31"/>
     <use x="63.623046875" xlink:href="#DejaVuSans-30"/>
    </g>
   </g>
   <g id="text_18">
    <!-- 11 -->
    <g transform="translate(236.612059685 279.729466617)scale(0.1 -0.1)">
     <use xlink:href="#DejaVuSans-31"/>
     <use x="63.623046875" xlink:href="#DejaVuSans-31"/>
    </g>
   </g>
   <g id="text_19">
    <!-- 13 -->
    <defs>
     <path d="
M40.5781 39.3125
Q47.6562 37.7969 51.625 33
Q55.6094 28.2188 55.6094 21.1875
Q55.6094 10.4062 48.1875 4.48438
Q40.7656 -1.42188 27.0938 -1.42188
Q22.5156 -1.42188 17.6562 -0.515625
Q12.7969 0.390625 7.625 2.20312
L7.625 11.7188
Q11.7188 9.32812 16.5938 8.10938
Q21.4844 6.89062 26.8125 6.89062
Q36.0781 6.89062 40.9375 10.5469
Q45.7969 14.2031 45.7969 21.1875
Q45.7969 27.6406 41.2812 31.2656
Q36.7656 34.9062 28.7188 34.9062
L20.2188 34.9062
L20.2188 43.0156
L29.1094 43.0156
Q36.375 43.0156 40.2344 45.9219
Q44.0938 48.8281 44.0938 54.2969
Q44.0938 59.9062 40.1094 62.9062
Q36.1406 65.9219 28.7188 65.9219
Q24.6562 65.9219 20.0156 65.0312
Q15.375 64.1562 9.8125 62.3125
L9.8125 71.0938
Q15.4375 72.6562 20.3438 73.4375
Q25.25 74.2188 29.5938 74.2188
Q40.8281 74.2188 47.3594 69.1094
Q53.9062 64.0156 53.9062 55.3281
Q53.9062 49.2656 50.4375 45.0938
Q46.9688 40.9219 40.5781 39.3125" id="DejaVuSans-33"/>
    </defs>
    <g transform="translate(238.082223464 241.26507586)scale(0.1 -0.1)">
     <use xlink:href="#DejaVuSans-31"/>
     <use x="63.623046875" xlink:href="#DejaVuSans-33"/>
    </g>
   </g>
   <g id="text_20">
    <!-- 14 -->
    <g transform="translate(319.500594433 211.96138247)scale(0.1 -0.1)">
     <use xlink:href="#DejaVuSans-31"/>
     <use x="63.623046875" xlink:href="#DejaVuSans-34"/>
    </g>
   </g>
   <g id="text_21">
    <!-- 15 -->
    <g transform="translate(179.369578191 243.56089566)scale(0.1 -0.1)">
     <use xlink:href="#DejaVuSans-31"/>
     <use x="63.623046875" xlink:href="#DejaVuSans-35"/>
    </g>
   </g>
   <g id="text_22">
    <!-- 16 -->
    <g transform="translate(134.466403162 261.122035315)scale(0.1 -0.1)">
     <use xlink:href="#DejaVuSans-31"/>
     <use x="63.623046875" xlink:href="#DejaVuSans-36"/>
    </g>
   </g>
   <g id="text_23">
    <!-- b1 -->
    <defs>
     <path d="
M48.6875 27.2969
Q48.6875 37.2031 44.6094 42.8438
Q40.5312 48.4844 33.4062 48.4844
Q26.2656 48.4844 22.1875 42.8438
Q18.1094 37.2031 18.1094 27.2969
Q18.1094 17.3906 22.1875 11.75
Q26.2656 6.10938 33.4062 6.10938
Q40.5312 6.10938 44.6094 11.75
Q48.6875 17.3906 48.6875 27.2969
M18.1094 46.3906
Q20.9531 51.2656 25.2656 53.625
Q29.5938 56 35.5938 56
Q45.5625 56 51.7812 48.0938
Q58.0156 40.1875 58.0156 27.2969
Q58.0156 14.4062 51.7812 6.48438
Q45.5625 -1.42188 35.5938 -1.42188
Q29.5938 -1.42188 25.2656 0.953125
Q20.9531 3.32812 18.1094 8.20312
L18.1094 0
L9.07812 0
L9.07812 75.9844
L18.1094 75.9844
z
" id="DejaVuSans-62"/>
    </defs>
    <g transform="translate(134.466403162 278.510047575)scale(0.1 -0.1)">
     <use xlink:href="#DejaVuSans-62"/>
     <use x="63.4765625" xlink:href="#DejaVuSans-31"/>
    </g>
   </g>
   <g id="text_24">
    <!-- b2 -->
    <g transform="translate(173.04863901 250.907519022)scale(0.1 -0.1)">
     <use xlink:href="#DejaVuSans-62"/>
     <use x="63.4765625" xlink:href="#DejaVuSans-32"/>
    </g>
   </g>
   <g id="text_25">
    <!-- b3 -->
    <g transform="translate(211.203794378 256.598141216)scale(0.1 -0.1)">
     <use xlink:href="#DejaVuSans-62"/>
     <use x="63.4765625" xlink:href="#DejaVuSans-33"/>
    </g>
   </g>
   <g id="text_26">
    <!-- b4 -->
    <g transform="translate(280.113803622 219.902660797)scale(0.1 -0.1)">
     <use xlink:href="#DejaVuSans-62"/>
     <use x="63.4765625" xlink:href="#DejaVuSans-34"/>
    </g>
   </g>
   <g id="text_27">
    <!-- b5 -->
    <g transform="translate(141.710976377 243.470568324)scale(0.1 -0.1)">
     <use xlink:href="#DejaVuSans-62"/>
     <use x="63.4765625" xlink:href="#DejaVuSans-35"/>
    </g>
   </g>
   <g id="text_28">
    <!-- b6 -->
    <g transform="translate(314.697820853 216.771313135)scale(0.1 -0.1)">
     <use xlink:href="#DejaVuSans-62"/>
     <use x="63.4765625" xlink:href="#DejaVuSans-36"/>
    </g>
   </g>
   <g id="text_29">
    <!-- Control group session 2 -->
    <defs>
     <path d="
M30.6094 48.3906
Q23.3906 48.3906 19.1875 42.75
Q14.9844 37.1094 14.9844 27.2969
Q14.9844 17.4844 19.1562 11.8438
Q23.3438 6.20312 30.6094 6.20312
Q37.7969 6.20312 41.9844 11.8594
Q46.1875 17.5312 46.1875 27.2969
Q46.1875 37.0156 41.9844 42.7031
Q37.7969 48.3906 30.6094 48.3906
M30.6094 56
Q42.3281 56 49.0156 48.375
Q55.7188 40.7656 55.7188 27.2969
Q55.7188 13.875 49.0156 6.21875
Q42.3281 -1.42188 30.6094 -1.42188
Q18.8438 -1.42188 12.1719 6.21875
Q5.51562 13.875 5.51562 27.2969
Q5.51562 40.7656 12.1719 48.375
Q18.8438 56 30.6094 56" id="DejaVuSans-6f"/>
     <path d="
M9.42188 75.9844
L18.4062 75.9844
L18.4062 0
L9.42188 0
z
" id="DejaVuSans-6c"/>
     <path d="
M45.4062 27.9844
Q45.4062 37.75 41.375 43.1094
Q37.3594 48.4844 30.0781 48.4844
Q22.8594 48.4844 18.8281 43.1094
Q14.7969 37.75 14.7969 27.9844
Q14.7969 18.2656 18.8281 12.8906
Q22.8594 7.51562 30.0781 7.51562
Q37.3594 7.51562 41.375 12.8906
Q45.4062 18.2656 45.4062 27.9844
M54.3906 6.78125
Q54.3906 -7.17188 48.1875 -13.9844
Q42 -20.7969 29.2031 -20.7969
Q24.4688 -20.7969 20.2656 -20.0938
Q16.0625 -19.3906 12.1094 -17.9219
L12.1094 -9.1875
Q16.0625 -11.3281 19.9219 -12.3438
Q23.7812 -13.375 27.7812 -13.375
Q36.625 -13.375 41.0156 -8.76562
Q45.4062 -4.15625 45.4062 5.17188
L45.4062 9.625
Q42.625 4.78125 38.2812 2.39062
Q33.9375 0 27.875 0
Q17.8281 0 11.6719 7.65625
Q5.51562 15.3281 5.51562 27.9844
Q5.51562 40.6719 11.6719 48.3281
Q17.8281 56 27.875 56
Q33.9375 56 38.2812 53.6094
Q42.625 51.2188 45.4062 46.3906
L45.4062 54.6875
L54.3906 54.6875
z
" id="DejaVuSans-67"/>
     <path d="
M8.5 21.5781
L8.5 54.6875
L17.4844 54.6875
L17.4844 21.9219
Q17.4844 14.1562 20.5 10.2656
Q23.5312 6.39062 29.5938 6.39062
Q36.8594 6.39062 41.0781 11.0312
Q45.3125 15.6719 45.3125 23.6875
L45.3125 54.6875
L54.2969 54.6875
L54.2969 0
L45.3125 0
L45.3125 8.40625
Q42.0469 3.42188 37.7188 1
Q33.4062 -1.42188 27.6875 -1.42188
Q18.2656 -1.42188 13.375 4.4375
Q8.5 10.2969 8.5 21.5781
M31.1094 56
z
" id="DejaVuSans-75"/>
     <path d="
M54.8906 33.0156
L54.8906 0
L45.9062 0
L45.9062 32.7188
Q45.9062 40.4844 42.875 44.3281
Q39.8438 48.1875 33.7969 48.1875
Q26.5156 48.1875 22.3125 43.5469
Q18.1094 38.9219 18.1094 30.9062
L18.1094 0
L9.07812 0
L9.07812 54.6875
L18.1094 54.6875
L18.1094 46.1875
Q21.3438 51.125 25.7031 53.5625
Q30.0781 56 35.7969 56
Q45.2188 56 50.0469 50.1719
Q54.8906 44.3438 54.8906 33.0156" id="DejaVuSans-6e"/>
     <path d="
M64.4062 67.2812
L64.4062 56.8906
Q59.4219 61.5312 53.7812 63.8125
Q48.1406 66.1094 41.7969 66.1094
Q29.2969 66.1094 22.6562 58.4688
Q16.0156 50.8281 16.0156 36.375
Q16.0156 21.9688 22.6562 14.3281
Q29.2969 6.6875 41.7969 6.6875
Q48.1406 6.6875 53.7812 8.98438
Q59.4219 11.2812 64.4062 15.9219
L64.4062 5.60938
Q59.2344 2.09375 53.4375 0.328125
Q47.6562 -1.42188 41.2188 -1.42188
Q24.6562 -1.42188 15.125 8.70312
Q5.60938 18.8438 5.60938 36.375
Q5.60938 53.9531 15.125 64.0781
Q24.6562 74.2188 41.2188 74.2188
Q47.75 74.2188 53.5312 72.4844
Q59.3281 70.75 64.4062 67.2812" id="DejaVuSans-43"/>
     <path d="
M41.1094 46.2969
Q39.5938 47.1719 37.8125 47.5781
Q36.0312 48 33.8906 48
Q26.2656 48 22.1875 43.0469
Q18.1094 38.0938 18.1094 28.8125
L18.1094 0
L9.07812 0
L9.07812 54.6875
L18.1094 54.6875
L18.1094 46.1875
Q20.9531 51.1719 25.4844 53.5781
Q30.0312 56 36.5312 56
Q37.4531 56 38.5781 55.875
Q39.7031 55.7656 41.0625 55.5156
z
" id="DejaVuSans-72"/>
    </defs>
    <g transform="translate(189.926505682 88.5181818182)scale(0.12 -0.12)">
     <use xlink:href="#DejaVuSans-43"/>
     <use x="69.82421875" xlink:href="#DejaVuSans-6f"/>
     <use x="131.005859375" xlink:href="#DejaVuSans-6e"/>
     <use x="194.384765625" xlink:href="#DejaVuSans-74"/>
     <use x="233.59375" xlink:href="#DejaVuSans-72"/>
     <use x="272.45703125" xlink:href="#DejaVuSans-6f"/>
     <use x="333.638671875" xlink:href="#DejaVuSans-6c"/>
     <use x="361.421875" xlink:href="#DejaVuSans-20"/>
     <use x="393.208984375" xlink:href="#DejaVuSans-67"/>
     <use x="456.685546875" xlink:href="#DejaVuSans-72"/>
     <use x="495.548828125" xlink:href="#DejaVuSans-6f"/>
     <use x="556.73046875" xlink:href="#DejaVuSans-75"/>
     <use x="620.109375" xlink:href="#DejaVuSans-70"/>
     <use x="683.5859375" xlink:href="#DejaVuSans-20"/>
     <use x="715.373046875" xlink:href="#DejaVuSans-73"/>
     <use x="767.47265625" xlink:href="#DejaVuSans-65"/>
     <use x="828.99609375" xlink:href="#DejaVuSans-73"/>
     <use x="881.095703125" xlink:href="#DejaVuSans-73"/>
     <use x="933.1953125" xlink:href="#DejaVuSans-69"/>
     <use x="960.978515625" xlink:href="#DejaVuSans-6f"/>
     <use x="1022.16015625" xlink:href="#DejaVuSans-6e"/>
     <use x="1085.5390625" xlink:href="#DejaVuSans-20"/>
     <use x="1117.326171875" xlink:href="#DejaVuSans-32"/>
    </g>
   </g>
   <g id="legend_1">
    <g id="patch_8">
     <path d="
M296.875 138.346
L406.364 138.346
L406.364 99.5182
L296.875 99.5182
L296.875 138.346
z
" style="fill:#ffffff;stroke:#000000;"/>
    </g>
    <g id="patch_9">
     <path d="
M301.675 113.436
L325.675 113.436
L325.675 105.036
L301.675 105.036
z
" style="fill:#ff0000;fill-opacity:0.5;stroke:#ff0000;stroke-opacity:0.5;"/>
    </g>
    <g id="text_30">
     <!-- bench area -->
     <defs>
      <path d="
M48.7812 52.5938
L48.7812 44.1875
Q44.9688 46.2969 41.1406 47.3438
Q37.3125 48.3906 33.4062 48.3906
Q24.6562 48.3906 19.8125 42.8438
Q14.9844 37.3125 14.9844 27.2969
Q14.9844 17.2812 19.8125 11.7344
Q24.6562 6.20312 33.4062 6.20312
Q37.3125 6.20312 41.1406 7.25
Q44.9688 8.29688 48.7812 10.4062
L48.7812 2.09375
Q45.0156 0.34375 40.9844 -0.53125
Q36.9688 -1.42188 32.4219 -1.42188
Q20.0625 -1.42188 12.7812 6.34375
Q5.51562 14.1094 5.51562 27.2969
Q5.51562 40.6719 12.8594 48.3281
Q20.2188 56 33.0156 56
Q37.1562 56 41.1094 55.1406
Q45.0625 54.2969 48.7812 52.5938" id="DejaVuSans-63"/>
      <path d="
M54.8906 33.0156
L54.8906 0
L45.9062 0
L45.9062 32.7188
Q45.9062 40.4844 42.875 44.3281
Q39.8438 48.1875 33.7969 48.1875
Q26.5156 48.1875 22.3125 43.5469
Q18.1094 38.9219 18.1094 30.9062
L18.1094 0
L9.07812 0
L9.07812 75.9844
L18.1094 75.9844
L18.1094 46.1875
Q21.3438 51.125 25.7031 53.5625
Q30.0781 56 35.7969 56
Q45.2188 56 50.0469 50.1719
Q54.8906 44.3438 54.8906 33.0156" id="DejaVuSans-68"/>
     </defs>
     <g transform="translate(335.274886364 113.436306818)scale(0.12 -0.12)">
      <use xlink:href="#DejaVuSans-62"/>
      <use x="63.4765625" xlink:href="#DejaVuSans-65"/>
      <use x="125.0" xlink:href="#DejaVuSans-6e"/>
      <use x="188.37890625" xlink:href="#DejaVuSans-63"/>
      <use x="243.359375" xlink:href="#DejaVuSans-68"/>
      <use x="306.73828125" xlink:href="#DejaVuSans-20"/>
      <use x="338.525390625" xlink:href="#DejaVuSans-61"/>
      <use x="399.8046875" xlink:href="#DejaVuSans-72"/>
      <use x="438.66796875" xlink:href="#DejaVuSans-65"/>
      <use x="500.19140625" xlink:href="#DejaVuSans-61"/>
     </g>
    </g>
    <g id="PathCollection_3">
     <defs>
      <path d="
M0 8.66025
C2.29673 8.66025 4.49969 7.74776 6.12372 6.12372
C7.74776 4.49969 8.66025 2.29673 8.66025 0
C8.66025 -2.29673 7.74776 -4.49969 6.12372 -6.12372
C4.49969 -7.74776 2.29673 -8.66025 0 -8.66025
C-2.29673 -8.66025 -4.49969 -7.74776 -6.12372 -6.12372
C-7.74776 -4.49969 -8.66025 -2.29673 -8.66025 0
C-8.66025 2.29673 -7.74776 4.49969 -6.12372 6.12372
C-4.49969 7.74776 -2.29673 8.66025 0 8.66025
z
" id="C2_0_2aea4494f3"/>
      <path d="
M0 8.66025
C2.29673 8.66025 4.49969 7.74776 6.12372 6.12372
C7.74776 4.49969 8.66025 2.29673 8.66025 0
C8.66025 -2.29673 7.74776 -4.49969 6.12372 -6.12372
C4.49969 -7.74776 2.29673 -8.66025 0 -8.66025
C-2.29673 -8.66025 -4.49969 -7.74776 -6.12372 -6.12372
C-7.74776 -4.49969 -8.66025 -2.29673 -8.66025 0
C-8.66025 2.29673 -7.74776 4.49969 -6.12372 6.12372
C-4.49969 7.74776 -2.29673 8.66025 0 8.66025
z
" id="C2_1_2aea4494f3"/>
      <path d="
M0 8.66025
C2.29673 8.66025 4.49969 7.74776 6.12372 6.12372
C7.74776 4.49969 8.66025 2.29673 8.66025 0
C8.66025 -2.29673 7.74776 -4.49969 6.12372 -6.12372
C4.49969 -7.74776 2.29673 -8.66025 0 -8.66025
C-2.29673 -8.66025 -4.49969 -7.74776 -6.12372 -6.12372
C-7.74776 -4.49969 -8.66025 -2.29673 -8.66025 0
C-8.66025 2.29673 -7.74776 4.49969 -6.12372 6.12372
C-4.49969 7.74776 -2.29673 8.66025 0 8.66025
z
" id="C2_2_2aea4494f3"/>
     </defs>
     <use style="fill:#008000;fill-opacity:0.5;stroke:#008000;stroke-opacity:0.5;" x="305.274886364" xlink:href="#C2_0_2aea4494f3" y="127.900056818"/>
     <use style="fill:#008000;fill-opacity:0.5;stroke:#008000;stroke-opacity:0.5;" x="313.674886364" xlink:href="#C2_1_2aea4494f3" y="126.850056818"/>
     <use style="fill:#008000;fill-opacity:0.5;stroke:#008000;stroke-opacity:0.5;" x="322.074886364" xlink:href="#C2_2_2aea4494f3" y="128.425056818"/>
    </g>
    <g id="text_31">
     <!-- beacons -->
     <g transform="translate(335.274886364 131.050056818)scale(0.12 -0.12)">
      <use xlink:href="#DejaVuSans-62"/>
      <use x="63.4765625" xlink:href="#DejaVuSans-65"/>
      <use x="125.0" xlink:href="#DejaVuSans-61"/>
      <use x="186.279296875" xlink:href="#DejaVuSans-63"/>
      <use x="241.259765625" xlink:href="#DejaVuSans-6f"/>
      <use x="302.44140625" xlink:href="#DejaVuSans-6e"/>
      <use x="365.8203125" xlink:href="#DejaVuSans-73"/>
     </g>
    </g>
   </g>
  </g>
  <g id="axes_2">
   <g id="patch_10">
    <path d="
M473.236 397.882
L777.6 397.882
L777.6 93.5182
L473.236 93.5182
z
" style="fill:#ffffff;"/>
   </g>
   <g id="PathCollection_4">
    <defs>
     <path d="
M0 2.23607
C0.593012 2.23607 1.16182 2.00046 1.58114 1.58114
C2.00046 1.16182 2.23607 0.593012 2.23607 0
C2.23607 -0.593012 2.00046 -1.16182 1.58114 -1.58114
C1.16182 -2.00046 0.593012 -2.23607 0 -2.23607
C-0.593012 -2.23607 -1.16182 -2.00046 -1.58114 -1.58114
C-2.00046 -1.16182 -2.23607 -0.593012 -2.23607 0
C-2.23607 0.593012 -2.00046 1.16182 -1.58114 1.58114
C-1.16182 2.00046 -0.593012 2.23607 0 2.23607
z
" id="C3_0_919e3f95db"/>
    </defs>
    <g clip-path="url(#p582dd3108c)">
     <use style="fill:#0000ff;stroke:#000000;" x="600.917722979" xlink:href="#C3_0_919e3f95db" y="274.210612791"/>
    </g>
    <g clip-path="url(#p582dd3108c)">
     <use style="fill:#0000ff;stroke:#000000;" x="712.942249398" xlink:href="#C3_0_919e3f95db" y="298.958715315"/>
    </g>
    <g clip-path="url(#p582dd3108c)">
     <use style="fill:#0000ff;stroke:#000000;" x="680.482656893" xlink:href="#C3_0_919e3f95db" y="228.079344402"/>
    </g>
    <g clip-path="url(#p582dd3108c)">
     <use style="fill:#0000ff;stroke:#000000;" x="667.139129519" xlink:href="#C3_0_919e3f95db" y="232.839147967"/>
    </g>
    <g clip-path="url(#p582dd3108c)">
     <use style="fill:#0000ff;stroke:#000000;" x="658.927401651" xlink:href="#C3_0_919e3f95db" y="227.662322338"/>
    </g>
    <g clip-path="url(#p582dd3108c)">
     <use style="fill:#0000ff;stroke:#000000;" x="665.654681842" xlink:href="#C3_0_919e3f95db" y="285.498968678"/>
    </g>
    <g clip-path="url(#p582dd3108c)">
     <use style="fill:#0000ff;stroke:#000000;" x="644.522342138" xlink:href="#C3_0_919e3f95db" y="239.928523066"/>
    </g>
    <g clip-path="url(#p582dd3108c)">
     <use style="fill:#0000ff;stroke:#000000;" x="655.620338885" xlink:href="#C3_0_919e3f95db" y="285.304837717"/>
    </g>
    <g clip-path="url(#p582dd3108c)">
     <use style="fill:#0000ff;stroke:#000000;" x="561.345652966" xlink:href="#C3_0_919e3f95db" y="248.355244785"/>
    </g>
    <g clip-path="url(#p582dd3108c)">
     <use style="fill:#0000ff;stroke:#000000;" x="556.496504369" xlink:href="#C3_0_919e3f95db" y="245.752451899"/>
    </g>
    <g clip-path="url(#p582dd3108c)">
     <use style="fill:#0000ff;stroke:#000000;" x="601.925860266" xlink:href="#C3_0_919e3f95db" y="259.176248358"/>
    </g>
    <g clip-path="url(#p582dd3108c)">
     <use style="fill:#0000ff;stroke:#000000;" x="726.532831109" xlink:href="#C3_0_919e3f95db" y="276.640844822"/>
    </g>
   </g>
   <g id="PathCollection_5">
    <defs>
     <path d="
M0 8.66025
C2.29673 8.66025 4.49969 7.74776 6.12372 6.12372
C7.74776 4.49969 8.66025 2.29673 8.66025 0
C8.66025 -2.29673 7.74776 -4.49969 6.12372 -6.12372
C4.49969 -7.74776 2.29673 -8.66025 0 -8.66025
C-2.29673 -8.66025 -4.49969 -7.74776 -6.12372 -6.12372
C-7.74776 -4.49969 -8.66025 -2.29673 -8.66025 0
C-8.66025 2.29673 -7.74776 4.49969 -6.12372 6.12372
C-4.49969 7.74776 -2.29673 8.66025 0 8.66025
z
" id="C4_0_2aea4494f3"/>
    </defs>
    <g clip-path="url(#p582dd3108c)">
     <use style="fill:#008000;fill-opacity:0.5;stroke:#008000;stroke-opacity:0.5;" x="606.721614009" xlink:href="#C4_0_2aea4494f3" y="254.251073974"/>
    </g>
    <g clip-path="url(#p582dd3108c)">
     <use style="fill:#008000;fill-opacity:0.5;stroke:#008000;stroke-opacity:0.5;" x="561.663900443" xlink:href="#C4_0_2aea4494f3" y="240.834467551"/>
    </g>
    <g clip-path="url(#p582dd3108c)">
     <use style="fill:#008000;fill-opacity:0.5;stroke:#008000;stroke-opacity:0.5;" x="597.873391186" xlink:href="#C4_0_2aea4494f3" y="264.115802813"/>
    </g>
    <g clip-path="url(#p582dd3108c)">
     <use style="fill:#008000;fill-opacity:0.5;stroke:#008000;stroke-opacity:0.5;" x="711.845120688" xlink:href="#C4_0_2aea4494f3" y="301.446467631"/>
    </g>
    <g clip-path="url(#p582dd3108c)">
     <use style="fill:#008000;fill-opacity:0.5;stroke:#008000;stroke-opacity:0.5;" x="663.389231282" xlink:href="#C4_0_2aea4494f3" y="280.437183618"/>
    </g>
    <g clip-path="url(#p582dd3108c)">
     <use style="fill:#008000;fill-opacity:0.5;stroke:#008000;stroke-opacity:0.5;" x="658.591355889" xlink:href="#C4_0_2aea4494f3" y="232.673777149"/>
    </g>
   </g>
   <g id="patch_11">
    <path clip-path="url(#p582dd3108c)" d="
M683.536 198.985
C690.555 198.985 697.287 201.773 702.25 206.737
C707.214 211.7 710.002 218.432 710.002 225.451
C710.002 232.47 707.214 239.203 702.25 244.166
C697.287 249.129 690.555 251.918 683.536 251.918
C676.517 251.918 669.784 249.129 664.821 244.166
C659.858 239.203 657.069 232.47 657.069 225.451
C657.069 218.432 659.858 211.7 664.821 206.737
C669.784 201.773 676.517 198.985 683.536 198.985
z
" style="fill:#ff0000;fill-opacity:0.5;stroke:#ff0000;stroke-opacity:0.5;"/>
   </g>
   <g id="patch_12">
    <path clip-path="url(#p582dd3108c)" d="
M671.734 252.317
C678.753 252.317 685.486 255.105 690.449 260.068
C695.412 265.032 698.201 271.764 698.201 278.783
C698.201 285.802 695.412 292.534 690.449 297.498
C685.486 302.461 678.753 305.249 671.734 305.249
C664.715 305.249 657.983 302.461 653.02 297.498
C648.057 292.534 645.268 285.802 645.268 278.783
C645.268 271.764 648.057 265.032 653.02 260.068
C657.983 255.105 664.715 252.317 671.734 252.317
z
" style="fill:#e6e600;fill-opacity:0.4;stroke:#e6e600;stroke-opacity:0.4;"/>
   </g>
   <g id="patch_13">
    <path clip-path="url(#p582dd3108c)" d="
M645.635 294.442
L642.685 294.669
L643.363 295.798
L605.565 318.477
L605.572 318.488
L643.369 295.81
L644.047 296.939
z
" style="stroke:#000000;"/>
   </g>
   <g id="patch_14">
    <path clip-path="url(#p582dd3108c)" d="
M605.568 232.467
C612.587 232.467 619.32 235.255 624.283 240.219
C629.246 245.182 632.035 251.914 632.035 258.933
C632.035 265.952 629.246 272.685 624.283 277.648
C619.32 282.611 612.587 285.4 605.568 285.4
C598.549 285.4 591.817 282.611 586.854 277.648
C581.891 272.685 579.102 265.952 579.102 258.933
C579.102 251.914 581.891 245.182 586.854 240.219
C591.817 235.255 598.549 232.467 605.568 232.467
z
" style="fill:#e6e600;fill-opacity:0.4;stroke:#e6e600;stroke-opacity:0.4;"/>
   </g>
   <g id="patch_15">
    <path clip-path="url(#p582dd3108c)" d="
M605.568 289.37
L604.245 292.016
L605.562 292.016
L605.562 318.483
L605.575 318.483
L605.575 292.016
L606.892 292.016
z
" style="stroke:#000000;"/>
   </g>
   <g id="patch_16">
    <path clip-path="url(#p582dd3108c)" d="
M565.869 212.617
C572.888 212.617 579.62 215.406 584.583 220.369
C589.547 225.332 592.335 232.064 592.335 239.083
C592.335 246.102 589.547 252.835 584.583 257.798
C579.62 262.761 572.888 265.55 565.869 265.55
C558.85 265.55 552.117 262.761 547.154 257.798
C542.191 252.835 539.402 246.102 539.402 239.083
C539.402 232.064 542.191 225.332 547.154 220.369
C552.117 215.406 558.85 212.617 565.869 212.617
z
" style="fill:#e6e600;fill-opacity:0.4;stroke:#e6e600;stroke-opacity:0.4;"/>
   </g>
   <g id="patch_17">
    <path clip-path="url(#p582dd3108c)" d="
M579.48 266.307
L579.48 269.266
L580.658 268.677
L605.562 318.486
L605.574 318.48
L580.67 268.671
L581.848 268.082
z
" style="stroke:#000000;"/>
   </g>
   <g id="patch_18">
    <path clip-path="url(#p582dd3108c)" d="
M665.118 206
C672.137 206 678.869 208.789 683.832 213.752
C688.796 218.715 691.584 225.448 691.584 232.467
C691.584 239.486 688.796 246.218 683.832 251.181
C678.869 256.145 672.137 258.933 665.118 258.933
C658.099 258.933 651.366 256.145 646.403 251.181
C641.44 246.218 638.651 239.486 638.651 232.467
C638.651 225.448 641.44 218.715 646.403 213.752
C651.366 208.789 658.099 206 665.118 206
z
" style="fill:#e6e600;fill-opacity:0.4;stroke:#e6e600;stroke-opacity:0.4;"/>
   </g>
   <g id="patch_19">
    <path clip-path="url(#p582dd3108c)" d="
M647.793 257.491
L645.199 258.914
L646.281 259.664
L605.563 318.479
L605.574 318.486
L646.292 259.671
L647.375 260.421
z
" style="stroke:#000000;"/>
   </g>
   <g id="matplotlib.axis_3">
    <g id="xtick_6">
     <g id="line2d_21">
      <g>
       <use style="stroke:#000000;stroke-width:0.5;" x="486.469565217" xlink:href="#mc7db9fdffb" y="397.881818182"/>
      </g>
     </g>
     <g id="line2d_22">
      <g>
       <use style="stroke:#000000;stroke-width:0.5;" x="486.469565217" xlink:href="#m5a7d422ac3" y="93.5181818182"/>
      </g>
     </g>
     <g id="text_32">
      <!-- −5 -->
      <g transform="translate(480.064877717 409.480255682)scale(0.1 -0.1)">
       <use xlink:href="#DejaVuSans-2212"/>
       <use x="83.7890625" xlink:href="#DejaVuSans-35"/>
      </g>
     </g>
    </g>
    <g id="xtick_7">
     <g id="line2d_23">
      <g>
       <use style="stroke:#000000;stroke-width:0.5;" x="552.635573123" xlink:href="#mc7db9fdffb" y="397.881818182"/>
      </g>
     </g>
     <g id="line2d_24">
      <g>
       <use style="stroke:#000000;stroke-width:0.5;" x="552.635573123" xlink:href="#m5a7d422ac3" y="93.5181818182"/>
      </g>
     </g>
     <g id="text_33">
      <!-- 0 -->
      <g transform="translate(550.116041873 409.480255682)scale(0.1 -0.1)">
       <use xlink:href="#DejaVuSans-30"/>
      </g>
     </g>
    </g>
    <g id="xtick_8">
     <g id="line2d_25">
      <g>
       <use style="stroke:#000000;stroke-width:0.5;" x="618.801581028" xlink:href="#mc7db9fdffb" y="397.881818182"/>
      </g>
     </g>
     <g id="line2d_26">
      <g>
       <use style="stroke:#000000;stroke-width:0.5;" x="618.801581028" xlink:href="#m5a7d422ac3" y="93.5181818182"/>
      </g>
     </g>
     <g id="text_34">
      <!-- 5 -->
      <g transform="translate(616.442987278 409.480255682)scale(0.1 -0.1)">
       <use xlink:href="#DejaVuSans-35"/>
      </g>
     </g>
    </g>
    <g id="xtick_9">
     <g id="line2d_27">
      <g>
       <use style="stroke:#000000;stroke-width:0.5;" x="684.967588933" xlink:href="#mc7db9fdffb" y="397.881818182"/>
      </g>
     </g>
     <g id="line2d_28">
      <g>
       <use style="stroke:#000000;stroke-width:0.5;" x="684.967588933" xlink:href="#m5a7d422ac3" y="93.5181818182"/>
      </g>
     </g>
     <g id="text_35">
      <!-- 10 -->
      <g transform="translate(679.486338933 409.480255682)scale(0.1 -0.1)">
       <use xlink:href="#DejaVuSans-31"/>
       <use x="63.623046875" xlink:href="#DejaVuSans-30"/>
      </g>
     </g>
    </g>
    <g id="xtick_10">
     <g id="line2d_29">
      <g>
       <use style="stroke:#000000;stroke-width:0.5;" x="751.133596838" xlink:href="#mc7db9fdffb" y="397.881818182"/>
      </g>
     </g>
     <g id="line2d_30">
      <g>
       <use style="stroke:#000000;stroke-width:0.5;" x="751.133596838" xlink:href="#m5a7d422ac3" y="93.5181818182"/>
      </g>
     </g>
     <g id="text_36">
      <!-- 15 -->
      <g transform="translate(745.757034338 409.480255682)scale(0.1 -0.1)">
       <use xlink:href="#DejaVuSans-31"/>
       <use x="63.623046875" xlink:href="#DejaVuSans-35"/>
      </g>
     </g>
    </g>
    <g id="text_37">
     <!-- timestamp: 2257 -->
     <g transform="translate(582.877556818 424.158380682)scale(0.1 -0.1)">
      <use xlink:href="#DejaVuSans-74"/>
      <use x="39.208984375" xlink:href="#DejaVuSans-69"/>
      <use x="66.9921875" xlink:href="#DejaVuSans-6d"/>
      <use x="164.404296875" xlink:href="#DejaVuSans-65"/>
      <use x="225.927734375" xlink:href="#DejaVuSans-73"/>
      <use x="278.02734375" xlink:href="#DejaVuSans-74"/>
      <use x="317.236328125" xlink:href="#DejaVuSans-61"/>
      <use x="378.515625" xlink:href="#DejaVuSans-6d"/>
      <use x="475.927734375" xlink:href="#DejaVuSans-70"/>
      <use x="539.404296875" xlink:href="#DejaVuSans-3a"/>
      <use x="573.095703125" xlink:href="#DejaVuSans-20"/>
      <use x="604.8828125" xlink:href="#DejaVuSans-32"/>
      <use x="668.505859375" xlink:href="#DejaVuSans-32"/>
      <use x="732.12890625" xlink:href="#DejaVuSans-35"/>
      <use x="795.751953125" xlink:href="#DejaVuSans-37"/>
     </g>
    </g>
   </g>
   <g id="matplotlib.axis_4">
    <g id="ytick_6">
     <g id="line2d_31">
      <g>
       <use style="stroke:#000000;stroke-width:0.5;" x="473.236363636" xlink:href="#md7965d1ba0" y="106.751383399"/>
      </g>
     </g>
     <g id="line2d_32">
      <g>
       <use style="stroke:#000000;stroke-width:0.5;" x="777.6" xlink:href="#md9a1c1a7cd" y="106.751383399"/>
      </g>
     </g>
     <g id="text_38">
      <!-- −5 -->
      <g transform="translate(456.426988636 109.510758399)scale(0.1 -0.1)">
       <use xlink:href="#DejaVuSans-2212"/>
       <use x="83.7890625" xlink:href="#DejaVuSans-35"/>
      </g>
     </g>
    </g>
    <g id="ytick_7">
     <g id="line2d_33">
      <g>
       <use style="stroke:#000000;stroke-width:0.5;" x="473.236363636" xlink:href="#md7965d1ba0" y="172.917391304"/>
      </g>
     </g>
     <g id="line2d_34">
      <g>
       <use style="stroke:#000000;stroke-width:0.5;" x="777.6" xlink:href="#md9a1c1a7cd" y="172.917391304"/>
      </g>
     </g>
     <g id="text_39">
      <!-- 0 -->
      <g transform="translate(464.197301136 175.676766304)scale(0.1 -0.1)">
       <use xlink:href="#DejaVuSans-30"/>
      </g>
     </g>
    </g>
    <g id="ytick_8">
     <g id="line2d_35">
      <g>
       <use style="stroke:#000000;stroke-width:0.5;" x="473.236363636" xlink:href="#md7965d1ba0" y="239.083399209"/>
      </g>
     </g>
     <g id="line2d_36">
      <g>
       <use style="stroke:#000000;stroke-width:0.5;" x="777.6" xlink:href="#md9a1c1a7cd" y="239.083399209"/>
      </g>
     </g>
     <g id="text_40">
      <!-- 5 -->
      <g transform="translate(464.519176136 241.842774209)scale(0.1 -0.1)">
       <use xlink:href="#DejaVuSans-35"/>
      </g>
     </g>
    </g>
    <g id="ytick_9">
     <g id="line2d_37">
      <g>
       <use style="stroke:#000000;stroke-width:0.5;" x="473.236363636" xlink:href="#md7965d1ba0" y="305.249407115"/>
      </g>
     </g>
     <g id="line2d_38">
      <g>
       <use style="stroke:#000000;stroke-width:0.5;" x="777.6" xlink:href="#md9a1c1a7cd" y="305.249407115"/>
      </g>
     </g>
     <g id="text_41">
      <!-- 10 -->
      <g transform="translate(458.273863636 308.008782115)scale(0.1 -0.1)">
       <use xlink:href="#DejaVuSans-31"/>
       <use x="63.623046875" xlink:href="#DejaVuSans-30"/>
      </g>
     </g>
    </g>
    <g id="ytick_10">
     <g id="line2d_39">
      <g>
       <use style="stroke:#000000;stroke-width:0.5;" x="473.236363636" xlink:href="#md7965d1ba0" y="371.41541502"/>
      </g>
     </g>
     <g id="line2d_40">
      <g>
       <use style="stroke:#000000;stroke-width:0.5;" x="777.6" xlink:href="#md9a1c1a7cd" y="371.41541502"/>
      </g>
     </g>
     <g id="text_42">
      <!-- 15 -->
      <g transform="translate(458.483238636 374.17479002)scale(0.1 -0.1)">
       <use xlink:href="#DejaVuSans-31"/>
       <use x="63.623046875" xlink:href="#DejaVuSans-35"/>
      </g>
     </g>
    </g>
   </g>
   <g id="patch_20">
    <path d="
M473.236 397.882
L777.6 397.882" style="fill:none;stroke:#000000;"/>
   </g>
   <g id="patch_21">
    <path d="
M473.236 93.5182
L777.6 93.5182" style="fill:none;stroke:#000000;"/>
   </g>
   <g id="patch_22">
    <path d="
M777.6 397.882
L777.6 93.5182" style="fill:none;stroke:#000000;"/>
   </g>
   <g id="patch_23">
    <path d="
M473.236 397.882
L473.236 93.5182" style="fill:none;stroke:#000000;"/>
   </g>
   <g id="text_43">
    <!-- 21 -->
    <g transform="translate(600.917722979 274.210612791)scale(0.1 -0.1)">
     <use xlink:href="#DejaVuSans-32"/>
     <use x="63.623046875" xlink:href="#DejaVuSans-31"/>
    </g>
   </g>
   <g id="text_44">
    <!-- 22 -->
    <g transform="translate(712.942249398 298.958715315)scale(0.1 -0.1)">
     <use xlink:href="#DejaVuSans-32"/>
     <use x="63.623046875" xlink:href="#DejaVuSans-32"/>
    </g>
   </g>
   <g id="text_45">
    <!-- 24 -->
    <g transform="translate(680.482656893 228.079344402)scale(0.1 -0.1)">
     <use xlink:href="#DejaVuSans-32"/>
     <use x="63.623046875" xlink:href="#DejaVuSans-34"/>
    </g>
   </g>
   <g id="text_46">
    <!-- 25 -->
    <g transform="translate(667.139129519 232.839147967)scale(0.1 -0.1)">
     <use xlink:href="#DejaVuSans-32"/>
     <use x="63.623046875" xlink:href="#DejaVuSans-35"/>
    </g>
   </g>
   <g id="text_47">
    <!-- 27 -->
    <g transform="translate(658.927401651 227.662322338)scale(0.1 -0.1)">
     <use xlink:href="#DejaVuSans-32"/>
     <use x="63.623046875" xlink:href="#DejaVuSans-37"/>
    </g>
   </g>
   <g id="text_48">
    <!-- 28 -->
    <g transform="translate(665.654681842 285.498968678)scale(0.1 -0.1)">
     <use xlink:href="#DejaVuSans-32"/>
     <use x="63.623046875" xlink:href="#DejaVuSans-38"/>
    </g>
   </g>
   <g id="text_49">
    <!-- 29 -->
    <g transform="translate(644.522342138 239.928523066)scale(0.1 -0.1)">
     <use xlink:href="#DejaVuSans-32"/>
     <use x="63.623046875" xlink:href="#DejaVuSans-39"/>
    </g>
   </g>
   <g id="text_50">
    <!-- 30 -->
    <g transform="translate(655.620338885 285.304837717)scale(0.1 -0.1)">
     <use xlink:href="#DejaVuSans-33"/>
     <use x="63.623046875" xlink:href="#DejaVuSans-30"/>
    </g>
   </g>
   <g id="text_51">
    <!-- 31 -->
    <g transform="translate(561.345652966 248.355244785)scale(0.1 -0.1)">
     <use xlink:href="#DejaVuSans-33"/>
     <use x="63.623046875" xlink:href="#DejaVuSans-31"/>
    </g>
   </g>
   <g id="text_52">
    <!-- 34 -->
    <g transform="translate(556.496504369 245.752451899)scale(0.1 -0.1)">
     <use xlink:href="#DejaVuSans-33"/>
     <use x="63.623046875" xlink:href="#DejaVuSans-34"/>
    </g>
   </g>
   <g id="text_53">
    <!-- 35 -->
    <g transform="translate(601.925860266 259.176248358)scale(0.1 -0.1)">
     <use xlink:href="#DejaVuSans-33"/>
     <use x="63.623046875" xlink:href="#DejaVuSans-35"/>
    </g>
   </g>
   <g id="text_54">
    <!-- 36 -->
    <g transform="translate(726.532831109 276.640844822)scale(0.1 -0.1)">
     <use xlink:href="#DejaVuSans-33"/>
     <use x="63.623046875" xlink:href="#DejaVuSans-36"/>
    </g>
   </g>
   <g id="text_55">
    <!-- b1 -->
    <g transform="translate(606.721614009 254.251073974)scale(0.1 -0.1)">
     <use xlink:href="#DejaVuSans-62"/>
     <use x="63.4765625" xlink:href="#DejaVuSans-31"/>
    </g>
   </g>
   <g id="text_56">
    <!-- b2 -->
    <g transform="translate(561.663900443 240.834467551)scale(0.1 -0.1)">
     <use xlink:href="#DejaVuSans-62"/>
     <use x="63.4765625" xlink:href="#DejaVuSans-32"/>
    </g>
   </g>
   <g id="text_57">
    <!-- b3 -->
    <g transform="translate(597.873391186 264.115802813)scale(0.1 -0.1)">
     <use xlink:href="#DejaVuSans-62"/>
     <use x="63.4765625" xlink:href="#DejaVuSans-33"/>
    </g>
   </g>
   <g id="text_58">
    <!-- b4 -->
    <g transform="translate(711.845120688 301.446467631)scale(0.1 -0.1)">
     <use xlink:href="#DejaVuSans-62"/>
     <use x="63.4765625" xlink:href="#DejaVuSans-34"/>
    </g>
   </g>
   <g id="text_59">
    <!-- b5 -->
    <g transform="translate(663.389231282 280.437183618)scale(0.1 -0.1)">
     <use xlink:href="#DejaVuSans-62"/>
     <use x="63.4765625" xlink:href="#DejaVuSans-35"/>
    </g>
   </g>
   <g id="text_60">
    <!-- b6 -->
    <g transform="translate(658.591355889 232.673777149)scale(0.1 -0.1)">
     <use xlink:href="#DejaVuSans-62"/>
     <use x="63.4765625" xlink:href="#DejaVuSans-36"/>
    </g>
   </g>
   <g id="text_61">
    <!-- Clusters -->
    <g transform="translate(577.811191947 331.715810277)scale(0.14 -0.14)">
     <use xlink:href="#DejaVuSans-43"/>
     <use x="69.82421875" xlink:href="#DejaVuSans-6c"/>
     <use x="97.607421875" xlink:href="#DejaVuSans-75"/>
     <use x="160.986328125" xlink:href="#DejaVuSans-73"/>
     <use x="213.0859375" xlink:href="#DejaVuSans-74"/>
     <use x="252.294921875" xlink:href="#DejaVuSans-65"/>
     <use x="313.818359375" xlink:href="#DejaVuSans-72"/>
     <use x="354.931640625" xlink:href="#DejaVuSans-73"/>
    </g>
   </g>
   <g id="text_62">
    <!-- Interactive group session 2 -->
    <defs>
     <path d="
M9.8125 72.9062
L19.6719 72.9062
L19.6719 0
L9.8125 0
z
" id="DejaVuSans-49"/>
     <path d="
M2.98438 54.6875
L12.5 54.6875
L29.5938 8.79688
L46.6875 54.6875
L56.2031 54.6875
L35.6875 0
L23.4844 0
z
" id="DejaVuSans-76"/>
    </defs>
    <g transform="translate(544.526931818 88.5181818182)scale(0.12 -0.12)">
     <use xlink:href="#DejaVuSans-49"/>
     <use x="29.4921875" xlink:href="#DejaVuSans-6e"/>
     <use x="92.87109375" xlink:href="#DejaVuSans-74"/>
     <use x="132.080078125" xlink:href="#DejaVuSans-65"/>
     <use x="193.603515625" xlink:href="#DejaVuSans-72"/>
     <use x="234.716796875" xlink:href="#DejaVuSans-61"/>
     <use x="295.99609375" xlink:href="#DejaVuSans-63"/>
     <use x="350.9765625" xlink:href="#DejaVuSans-74"/>
     <use x="390.185546875" xlink:href="#DejaVuSans-69"/>
     <use x="417.96875" xlink:href="#DejaVuSans-76"/>
     <use x="477.1484375" xlink:href="#DejaVuSans-65"/>
     <use x="538.671875" xlink:href="#DejaVuSans-20"/>
     <use x="570.458984375" xlink:href="#DejaVuSans-67"/>
     <use x="633.935546875" xlink:href="#DejaVuSans-72"/>
     <use x="672.798828125" xlink:href="#DejaVuSans-6f"/>
     <use x="733.98046875" xlink:href="#DejaVuSans-75"/>
     <use x="797.359375" xlink:href="#DejaVuSans-70"/>
     <use x="860.8359375" xlink:href="#DejaVuSans-20"/>
     <use x="892.623046875" xlink:href="#DejaVuSans-73"/>
     <use x="944.72265625" xlink:href="#DejaVuSans-65"/>
     <use x="1006.24609375" xlink:href="#DejaVuSans-73"/>
     <use x="1058.345703125" xlink:href="#DejaVuSans-73"/>
     <use x="1110.4453125" xlink:href="#DejaVuSans-69"/>
     <use x="1138.228515625" xlink:href="#DejaVuSans-6f"/>
     <use x="1199.41015625" xlink:href="#DejaVuSans-6e"/>
     <use x="1262.7890625" xlink:href="#DejaVuSans-20"/>
     <use x="1294.576171875" xlink:href="#DejaVuSans-32"/>
    </g>
   </g>
   <g id="legend_2">
    <g id="patch_24">
     <path d="
M662.111 138.346
L771.6 138.346
L771.6 99.5182
L662.111 99.5182
L662.111 138.346
z
" style="fill:#ffffff;stroke:#000000;"/>
    </g>
    <g id="patch_25">
     <path d="
M666.911 113.436
L690.911 113.436
L690.911 105.036
L666.911 105.036
z
" style="fill:#ff0000;fill-opacity:0.5;stroke:#ff0000;stroke-opacity:0.5;"/>
    </g>
    <g id="text_63">
     <!-- bench area -->
     <g transform="translate(700.51125 113.436306818)scale(0.12 -0.12)">
      <use xlink:href="#DejaVuSans-62"/>
      <use x="63.4765625" xlink:href="#DejaVuSans-65"/>
      <use x="125.0" xlink:href="#DejaVuSans-6e"/>
      <use x="188.37890625" xlink:href="#DejaVuSans-63"/>
      <use x="243.359375" xlink:href="#DejaVuSans-68"/>
      <use x="306.73828125" xlink:href="#DejaVuSans-20"/>
      <use x="338.525390625" xlink:href="#DejaVuSans-61"/>
      <use x="399.8046875" xlink:href="#DejaVuSans-72"/>
      <use x="438.66796875" xlink:href="#DejaVuSans-65"/>
      <use x="500.19140625" xlink:href="#DejaVuSans-61"/>
     </g>
    </g>
    <g id="PathCollection_6">
     <defs>
      <path d="
M0 8.66025
C2.29673 8.66025 4.49969 7.74776 6.12372 6.12372
C7.74776 4.49969 8.66025 2.29673 8.66025 0
C8.66025 -2.29673 7.74776 -4.49969 6.12372 -6.12372
C4.49969 -7.74776 2.29673 -8.66025 0 -8.66025
C-2.29673 -8.66025 -4.49969 -7.74776 -6.12372 -6.12372
C-7.74776 -4.49969 -8.66025 -2.29673 -8.66025 0
C-8.66025 2.29673 -7.74776 4.49969 -6.12372 6.12372
C-4.49969 7.74776 -2.29673 8.66025 0 8.66025
z
" id="C5_0_2aea4494f3"/>
      <path d="
M0 8.66025
C2.29673 8.66025 4.49969 7.74776 6.12372 6.12372
C7.74776 4.49969 8.66025 2.29673 8.66025 0
C8.66025 -2.29673 7.74776 -4.49969 6.12372 -6.12372
C4.49969 -7.74776 2.29673 -8.66025 0 -8.66025
C-2.29673 -8.66025 -4.49969 -7.74776 -6.12372 -6.12372
C-7.74776 -4.49969 -8.66025 -2.29673 -8.66025 0
C-8.66025 2.29673 -7.74776 4.49969 -6.12372 6.12372
C-4.49969 7.74776 -2.29673 8.66025 0 8.66025
z
" id="C5_1_2aea4494f3"/>
      <path d="
M0 8.66025
C2.29673 8.66025 4.49969 7.74776 6.12372 6.12372
C7.74776 4.49969 8.66025 2.29673 8.66025 0
C8.66025 -2.29673 7.74776 -4.49969 6.12372 -6.12372
C4.49969 -7.74776 2.29673 -8.66025 0 -8.66025
C-2.29673 -8.66025 -4.49969 -7.74776 -6.12372 -6.12372
C-7.74776 -4.49969 -8.66025 -2.29673 -8.66025 0
C-8.66025 2.29673 -7.74776 4.49969 -6.12372 6.12372
C-4.49969 7.74776 -2.29673 8.66025 0 8.66025
z
" id="C5_2_2aea4494f3"/>
     </defs>
     <use style="fill:#008000;fill-opacity:0.5;stroke:#008000;stroke-opacity:0.5;" x="670.51125" xlink:href="#C5_0_2aea4494f3" y="127.900056818"/>
     <use style="fill:#008000;fill-opacity:0.5;stroke:#008000;stroke-opacity:0.5;" x="678.91125" xlink:href="#C5_1_2aea4494f3" y="126.850056818"/>
     <use style="fill:#008000;fill-opacity:0.5;stroke:#008000;stroke-opacity:0.5;" x="687.31125" xlink:href="#C5_2_2aea4494f3" y="128.425056818"/>
    </g>
    <g id="text_64">
     <!-- beacons -->
     <g transform="translate(700.51125 131.050056818)scale(0.12 -0.12)">
      <use xlink:href="#DejaVuSans-62"/>
      <use x="63.4765625" xlink:href="#DejaVuSans-65"/>
      <use x="125.0" xlink:href="#DejaVuSans-61"/>
      <use x="186.279296875" xlink:href="#DejaVuSans-63"/>
      <use x="241.259765625" xlink:href="#DejaVuSans-6f"/>
      <use x="302.44140625" xlink:href="#DejaVuSans-6e"/>
      <use x="365.8203125" xlink:href="#DejaVuSans-73"/>
     </g>
    </g>
   </g>
  </g>
 </g>
 <defs>
  <clipPath id="p582dd3108c">
   <rect height="304.363636364" width="304.363636364" x="473.236363636" y="93.5181818182"/>
  </clipPath>
  <clipPath id="p54f1dd02a6">
   <rect height="304.363636364" width="304.363636364" x="108.0" y="93.5181818182"/>
  </clipPath>
 </defs>
</svg>
