<?xml version="1.0" encoding="utf-8" standalone="no"?>
<!DOCTYPE svg PUBLIC "-//W3C//DTD SVG 1.1//EN"
  "http://www.w3.org/Graphics/SVG/1.1/DTD/svg11.dtd">
<!-- Created with matplotlib (http://matplotlib.org/) -->
<svg height="310pt" version="1.1" viewBox="0 0 589 310" width="589pt" xmlns="http://www.w3.org/2000/svg" xmlns:xlink="http://www.w3.org/1999/xlink">
 <defs>
  <style type="text/css">
*{stroke-linecap:butt;stroke-linejoin:round;}
  </style>
 </defs>
 <g id="figure_1">
  <g id="patch_1">
   <path d="
M0 310.511
L589.209 310.511
L589.209 0
L0 0
z
" style="fill:#ffffff;"/>
  </g>
  <g id="axes_1">
   <g id="patch_2">
    <path d="
M24.0094 274.954
L277.646 274.954
L277.646 21.3181
L24.0094 21.3181
z
" style="fill:#ffffff;"/>
   </g>
   <g id="PathCollection_1">
    <defs>
     <path d="
M0 2.23607
C0.593012 2.23607 1.16182 2.00046 1.58114 1.58114
C2.00046 1.16182 2.23607 0.593012 2.23607 0
C2.23607 -0.593012 2.00046 -1.16182 1.58114 -1.58114
C1.16182 -2.00046 0.593012 -2.23607 0 -2.23607
C-0.593012 -2.23607 -1.16182 -2.00046 -1.58114 -1.58114
C-2.00046 -1.16182 -2.23607 -0.593012 -2.23607 0
C-2.23607 0.593012 -2.00046 1.16182 -1.58114 1.58114
C-1.16182 2.00046 -0.593012 2.23607 0 2.23607
z
" id="C0_0_919e3f95db"/>
    </defs>
    <g clip-path="url(#p596da3d001)">
     <use style="fill:#0000ff;stroke:#000000;" x="192.048350413" xlink:href="#C0_0_919e3f95db" y="125.703887126"/>
    </g>
    <g clip-path="url(#p596da3d001)">
     <use style="fill:#0000ff;stroke:#000000;" x="163.761518248" xlink:href="#C0_0_919e3f95db" y="137.603259153"/>
    </g>
    <g clip-path="url(#p596da3d001)">
     <use style="fill:#0000ff;stroke:#000000;" x="194.347974986" xlink:href="#C0_0_919e3f95db" y="135.257257499"/>
    </g>
    <g clip-path="url(#p596da3d001)">
     <use style="fill:#0000ff;stroke:#000000;" x="107.864177792" xlink:href="#C0_0_919e3f95db" y="159.200274381"/>
    </g>
    <g clip-path="url(#p596da3d001)">
     <use style="fill:#0000ff;stroke:#000000;" x="49.9534961246" xlink:href="#C0_0_919e3f95db" y="148.260630304"/>
    </g>
    <g clip-path="url(#p596da3d001)">
     <use style="fill:#0000ff;stroke:#000000;" x="153.966699121" xlink:href="#C0_0_919e3f95db" y="161.471003255"/>
    </g>
    <g clip-path="url(#p596da3d001)">
     <use style="fill:#0000ff;stroke:#000000;" x="131.186091404" xlink:href="#C0_0_919e3f95db" y="176.494195666"/>
    </g>
    <g clip-path="url(#p596da3d001)">
     <use style="fill:#0000ff;stroke:#000000;" x="132.411227887" xlink:href="#C0_0_919e3f95db" y="144.440536701"/>
    </g>
    <g clip-path="url(#p596da3d001)">
     <use style="fill:#0000ff;stroke:#000000;" x="200.259870361" xlink:href="#C0_0_919e3f95db" y="120.02079221"/>
    </g>
    <g clip-path="url(#p596da3d001)">
     <use style="fill:#0000ff;stroke:#000000;" x="83.4840234926" xlink:href="#C0_0_919e3f95db" y="146.353719868"/>
    </g>
    <g clip-path="url(#p596da3d001)">
     <use style="fill:#0000ff;stroke:#000000;" x="46.0647109684" xlink:href="#C0_0_919e3f95db" y="160.988002914"/>
    </g>
   </g>
   <g id="PathCollection_2">
    <defs>
     <path d="
M0 8.66025
C2.29673 8.66025 4.49969 7.74776 6.12372 6.12372
C7.74776 4.49969 8.66025 2.29673 8.66025 0
C8.66025 -2.29673 7.74776 -4.49969 6.12372 -6.12372
C4.49969 -7.74776 2.29673 -8.66025 0 -8.66025
C-2.29673 -8.66025 -4.49969 -7.74776 -6.12372 -6.12372
C-7.74776 -4.49969 -8.66025 -2.29673 -8.66025 0
C-8.66025 2.29673 -7.74776 4.49969 -6.12372 6.12372
C-4.49969 7.74776 -2.29673 8.66025 0 8.66025
z
" id="C1_0_2aea4494f3"/>
    </defs>
    <g clip-path="url(#p596da3d001)">
     <use style="fill:#008000;fill-opacity:0.5;stroke:#008000;stroke-opacity:0.5;" x="46.0647109684" xlink:href="#C1_0_2aea4494f3" y="175.478013131"/>
    </g>
    <g clip-path="url(#p596da3d001)">
     <use style="fill:#008000;fill-opacity:0.5;stroke:#008000;stroke-opacity:0.5;" x="78.216574175" xlink:href="#C1_0_2aea4494f3" y="152.475906003"/>
    </g>
    <g clip-path="url(#p596da3d001)">
     <use style="fill:#008000;fill-opacity:0.5;stroke:#008000;stroke-opacity:0.5;" x="110.012536982" xlink:href="#C1_0_2aea4494f3" y="157.218091165"/>
    </g>
    <g clip-path="url(#p596da3d001)">
     <use style="fill:#008000;fill-opacity:0.5;stroke:#008000;stroke-opacity:0.5;" x="167.437544685" xlink:href="#C1_0_2aea4494f3" y="126.638524149"/>
    </g>
    <g clip-path="url(#p596da3d001)">
     <use style="fill:#008000;fill-opacity:0.5;stroke:#008000;stroke-opacity:0.5;" x="52.1018553146" xlink:href="#C1_0_2aea4494f3" y="146.278447088"/>
    </g>
    <g clip-path="url(#p596da3d001)">
     <use style="fill:#008000;fill-opacity:0.5;stroke:#008000;stroke-opacity:0.5;" x="196.257559044" xlink:href="#C1_0_2aea4494f3" y="124.029067764"/>
    </g>
   </g>
   <g id="patch_3">
    <path clip-path="url(#p596da3d001)" d="
M199.259 109.207
C205.108 109.207 210.718 111.531 214.854 115.667
C218.99 119.803 221.314 125.413 221.314 131.262
C221.314 137.111 218.99 142.722 214.854 146.858
C210.718 150.994 205.108 153.318 199.259 153.318
C193.41 153.318 187.799 150.994 183.664 146.858
C179.528 142.722 177.204 137.111 177.204 131.262
C177.204 125.413 179.528 119.803 183.664 115.667
C187.799 111.531 193.41 109.207 199.259 109.207
z
" style="fill:#ff0000;fill-opacity:0.5;stroke:#ff0000;stroke-opacity:0.5;"/>
   </g>
   <g id="matplotlib.axis_1">
    <g id="xtick_1">
     <g id="line2d_1">
      <defs>
       <path d="
M0 0
L0 -4" id="mc7db9fdffb" style="stroke:#000000;stroke-width:0.5;"/>
      </defs>
      <g>
       <use style="stroke:#000000;stroke-width:0.5;" x="35.0370429842" xlink:href="#mc7db9fdffb" y="274.954488636"/>
      </g>
     </g>
     <g id="line2d_2">
      <defs>
       <path d="
M0 0
L0 4" id="m5a7d422ac3" style="stroke:#000000;stroke-width:0.5;"/>
      </defs>
      <g>
       <use style="stroke:#000000;stroke-width:0.5;" x="35.0370429842" xlink:href="#m5a7d422ac3" y="21.318125"/>
      </g>
     </g>
     <g id="text_1">
      <!-- −5 -->
      <defs>
       <path d="
M10.5938 35.5
L73.1875 35.5
L73.1875 27.2031
L10.5938 27.2031
z
" id="DejaVuSans-2212"/>
       <path d="
M10.7969 72.9062
L49.5156 72.9062
L49.5156 64.5938
L19.8281 64.5938
L19.8281 46.7344
Q21.9688 47.4688 24.1094 47.8281
Q26.2656 48.1875 28.4219 48.1875
Q40.625 48.1875 47.75 41.5
Q54.8906 34.8125 54.8906 23.3906
Q54.8906 11.625 47.5625 5.09375
Q40.2344 -1.42188 26.9062 -1.42188
Q22.3125 -1.42188 17.5469 -0.640625
Q12.7969 0.140625 7.71875 1.70312
L7.71875 11.625
Q12.1094 9.23438 16.7969 8.0625
Q21.4844 6.89062 26.7031 6.89062
Q35.1562 6.89062 40.0781 11.3281
Q45.0156 15.7656 45.0156 23.3906
Q45.0156 31 40.0781 35.4375
Q35.1562 39.8906 26.7031 39.8906
Q22.75 39.8906 18.8125 39.0156
Q14.8906 38.1406 10.7969 36.2812
z
" id="DejaVuSans-35"/>
      </defs>
      <g transform="translate(28.6323554842 286.552926136)scale(0.1 -0.1)">
       <use xlink:href="#DejaVuSans-2212"/>
       <use x="83.7890625" xlink:href="#DejaVuSans-35"/>
      </g>
     </g>
    </g>
    <g id="xtick_2">
     <g id="line2d_3">
      <g>
       <use style="stroke:#000000;stroke-width:0.5;" x="90.1753829051" xlink:href="#mc7db9fdffb" y="274.954488636"/>
      </g>
     </g>
     <g id="line2d_4">
      <g>
       <use style="stroke:#000000;stroke-width:0.5;" x="90.1753829051" xlink:href="#m5a7d422ac3" y="21.318125"/>
      </g>
     </g>
     <g id="text_2">
      <!-- 0 -->
      <defs>
       <path d="
M31.7812 66.4062
Q24.1719 66.4062 20.3281 58.9062
Q16.5 51.4219 16.5 36.375
Q16.5 21.3906 20.3281 13.8906
Q24.1719 6.39062 31.7812 6.39062
Q39.4531 6.39062 43.2812 13.8906
Q47.125 21.3906 47.125 36.375
Q47.125 51.4219 43.2812 58.9062
Q39.4531 66.4062 31.7812 66.4062
M31.7812 74.2188
Q44.0469 74.2188 50.5156 64.5156
Q56.9844 54.8281 56.9844 36.375
Q56.9844 17.9688 50.5156 8.26562
Q44.0469 -1.42188 31.7812 -1.42188
Q19.5312 -1.42188 13.0625 8.26562
Q6.59375 17.9688 6.59375 36.375
Q6.59375 54.8281 13.0625 64.5156
Q19.5312 74.2188 31.7812 74.2188" id="DejaVuSans-30"/>
      </defs>
      <g transform="translate(87.6558516551 286.552926136)scale(0.1 -0.1)">
       <use xlink:href="#DejaVuSans-30"/>
      </g>
     </g>
    </g>
    <g id="xtick_3">
     <g id="line2d_5">
      <g>
       <use style="stroke:#000000;stroke-width:0.5;" x="145.313722826" xlink:href="#mc7db9fdffb" y="274.954488636"/>
      </g>
     </g>
     <g id="line2d_6">
      <g>
       <use style="stroke:#000000;stroke-width:0.5;" x="145.313722826" xlink:href="#m5a7d422ac3" y="21.318125"/>
      </g>
     </g>
     <g id="text_3">
      <!-- 5 -->
      <g transform="translate(142.955129076 286.552926136)scale(0.1 -0.1)">
       <use xlink:href="#DejaVuSans-35"/>
      </g>
     </g>
    </g>
    <g id="xtick_4">
     <g id="line2d_7">
      <g>
       <use style="stroke:#000000;stroke-width:0.5;" x="200.452062747" xlink:href="#mc7db9fdffb" y="274.954488636"/>
      </g>
     </g>
     <g id="line2d_8">
      <g>
       <use style="stroke:#000000;stroke-width:0.5;" x="200.452062747" xlink:href="#m5a7d422ac3" y="21.318125"/>
      </g>
     </g>
     <g id="text_4">
      <!-- 10 -->
      <defs>
       <path d="
M12.4062 8.29688
L28.5156 8.29688
L28.5156 63.9219
L10.9844 60.4062
L10.9844 69.3906
L28.4219 72.9062
L38.2812 72.9062
L38.2812 8.29688
L54.3906 8.29688
L54.3906 0
L12.4062 0
z
" id="DejaVuSans-31"/>
      </defs>
      <g transform="translate(194.970812747 286.552926136)scale(0.1 -0.1)">
       <use xlink:href="#DejaVuSans-31"/>
       <use x="63.623046875" xlink:href="#DejaVuSans-30"/>
      </g>
     </g>
    </g>
    <g id="xtick_5">
     <g id="line2d_9">
      <g>
       <use style="stroke:#000000;stroke-width:0.5;" x="255.590402668" xlink:href="#mc7db9fdffb" y="274.954488636"/>
      </g>
     </g>
     <g id="line2d_10">
      <g>
       <use style="stroke:#000000;stroke-width:0.5;" x="255.590402668" xlink:href="#m5a7d422ac3" y="21.318125"/>
      </g>
     </g>
     <g id="text_5">
      <!-- 15 -->
      <g transform="translate(250.213840168 286.552926136)scale(0.1 -0.1)">
       <use xlink:href="#DejaVuSans-31"/>
       <use x="63.623046875" xlink:href="#DejaVuSans-35"/>
      </g>
     </g>
    </g>
    <g id="text_6">
     <!-- timestamp: 827 -->
     <defs>
      <path d="
M34.2812 27.4844
Q23.3906 27.4844 19.1875 25
Q14.9844 22.5156 14.9844 16.5
Q14.9844 11.7188 18.1406 8.90625
Q21.2969 6.10938 26.7031 6.10938
Q34.1875 6.10938 38.7031 11.4062
Q43.2188 16.7031 43.2188 25.4844
L43.2188 27.4844
z

M52.2031 31.2031
L52.2031 0
L43.2188 0
L43.2188 8.29688
Q40.1406 3.32812 35.5469 0.953125
Q30.9531 -1.42188 24.3125 -1.42188
Q15.9219 -1.42188 10.9531 3.29688
Q6 8.01562 6 15.9219
Q6 25.1406 12.1719 29.8281
Q18.3594 34.5156 30.6094 34.5156
L43.2188 34.5156
L43.2188 35.4062
Q43.2188 41.6094 39.1406 45
Q35.0625 48.3906 27.6875 48.3906
Q23 48.3906 18.5469 47.2656
Q14.1094 46.1406 10.0156 43.8906
L10.0156 52.2031
Q14.9375 54.1094 19.5781 55.0469
Q24.2188 56 28.6094 56
Q40.4844 56 46.3438 49.8438
Q52.2031 43.7031 52.2031 31.2031" id="DejaVuSans-61"/>
      <path d="
M11.7188 12.4062
L22.0156 12.4062
L22.0156 0
L11.7188 0
z

M11.7188 51.7031
L22.0156 51.7031
L22.0156 39.3125
L11.7188 39.3125
z
" id="DejaVuSans-3a"/>
      <path d="
M18.3125 70.2188
L18.3125 54.6875
L36.8125 54.6875
L36.8125 47.7031
L18.3125 47.7031
L18.3125 18.0156
Q18.3125 11.3281 20.1406 9.42188
Q21.9688 7.51562 27.5938 7.51562
L36.8125 7.51562
L36.8125 0
L27.5938 0
Q17.1875 0 13.2344 3.875
Q9.28125 7.76562 9.28125 18.0156
L9.28125 47.7031
L2.6875 47.7031
L2.6875 54.6875
L9.28125 54.6875
L9.28125 70.2188
z
" id="DejaVuSans-74"/>
      <path d="
M19.1875 8.29688
L53.6094 8.29688
L53.6094 0
L7.32812 0
L7.32812 8.29688
Q12.9375 14.1094 22.625 23.8906
Q32.3281 33.6875 34.8125 36.5312
Q39.5469 41.8438 41.4219 45.5312
Q43.3125 49.2188 43.3125 52.7812
Q43.3125 58.5938 39.2344 62.25
Q35.1562 65.9219 28.6094 65.9219
Q23.9688 65.9219 18.8125 64.3125
Q13.6719 62.7031 7.8125 59.4219
L7.8125 69.3906
Q13.7656 71.7812 18.9375 73
Q24.125 74.2188 28.4219 74.2188
Q39.75 74.2188 46.4844 68.5469
Q53.2188 62.8906 53.2188 53.4219
Q53.2188 48.9219 51.5312 44.8906
Q49.8594 40.875 45.4062 35.4062
Q44.1875 33.9844 37.6406 27.2188
Q31.1094 20.4531 19.1875 8.29688" id="DejaVuSans-32"/>
      <path d="
M31.7812 34.625
Q24.75 34.625 20.7188 30.8594
Q16.7031 27.0938 16.7031 20.5156
Q16.7031 13.9219 20.7188 10.1562
Q24.75 6.39062 31.7812 6.39062
Q38.8125 6.39062 42.8594 10.1719
Q46.9219 13.9688 46.9219 20.5156
Q46.9219 27.0938 42.8906 30.8594
Q38.875 34.625 31.7812 34.625
M21.9219 38.8125
Q15.5781 40.375 12.0312 44.7188
Q8.5 49.0781 8.5 55.3281
Q8.5 64.0625 14.7188 69.1406
Q20.9531 74.2188 31.7812 74.2188
Q42.6719 74.2188 48.875 69.1406
Q55.0781 64.0625 55.0781 55.3281
Q55.0781 49.0781 51.5312 44.7188
Q48 40.375 41.7031 38.8125
Q48.8281 37.1562 52.7969 32.3125
Q56.7812 27.4844 56.7812 20.5156
Q56.7812 9.90625 50.3125 4.23438
Q43.8438 -1.42188 31.7812 -1.42188
Q19.7344 -1.42188 13.25 4.23438
Q6.78125 9.90625 6.78125 20.5156
Q6.78125 27.4844 10.7812 32.3125
Q14.7969 37.1562 21.9219 38.8125
M18.3125 54.3906
Q18.3125 48.7344 21.8438 45.5625
Q25.3906 42.3906 31.7812 42.3906
Q38.1406 42.3906 41.7188 45.5625
Q45.3125 48.7344 45.3125 54.3906
Q45.3125 60.0625 41.7188 63.2344
Q38.1406 66.4062 31.7812 66.4062
Q25.3906 66.4062 21.8438 63.2344
Q18.3125 60.0625 18.3125 54.3906" id="DejaVuSans-38"/>
      <path id="DejaVuSans-20"/>
      <path d="
M8.20312 72.9062
L55.0781 72.9062
L55.0781 68.7031
L28.6094 0
L18.3125 0
L43.2188 64.5938
L8.20312 64.5938
z
" id="DejaVuSans-37"/>
      <path d="
M18.1094 8.20312
L18.1094 -20.7969
L9.07812 -20.7969
L9.07812 54.6875
L18.1094 54.6875
L18.1094 46.3906
Q20.9531 51.2656 25.2656 53.625
Q29.5938 56 35.5938 56
Q45.5625 56 51.7812 48.0938
Q58.0156 40.1875 58.0156 27.2969
Q58.0156 14.4062 51.7812 6.48438
Q45.5625 -1.42188 35.5938 -1.42188
Q29.5938 -1.42188 25.2656 0.953125
Q20.9531 3.32812 18.1094 8.20312
M48.6875 27.2969
Q48.6875 37.2031 44.6094 42.8438
Q40.5312 48.4844 33.4062 48.4844
Q26.2656 48.4844 22.1875 42.8438
Q18.1094 37.2031 18.1094 27.2969
Q18.1094 17.3906 22.1875 11.75
Q26.2656 6.10938 33.4062 6.10938
Q40.5312 6.10938 44.6094 11.75
Q48.6875 17.3906 48.6875 27.2969" id="DejaVuSans-70"/>
      <path d="
M9.42188 54.6875
L18.4062 54.6875
L18.4062 0
L9.42188 0
z

M9.42188 75.9844
L18.4062 75.9844
L18.4062 64.5938
L9.42188 64.5938
z
" id="DejaVuSans-69"/>
      <path d="
M44.2812 53.0781
L44.2812 44.5781
Q40.4844 46.5312 36.375 47.5
Q32.2812 48.4844 27.875 48.4844
Q21.1875 48.4844 17.8438 46.4375
Q14.5 44.3906 14.5 40.2812
Q14.5 37.1562 16.8906 35.375
Q19.2812 33.5938 26.5156 31.9844
L29.5938 31.2969
Q39.1562 29.25 43.1875 25.5156
Q47.2188 21.7812 47.2188 15.0938
Q47.2188 7.46875 41.1875 3.01562
Q35.1562 -1.42188 24.6094 -1.42188
Q20.2188 -1.42188 15.4531 -0.5625
Q10.6875 0.296875 5.42188 2
L5.42188 11.2812
Q10.4062 8.6875 15.2344 7.39062
Q20.0625 6.10938 24.8125 6.10938
Q31.1562 6.10938 34.5625 8.28125
Q37.9844 10.4531 37.9844 14.4062
Q37.9844 18.0625 35.5156 20.0156
Q33.0625 21.9688 24.7031 23.7812
L21.5781 24.5156
Q13.2344 26.2656 9.51562 29.9062
Q5.8125 33.5469 5.8125 39.8906
Q5.8125 47.6094 11.2812 51.7969
Q16.75 56 26.8125 56
Q31.7812 56 36.1719 55.2656
Q40.5781 54.5469 44.2812 53.0781" id="DejaVuSans-73"/>
      <path d="
M52 44.1875
Q55.375 50.25 60.0625 53.125
Q64.75 56 71.0938 56
Q79.6406 56 84.2812 50.0156
Q88.9219 44.0469 88.9219 33.0156
L88.9219 0
L79.8906 0
L79.8906 32.7188
Q79.8906 40.5781 77.0938 44.375
Q74.3125 48.1875 68.6094 48.1875
Q61.625 48.1875 57.5625 43.5469
Q53.5156 38.9219 53.5156 30.9062
L53.5156 0
L44.4844 0
L44.4844 32.7188
Q44.4844 40.625 41.7031 44.4062
Q38.9219 48.1875 33.1094 48.1875
Q26.2188 48.1875 22.1562 43.5312
Q18.1094 38.875 18.1094 30.9062
L18.1094 0
L9.07812 0
L9.07812 54.6875
L18.1094 54.6875
L18.1094 46.1875
Q21.1875 51.2188 25.4844 53.6094
Q29.7812 56 35.6875 56
Q41.6562 56 45.8281 52.9688
Q50 49.9531 52 44.1875" id="DejaVuSans-6d"/>
      <path d="
M56.2031 29.5938
L56.2031 25.2031
L14.8906 25.2031
Q15.4844 15.9219 20.4844 11.0625
Q25.4844 6.20312 34.4219 6.20312
Q39.5938 6.20312 44.4531 7.46875
Q49.3125 8.73438 54.1094 11.2812
L54.1094 2.78125
Q49.2656 0.734375 44.1875 -0.34375
Q39.1094 -1.42188 33.8906 -1.42188
Q20.7969 -1.42188 13.1562 6.1875
Q5.51562 13.8125 5.51562 26.8125
Q5.51562 40.2344 12.7656 48.1094
Q20.0156 56 32.3281 56
Q43.3594 56 49.7812 48.8906
Q56.2031 41.7969 56.2031 29.5938
M47.2188 32.2344
Q47.125 39.5938 43.0938 43.9844
Q39.0625 48.3906 32.4219 48.3906
Q24.9062 48.3906 20.3906 44.1406
Q15.875 39.8906 15.1875 32.1719
z
" id="DejaVuSans-65"/>
     </defs>
     <g transform="translate(111.468181818 301.231051136)scale(0.1 -0.1)">
      <use xlink:href="#DejaVuSans-74"/>
      <use x="39.208984375" xlink:href="#DejaVuSans-69"/>
      <use x="66.9921875" xlink:href="#DejaVuSans-6d"/>
      <use x="164.404296875" xlink:href="#DejaVuSans-65"/>
      <use x="225.927734375" xlink:href="#DejaVuSans-73"/>
      <use x="278.02734375" xlink:href="#DejaVuSans-74"/>
      <use x="317.236328125" xlink:href="#DejaVuSans-61"/>
      <use x="378.515625" xlink:href="#DejaVuSans-6d"/>
      <use x="475.927734375" xlink:href="#DejaVuSans-70"/>
      <use x="539.404296875" xlink:href="#DejaVuSans-3a"/>
      <use x="573.095703125" xlink:href="#DejaVuSans-20"/>
      <use x="604.8828125" xlink:href="#DejaVuSans-38"/>
      <use x="668.505859375" xlink:href="#DejaVuSans-32"/>
      <use x="732.12890625" xlink:href="#DejaVuSans-37"/>
     </g>
    </g>
   </g>
   <g id="matplotlib.axis_2">
    <g id="ytick_1">
     <g id="line2d_11">
      <defs>
       <path d="
M0 0
L4 0" id="md7965d1ba0" style="stroke:#000000;stroke-width:0.5;"/>
      </defs>
      <g>
       <use style="stroke:#000000;stroke-width:0.5;" x="24.009375" xlink:href="#md7965d1ba0" y="32.3457929842"/>
      </g>
     </g>
     <g id="line2d_12">
      <defs>
       <path d="
M0 0
L-4 0" id="md9a1c1a7cd" style="stroke:#000000;stroke-width:0.5;"/>
      </defs>
      <g>
       <use style="stroke:#000000;stroke-width:0.5;" x="277.645738636" xlink:href="#md9a1c1a7cd" y="32.3457929842"/>
      </g>
     </g>
     <g id="text_7">
      <!-- −5 -->
      <g transform="translate(7.2 35.1051679842)scale(0.1 -0.1)">
       <use xlink:href="#DejaVuSans-2212"/>
       <use x="83.7890625" xlink:href="#DejaVuSans-35"/>
      </g>
     </g>
    </g>
    <g id="ytick_2">
     <g id="line2d_13">
      <g>
       <use style="stroke:#000000;stroke-width:0.5;" x="24.009375" xlink:href="#md7965d1ba0" y="87.4841329051"/>
      </g>
     </g>
     <g id="line2d_14">
      <g>
       <use style="stroke:#000000;stroke-width:0.5;" x="277.645738636" xlink:href="#md9a1c1a7cd" y="87.4841329051"/>
      </g>
     </g>
     <g id="text_8">
      <!-- 0 -->
      <g transform="translate(14.9703125 90.2435079051)scale(0.1 -0.1)">
       <use xlink:href="#DejaVuSans-30"/>
      </g>
     </g>
    </g>
    <g id="ytick_3">
     <g id="line2d_15">
      <g>
       <use style="stroke:#000000;stroke-width:0.5;" x="24.009375" xlink:href="#md7965d1ba0" y="142.622472826"/>
      </g>
     </g>
     <g id="line2d_16">
      <g>
       <use style="stroke:#000000;stroke-width:0.5;" x="277.645738636" xlink:href="#md9a1c1a7cd" y="142.622472826"/>
      </g>
     </g>
     <g id="text_9">
      <!-- 5 -->
      <g transform="translate(15.2921875 145.381847826)scale(0.1 -0.1)">
       <use xlink:href="#DejaVuSans-35"/>
      </g>
     </g>
    </g>
    <g id="ytick_4">
     <g id="line2d_17">
      <g>
       <use style="stroke:#000000;stroke-width:0.5;" x="24.009375" xlink:href="#md7965d1ba0" y="197.760812747"/>
      </g>
     </g>
     <g id="line2d_18">
      <g>
       <use style="stroke:#000000;stroke-width:0.5;" x="277.645738636" xlink:href="#md9a1c1a7cd" y="197.760812747"/>
      </g>
     </g>
     <g id="text_10">
      <!-- 10 -->
      <g transform="translate(9.046875 200.520187747)scale(0.1 -0.1)">
       <use xlink:href="#DejaVuSans-31"/>
       <use x="63.623046875" xlink:href="#DejaVuSans-30"/>
      </g>
     </g>
    </g>
    <g id="ytick_5">
     <g id="line2d_19">
      <g>
       <use style="stroke:#000000;stroke-width:0.5;" x="24.009375" xlink:href="#md7965d1ba0" y="252.899152668"/>
      </g>
     </g>
     <g id="line2d_20">
      <g>
       <use style="stroke:#000000;stroke-width:0.5;" x="277.645738636" xlink:href="#md9a1c1a7cd" y="252.899152668"/>
      </g>
     </g>
     <g id="text_11">
      <!-- 15 -->
      <g transform="translate(9.25625 255.658527668)scale(0.1 -0.1)">
       <use xlink:href="#DejaVuSans-31"/>
       <use x="63.623046875" xlink:href="#DejaVuSans-35"/>
      </g>
     </g>
    </g>
   </g>
   <g id="patch_4">
    <path d="
M24.0094 274.954
L277.646 274.954" style="fill:none;stroke:#000000;"/>
   </g>
   <g id="patch_5">
    <path d="
M24.0094 274.954
L24.0094 21.3181" style="fill:none;stroke:#000000;"/>
   </g>
   <g id="patch_6">
    <path d="
M277.646 274.954
L277.646 21.3181" style="fill:none;stroke:#000000;"/>
   </g>
   <g id="patch_7">
    <path d="
M24.0094 21.3181
L277.646 21.3181" style="fill:none;stroke:#000000;"/>
   </g>
   <g id="text_12">
    <!-- 4 -->
    <defs>
     <path d="
M37.7969 64.3125
L12.8906 25.3906
L37.7969 25.3906
z

M35.2031 72.9062
L47.6094 72.9062
L47.6094 25.3906
L58.0156 25.3906
L58.0156 17.1875
L47.6094 17.1875
L47.6094 0
L37.7969 0
L37.7969 17.1875
L4.89062 17.1875
L4.89062 26.7031
z
" id="DejaVuSans-34"/>
    </defs>
    <g transform="translate(192.048350413 125.703887126)scale(0.1 -0.1)">
     <use xlink:href="#DejaVuSans-34"/>
    </g>
   </g>
   <g id="text_13">
    <!-- 6 -->
    <defs>
     <path d="
M33.0156 40.375
Q26.375 40.375 22.4844 35.8281
Q18.6094 31.2969 18.6094 23.3906
Q18.6094 15.5312 22.4844 10.9531
Q26.375 6.39062 33.0156 6.39062
Q39.6562 6.39062 43.5312 10.9531
Q47.4062 15.5312 47.4062 23.3906
Q47.4062 31.2969 43.5312 35.8281
Q39.6562 40.375 33.0156 40.375
M52.5938 71.2969
L52.5938 62.3125
Q48.875 64.0625 45.0938 64.9844
Q41.3125 65.9219 37.5938 65.9219
Q27.8281 65.9219 22.6719 59.3281
Q17.5312 52.7344 16.7969 39.4062
Q19.6719 43.6562 24.0156 45.9219
Q28.375 48.1875 33.5938 48.1875
Q44.5781 48.1875 50.9531 41.5156
Q57.3281 34.8594 57.3281 23.3906
Q57.3281 12.1562 50.6875 5.35938
Q44.0469 -1.42188 33.0156 -1.42188
Q20.3594 -1.42188 13.6719 8.26562
Q6.98438 17.9688 6.98438 36.375
Q6.98438 53.6562 15.1875 63.9375
Q23.3906 74.2188 37.2031 74.2188
Q40.9219 74.2188 44.7031 73.4844
Q48.4844 72.75 52.5938 71.2969" id="DejaVuSans-36"/>
    </defs>
    <g transform="translate(163.761518248 137.603259153)scale(0.1 -0.1)">
     <use xlink:href="#DejaVuSans-36"/>
    </g>
   </g>
   <g id="text_14">
    <!-- 7 -->
    <g transform="translate(194.347974986 135.257257499)scale(0.1 -0.1)">
     <use xlink:href="#DejaVuSans-37"/>
    </g>
   </g>
   <g id="text_15">
    <!-- 8 -->
    <g transform="translate(107.864177792 159.200274381)scale(0.1 -0.1)">
     <use xlink:href="#DejaVuSans-38"/>
    </g>
   </g>
   <g id="text_16">
    <!-- 9 -->
    <defs>
     <path d="
M10.9844 1.51562
L10.9844 10.5
Q14.7031 8.73438 18.5 7.8125
Q22.3125 6.89062 25.9844 6.89062
Q35.75 6.89062 40.8906 13.4531
Q46.0469 20.0156 46.7812 33.4062
Q43.9531 29.2031 39.5938 26.9531
Q35.25 24.7031 29.9844 24.7031
Q19.0469 24.7031 12.6719 31.3125
Q6.29688 37.9375 6.29688 49.4219
Q6.29688 60.6406 12.9375 67.4219
Q19.5781 74.2188 30.6094 74.2188
Q43.2656 74.2188 49.9219 64.5156
Q56.5938 54.8281 56.5938 36.375
Q56.5938 19.1406 48.4062 8.85938
Q40.2344 -1.42188 26.4219 -1.42188
Q22.7031 -1.42188 18.8906 -0.6875
Q15.0938 0.046875 10.9844 1.51562
M30.6094 32.4219
Q37.25 32.4219 41.125 36.9531
Q45.0156 41.5 45.0156 49.4219
Q45.0156 57.2812 41.125 61.8438
Q37.25 66.4062 30.6094 66.4062
Q23.9688 66.4062 20.0938 61.8438
Q16.2188 57.2812 16.2188 49.4219
Q16.2188 41.5 20.0938 36.9531
Q23.9688 32.4219 30.6094 32.4219" id="DejaVuSans-39"/>
    </defs>
    <g transform="translate(49.9534961246 148.260630304)scale(0.1 -0.1)">
     <use xlink:href="#DejaVuSans-39"/>
    </g>
   </g>
   <g id="text_17">
    <!-- 10 -->
    <g transform="translate(153.966699121 161.471003255)scale(0.1 -0.1)">
     <use xlink:href="#DejaVuSans-31"/>
     <use x="63.623046875" xlink:href="#DejaVuSans-30"/>
    </g>
   </g>
   <g id="text_18">
    <!-- 11 -->
    <g transform="translate(131.186091404 176.494195666)scale(0.1 -0.1)">
     <use xlink:href="#DejaVuSans-31"/>
     <use x="63.623046875" xlink:href="#DejaVuSans-31"/>
    </g>
   </g>
   <g id="text_19">
    <!-- 13 -->
    <defs>
     <path d="
M40.5781 39.3125
Q47.6562 37.7969 51.625 33
Q55.6094 28.2188 55.6094 21.1875
Q55.6094 10.4062 48.1875 4.48438
Q40.7656 -1.42188 27.0938 -1.42188
Q22.5156 -1.42188 17.6562 -0.515625
Q12.7969 0.390625 7.625 2.20312
L7.625 11.7188
Q11.7188 9.32812 16.5938 8.10938
Q21.4844 6.89062 26.8125 6.89062
Q36.0781 6.89062 40.9375 10.5469
Q45.7969 14.2031 45.7969 21.1875
Q45.7969 27.6406 41.2812 31.2656
Q36.7656 34.9062 28.7188 34.9062
L20.2188 34.9062
L20.2188 43.0156
L29.1094 43.0156
Q36.375 43.0156 40.2344 45.9219
Q44.0938 48.8281 44.0938 54.2969
Q44.0938 59.9062 40.1094 62.9062
Q36.1406 65.9219 28.7188 65.9219
Q24.6562 65.9219 20.0156 65.0312
Q15.375 64.1562 9.8125 62.3125
L9.8125 71.0938
Q15.4375 72.6562 20.3438 73.4375
Q25.25 74.2188 29.5938 74.2188
Q40.8281 74.2188 47.3594 69.1094
Q53.9062 64.0156 53.9062 55.3281
Q53.9062 49.2656 50.4375 45.0938
Q46.9688 40.9219 40.5781 39.3125" id="DejaVuSans-33"/>
    </defs>
    <g transform="translate(132.411227887 144.440536701)scale(0.1 -0.1)">
     <use xlink:href="#DejaVuSans-31"/>
     <use x="63.623046875" xlink:href="#DejaVuSans-33"/>
    </g>
   </g>
   <g id="text_20">
    <!-- 14 -->
    <g transform="translate(200.259870361 120.02079221)scale(0.1 -0.1)">
     <use xlink:href="#DejaVuSans-31"/>
     <use x="63.623046875" xlink:href="#DejaVuSans-34"/>
    </g>
   </g>
   <g id="text_21">
    <!-- 15 -->
    <g transform="translate(83.4840234926 146.353719868)scale(0.1 -0.1)">
     <use xlink:href="#DejaVuSans-31"/>
     <use x="63.623046875" xlink:href="#DejaVuSans-35"/>
    </g>
   </g>
   <g id="text_22">
    <!-- 16 -->
    <g transform="translate(46.0647109684 160.988002914)scale(0.1 -0.1)">
     <use xlink:href="#DejaVuSans-31"/>
     <use x="63.623046875" xlink:href="#DejaVuSans-36"/>
    </g>
   </g>
   <g id="text_23">
    <!-- b1 -->
    <defs>
     <path d="
M48.6875 27.2969
Q48.6875 37.2031 44.6094 42.8438
Q40.5312 48.4844 33.4062 48.4844
Q26.2656 48.4844 22.1875 42.8438
Q18.1094 37.2031 18.1094 27.2969
Q18.1094 17.3906 22.1875 11.75
Q26.2656 6.10938 33.4062 6.10938
Q40.5312 6.10938 44.6094 11.75
Q48.6875 17.3906 48.6875 27.2969
M18.1094 46.3906
Q20.9531 51.2656 25.2656 53.625
Q29.5938 56 35.5938 56
Q45.5625 56 51.7812 48.0938
Q58.0156 40.1875 58.0156 27.2969
Q58.0156 14.4062 51.7812 6.48438
Q45.5625 -1.42188 35.5938 -1.42188
Q29.5938 -1.42188 25.2656 0.953125
Q20.9531 3.32812 18.1094 8.20312
L18.1094 0
L9.07812 0
L9.07812 75.9844
L18.1094 75.9844
z
" id="DejaVuSans-62"/>
    </defs>
    <g transform="translate(46.0647109684 175.478013131)scale(0.1 -0.1)">
     <use xlink:href="#DejaVuSans-62"/>
     <use x="63.4765625" xlink:href="#DejaVuSans-31"/>
    </g>
   </g>
   <g id="text_24">
    <!-- b2 -->
    <g transform="translate(78.216574175 152.475906003)scale(0.1 -0.1)">
     <use xlink:href="#DejaVuSans-62"/>
     <use x="63.4765625" xlink:href="#DejaVuSans-32"/>
    </g>
   </g>
   <g id="text_25">
    <!-- b3 -->
    <g transform="translate(110.012536982 157.218091165)scale(0.1 -0.1)">
     <use xlink:href="#DejaVuSans-62"/>
     <use x="63.4765625" xlink:href="#DejaVuSans-33"/>
    </g>
   </g>
   <g id="text_26">
    <!-- b4 -->
    <g transform="translate(167.437544685 126.638524149)scale(0.1 -0.1)">
     <use xlink:href="#DejaVuSans-62"/>
     <use x="63.4765625" xlink:href="#DejaVuSans-34"/>
    </g>
   </g>
   <g id="text_27">
    <!-- b5 -->
    <g transform="translate(52.1018553146 146.278447088)scale(0.1 -0.1)">
     <use xlink:href="#DejaVuSans-62"/>
     <use x="63.4765625" xlink:href="#DejaVuSans-35"/>
    </g>
   </g>
   <g id="text_28">
    <!-- b6 -->
    <g transform="translate(196.257559044 124.029067764)scale(0.1 -0.1)">
     <use xlink:href="#DejaVuSans-62"/>
     <use x="63.4765625" xlink:href="#DejaVuSans-36"/>
    </g>
   </g>
   <g id="text_29">
    <!-- Control group session 2 -->
    <defs>
     <path d="
M54.8906 33.0156
L54.8906 0
L45.9062 0
L45.9062 32.7188
Q45.9062 40.4844 42.875 44.3281
Q39.8438 48.1875 33.7969 48.1875
Q26.5156 48.1875 22.3125 43.5469
Q18.1094 38.9219 18.1094 30.9062
L18.1094 0
L9.07812 0
L9.07812 54.6875
L18.1094 54.6875
L18.1094 46.1875
Q21.3438 51.125 25.7031 53.5625
Q30.0781 56 35.7969 56
Q45.2188 56 50.0469 50.1719
Q54.8906 44.3438 54.8906 33.0156" id="DejaVuSans-6e"/>
     <path d="
M41.1094 46.2969
Q39.5938 47.1719 37.8125 47.5781
Q36.0312 48 33.8906 48
Q26.2656 48 22.1875 43.0469
Q18.1094 38.0938 18.1094 28.8125
L18.1094 0
L9.07812 0
L9.07812 54.6875
L18.1094 54.6875
L18.1094 46.1875
Q20.9531 51.1719 25.4844 53.5781
Q30.0312 56 36.5312 56
Q37.4531 56 38.5781 55.875
Q39.7031 55.7656 41.0625 55.5156
z
" id="DejaVuSans-72"/>
     <path d="
M9.42188 75.9844
L18.4062 75.9844
L18.4062 0
L9.42188 0
z
" id="DejaVuSans-6c"/>
     <path d="
M8.5 21.5781
L8.5 54.6875
L17.4844 54.6875
L17.4844 21.9219
Q17.4844 14.1562 20.5 10.2656
Q23.5312 6.39062 29.5938 6.39062
Q36.8594 6.39062 41.0781 11.0312
Q45.3125 15.6719 45.3125 23.6875
L45.3125 54.6875
L54.2969 54.6875
L54.2969 0
L45.3125 0
L45.3125 8.40625
Q42.0469 3.42188 37.7188 1
Q33.4062 -1.42188 27.6875 -1.42188
Q18.2656 -1.42188 13.375 4.4375
Q8.5 10.2969 8.5 21.5781
M31.1094 56
z
" id="DejaVuSans-75"/>
     <path d="
M45.4062 27.9844
Q45.4062 37.75 41.375 43.1094
Q37.3594 48.4844 30.0781 48.4844
Q22.8594 48.4844 18.8281 43.1094
Q14.7969 37.75 14.7969 27.9844
Q14.7969 18.2656 18.8281 12.8906
Q22.8594 7.51562 30.0781 7.51562
Q37.3594 7.51562 41.375 12.8906
Q45.4062 18.2656 45.4062 27.9844
M54.3906 6.78125
Q54.3906 -7.17188 48.1875 -13.9844
Q42 -20.7969 29.2031 -20.7969
Q24.4688 -20.7969 20.2656 -20.0938
Q16.0625 -19.3906 12.1094 -17.9219
L12.1094 -9.1875
Q16.0625 -11.3281 19.9219 -12.3438
Q23.7812 -13.375 27.7812 -13.375
Q36.625 -13.375 41.0156 -8.76562
Q45.4062 -4.15625 45.4062 5.17188
L45.4062 9.625
Q42.625 4.78125 38.2812 2.39062
Q33.9375 0 27.875 0
Q17.8281 0 11.6719 7.65625
Q5.51562 15.3281 5.51562 27.9844
Q5.51562 40.6719 11.6719 48.3281
Q17.8281 56 27.875 56
Q33.9375 56 38.2812 53.6094
Q42.625 51.2188 45.4062 46.3906
L45.4062 54.6875
L54.3906 54.6875
z
" id="DejaVuSans-67"/>
     <path d="
M30.6094 48.3906
Q23.3906 48.3906 19.1875 42.75
Q14.9844 37.1094 14.9844 27.2969
Q14.9844 17.4844 19.1562 11.8438
Q23.3438 6.20312 30.6094 6.20312
Q37.7969 6.20312 41.9844 11.8594
Q46.1875 17.5312 46.1875 27.2969
Q46.1875 37.0156 41.9844 42.7031
Q37.7969 48.3906 30.6094 48.3906
M30.6094 56
Q42.3281 56 49.0156 48.375
Q55.7188 40.7656 55.7188 27.2969
Q55.7188 13.875 49.0156 6.21875
Q42.3281 -1.42188 30.6094 -1.42188
Q18.8438 -1.42188 12.1719 6.21875
Q5.51562 13.875 5.51562 27.2969
Q5.51562 40.7656 12.1719 48.375
Q18.8438 56 30.6094 56" id="DejaVuSans-6f"/>
     <path d="
M64.4062 67.2812
L64.4062 56.8906
Q59.4219 61.5312 53.7812 63.8125
Q48.1406 66.1094 41.7969 66.1094
Q29.2969 66.1094 22.6562 58.4688
Q16.0156 50.8281 16.0156 36.375
Q16.0156 21.9688 22.6562 14.3281
Q29.2969 6.6875 41.7969 6.6875
Q48.1406 6.6875 53.7812 8.98438
Q59.4219 11.2812 64.4062 15.9219
L64.4062 5.60938
Q59.2344 2.09375 53.4375 0.328125
Q47.6562 -1.42188 41.2188 -1.42188
Q24.6562 -1.42188 15.125 8.70312
Q5.60938 18.8438 5.60938 36.375
Q5.60938 53.9531 15.125 64.0781
Q24.6562 74.2188 41.2188 74.2188
Q47.75 74.2188 53.5312 72.4844
Q59.3281 70.75 64.4062 67.2812" id="DejaVuSans-43"/>
    </defs>
    <g transform="translate(80.5722443182 16.318125)scale(0.12 -0.12)">
     <use xlink:href="#DejaVuSans-43"/>
     <use x="69.82421875" xlink:href="#DejaVuSans-6f"/>
     <use x="131.005859375" xlink:href="#DejaVuSans-6e"/>
     <use x="194.384765625" xlink:href="#DejaVuSans-74"/>
     <use x="233.59375" xlink:href="#DejaVuSans-72"/>
     <use x="272.45703125" xlink:href="#DejaVuSans-6f"/>
     <use x="333.638671875" xlink:href="#DejaVuSans-6c"/>
     <use x="361.421875" xlink:href="#DejaVuSans-20"/>
     <use x="393.208984375" xlink:href="#DejaVuSans-67"/>
     <use x="456.685546875" xlink:href="#DejaVuSans-72"/>
     <use x="495.548828125" xlink:href="#DejaVuSans-6f"/>
     <use x="556.73046875" xlink:href="#DejaVuSans-75"/>
     <use x="620.109375" xlink:href="#DejaVuSans-70"/>
     <use x="683.5859375" xlink:href="#DejaVuSans-20"/>
     <use x="715.373046875" xlink:href="#DejaVuSans-73"/>
     <use x="767.47265625" xlink:href="#DejaVuSans-65"/>
     <use x="828.99609375" xlink:href="#DejaVuSans-73"/>
     <use x="881.095703125" xlink:href="#DejaVuSans-73"/>
     <use x="933.1953125" xlink:href="#DejaVuSans-69"/>
     <use x="960.978515625" xlink:href="#DejaVuSans-6f"/>
     <use x="1022.16015625" xlink:href="#DejaVuSans-6e"/>
     <use x="1085.5390625" xlink:href="#DejaVuSans-20"/>
     <use x="1117.326171875" xlink:href="#DejaVuSans-32"/>
    </g>
   </g>
   <g id="legend_1">
    <g id="patch_8">
     <path d="
M162.157 66.1456
L271.646 66.1456
L271.646 27.3181
L162.157 27.3181
L162.157 66.1456
z
" style="fill:#ffffff;stroke:#000000;"/>
    </g>
    <g id="patch_9">
     <path d="
M166.957 41.2362
L190.957 41.2362
L190.957 32.8362
L166.957 32.8362
z
" style="fill:#ff0000;fill-opacity:0.5;stroke:#ff0000;stroke-opacity:0.5;"/>
    </g>
    <g id="text_30">
     <!-- bench area -->
     <defs>
      <path d="
M48.7812 52.5938
L48.7812 44.1875
Q44.9688 46.2969 41.1406 47.3438
Q37.3125 48.3906 33.4062 48.3906
Q24.6562 48.3906 19.8125 42.8438
Q14.9844 37.3125 14.9844 27.2969
Q14.9844 17.2812 19.8125 11.7344
Q24.6562 6.20312 33.4062 6.20312
Q37.3125 6.20312 41.1406 7.25
Q44.9688 8.29688 48.7812 10.4062
L48.7812 2.09375
Q45.0156 0.34375 40.9844 -0.53125
Q36.9688 -1.42188 32.4219 -1.42188
Q20.0625 -1.42188 12.7812 6.34375
Q5.51562 14.1094 5.51562 27.2969
Q5.51562 40.6719 12.8594 48.3281
Q20.2188 56 33.0156 56
Q37.1562 56 41.1094 55.1406
Q45.0625 54.2969 48.7812 52.5938" id="DejaVuSans-63"/>
      <path d="
M54.8906 33.0156
L54.8906 0
L45.9062 0
L45.9062 32.7188
Q45.9062 40.4844 42.875 44.3281
Q39.8438 48.1875 33.7969 48.1875
Q26.5156 48.1875 22.3125 43.5469
Q18.1094 38.9219 18.1094 30.9062
L18.1094 0
L9.07812 0
L9.07812 75.9844
L18.1094 75.9844
L18.1094 46.1875
Q21.3438 51.125 25.7031 53.5625
Q30.0781 56 35.7969 56
Q45.2188 56 50.0469 50.1719
Q54.8906 44.3438 54.8906 33.0156" id="DejaVuSans-68"/>
     </defs>
     <g transform="translate(200.556988636 41.23625)scale(0.12 -0.12)">
      <use xlink:href="#DejaVuSans-62"/>
      <use x="63.4765625" xlink:href="#DejaVuSans-65"/>
      <use x="125.0" xlink:href="#DejaVuSans-6e"/>
      <use x="188.37890625" xlink:href="#DejaVuSans-63"/>
      <use x="243.359375" xlink:href="#DejaVuSans-68"/>
      <use x="306.73828125" xlink:href="#DejaVuSans-20"/>
      <use x="338.525390625" xlink:href="#DejaVuSans-61"/>
      <use x="399.8046875" xlink:href="#DejaVuSans-72"/>
      <use x="438.66796875" xlink:href="#DejaVuSans-65"/>
      <use x="500.19140625" xlink:href="#DejaVuSans-61"/>
     </g>
    </g>
    <g id="PathCollection_3">
     <defs>
      <path d="
M0 8.66025
C2.29673 8.66025 4.49969 7.74776 6.12372 6.12372
C7.74776 4.49969 8.66025 2.29673 8.66025 0
C8.66025 -2.29673 7.74776 -4.49969 6.12372 -6.12372
C4.49969 -7.74776 2.29673 -8.66025 0 -8.66025
C-2.29673 -8.66025 -4.49969 -7.74776 -6.12372 -6.12372
C-7.74776 -4.49969 -8.66025 -2.29673 -8.66025 0
C-8.66025 2.29673 -7.74776 4.49969 -6.12372 6.12372
C-4.49969 7.74776 -2.29673 8.66025 0 8.66025
z
" id="C2_0_2aea4494f3"/>
      <path d="
M0 8.66025
C2.29673 8.66025 4.49969 7.74776 6.12372 6.12372
C7.74776 4.49969 8.66025 2.29673 8.66025 0
C8.66025 -2.29673 7.74776 -4.49969 6.12372 -6.12372
C4.49969 -7.74776 2.29673 -8.66025 0 -8.66025
C-2.29673 -8.66025 -4.49969 -7.74776 -6.12372 -6.12372
C-7.74776 -4.49969 -8.66025 -2.29673 -8.66025 0
C-8.66025 2.29673 -7.74776 4.49969 -6.12372 6.12372
C-4.49969 7.74776 -2.29673 8.66025 0 8.66025
z
" id="C2_1_2aea4494f3"/>
      <path d="
M0 8.66025
C2.29673 8.66025 4.49969 7.74776 6.12372 6.12372
C7.74776 4.49969 8.66025 2.29673 8.66025 0
C8.66025 -2.29673 7.74776 -4.49969 6.12372 -6.12372
C4.49969 -7.74776 2.29673 -8.66025 0 -8.66025
C-2.29673 -8.66025 -4.49969 -7.74776 -6.12372 -6.12372
C-7.74776 -4.49969 -8.66025 -2.29673 -8.66025 0
C-8.66025 2.29673 -7.74776 4.49969 -6.12372 6.12372
C-4.49969 7.74776 -2.29673 8.66025 0 8.66025
z
" id="C2_2_2aea4494f3"/>
     </defs>
     <use style="fill:#008000;fill-opacity:0.5;stroke:#008000;stroke-opacity:0.5;" x="170.556988636" xlink:href="#C2_0_2aea4494f3" y="55.7"/>
     <use style="fill:#008000;fill-opacity:0.5;stroke:#008000;stroke-opacity:0.5;" x="178.956988636" xlink:href="#C2_1_2aea4494f3" y="54.65"/>
     <use style="fill:#008000;fill-opacity:0.5;stroke:#008000;stroke-opacity:0.5;" x="187.356988636" xlink:href="#C2_2_2aea4494f3" y="56.225"/>
    </g>
    <g id="text_31">
     <!-- beacons -->
     <g transform="translate(200.556988636 58.85)scale(0.12 -0.12)">
      <use xlink:href="#DejaVuSans-62"/>
      <use x="63.4765625" xlink:href="#DejaVuSans-65"/>
      <use x="125.0" xlink:href="#DejaVuSans-61"/>
      <use x="186.279296875" xlink:href="#DejaVuSans-63"/>
      <use x="241.259765625" xlink:href="#DejaVuSans-6f"/>
      <use x="302.44140625" xlink:href="#DejaVuSans-6e"/>
      <use x="365.8203125" xlink:href="#DejaVuSans-73"/>
     </g>
    </g>
   </g>
  </g>
  <g id="axes_2">
   <g id="patch_10">
    <path d="
M328.373 274.954
L582.009 274.954
L582.009 21.3181
L328.373 21.3181
z
" style="fill:#ffffff;"/>
   </g>
   <g id="PathCollection_4">
    <defs>
     <path d="
M0 2.23607
C0.593012 2.23607 1.16182 2.00046 1.58114 1.58114
C2.00046 1.16182 2.23607 0.593012 2.23607 0
C2.23607 -0.593012 2.00046 -1.16182 1.58114 -1.58114
C1.16182 -2.00046 0.593012 -2.23607 0 -2.23607
C-0.593012 -2.23607 -1.16182 -2.00046 -1.58114 -1.58114
C-2.00046 -1.16182 -2.23607 -0.593012 -2.23607 0
C-2.23607 0.593012 -2.00046 1.16182 -1.58114 1.58114
C-1.16182 2.00046 -0.593012 2.23607 0 2.23607
z
" id="C3_0_919e3f95db"/>
    </defs>
    <g clip-path="url(#pc9ec208b2e)">
     <use style="fill:#0000ff;stroke:#000000;" x="434.774144149" xlink:href="#C3_0_919e3f95db" y="171.895150811"/>
    </g>
    <g clip-path="url(#pc9ec208b2e)">
     <use style="fill:#0000ff;stroke:#000000;" x="528.127916165" xlink:href="#C3_0_919e3f95db" y="192.51856958"/>
    </g>
    <g clip-path="url(#pc9ec208b2e)">
     <use style="fill:#0000ff;stroke:#000000;" x="501.078255744" xlink:href="#C3_0_919e3f95db" y="133.452427153"/>
    </g>
    <g clip-path="url(#pc9ec208b2e)">
     <use style="fill:#0000ff;stroke:#000000;" x="489.9586496" xlink:href="#C3_0_919e3f95db" y="137.418930124"/>
    </g>
    <g clip-path="url(#pc9ec208b2e)">
     <use style="fill:#0000ff;stroke:#000000;" x="483.115543043" xlink:href="#C3_0_919e3f95db" y="133.104908766"/>
    </g>
    <g clip-path="url(#pc9ec208b2e)">
     <use style="fill:#0000ff;stroke:#000000;" x="488.721609869" xlink:href="#C3_0_919e3f95db" y="181.30211405"/>
    </g>
    <g clip-path="url(#pc9ec208b2e)">
     <use style="fill:#0000ff;stroke:#000000;" x="471.111326781" xlink:href="#C3_0_919e3f95db" y="143.326742706"/>
    </g>
    <g clip-path="url(#pc9ec208b2e)">
     <use style="fill:#0000ff;stroke:#000000;" x="480.359657404" xlink:href="#C3_0_919e3f95db" y="181.140338249"/>
    </g>
    <g clip-path="url(#pc9ec208b2e)">
     <use style="fill:#0000ff;stroke:#000000;" x="401.797419138" xlink:href="#C3_0_919e3f95db" y="150.349010806"/>
    </g>
    <g clip-path="url(#pc9ec208b2e)">
     <use style="fill:#0000ff;stroke:#000000;" x="397.756461974" xlink:href="#C3_0_919e3f95db" y="148.180016734"/>
    </g>
    <g clip-path="url(#pc9ec208b2e)">
     <use style="fill:#0000ff;stroke:#000000;" x="435.614258555" xlink:href="#C3_0_919e3f95db" y="159.366513783"/>
    </g>
    <g clip-path="url(#pc9ec208b2e)">
     <use style="fill:#0000ff;stroke:#000000;" x="539.453400924" xlink:href="#C3_0_919e3f95db" y="173.92034417"/>
    </g>
   </g>
   <g id="PathCollection_5">
    <defs>
     <path d="
M0 8.66025
C2.29673 8.66025 4.49969 7.74776 6.12372 6.12372
C7.74776 4.49969 8.66025 2.29673 8.66025 0
C8.66025 -2.29673 7.74776 -4.49969 6.12372 -6.12372
C4.49969 -7.74776 2.29673 -8.66025 0 -8.66025
C-2.29673 -8.66025 -4.49969 -7.74776 -6.12372 -6.12372
C-7.74776 -4.49969 -8.66025 -2.29673 -8.66025 0
C-8.66025 2.29673 -7.74776 4.49969 -6.12372 6.12372
C-4.49969 7.74776 -2.29673 8.66025 0 8.66025
z
" id="C4_0_2aea4494f3"/>
    </defs>
    <g clip-path="url(#pc9ec208b2e)">
     <use style="fill:#008000;fill-opacity:0.5;stroke:#008000;stroke-opacity:0.5;" x="439.610720007" xlink:href="#C4_0_2aea4494f3" y="155.262201797"/>
    </g>
    <g clip-path="url(#pc9ec208b2e)">
     <use style="fill:#008000;fill-opacity:0.5;stroke:#008000;stroke-opacity:0.5;" x="402.062625369" xlink:href="#C4_0_2aea4494f3" y="144.081696444"/>
    </g>
    <g clip-path="url(#pc9ec208b2e)">
     <use style="fill:#008000;fill-opacity:0.5;stroke:#008000;stroke-opacity:0.5;" x="432.237200988" xlink:href="#C4_0_2aea4494f3" y="163.482809162"/>
    </g>
    <g clip-path="url(#pc9ec208b2e)">
     <use style="fill:#008000;fill-opacity:0.5;stroke:#008000;stroke-opacity:0.5;" x="527.21364224" xlink:href="#C4_0_2aea4494f3" y="194.591696511"/>
    </g>
    <g clip-path="url(#pc9ec208b2e)">
     <use style="fill:#008000;fill-opacity:0.5;stroke:#008000;stroke-opacity:0.5;" x="486.833734402" xlink:href="#C4_0_2aea4494f3" y="177.083959833"/>
    </g>
    <g clip-path="url(#pc9ec208b2e)">
     <use style="fill:#008000;fill-opacity:0.5;stroke:#008000;stroke-opacity:0.5;" x="482.835504908" xlink:href="#C4_0_2aea4494f3" y="137.281121109"/>
    </g>
   </g>
   <g id="patch_11">
    <path clip-path="url(#pc9ec208b2e)" d="
M503.623 109.207
C509.472 109.207 515.082 111.531 519.218 115.667
C523.354 119.803 525.678 125.413 525.678 131.262
C525.678 137.111 523.354 142.722 519.218 146.858
C515.082 150.994 509.472 153.318 503.623 153.318
C497.773 153.318 492.163 150.994 488.027 146.858
C483.891 142.722 481.567 137.111 481.567 131.262
C481.567 125.413 483.891 119.803 488.027 115.667
C492.163 111.531 497.773 109.207 503.623 109.207
z
" style="fill:#ff0000;fill-opacity:0.5;stroke:#ff0000;stroke-opacity:0.5;"/>
   </g>
   <g id="patch_12">
    <path clip-path="url(#pc9ec208b2e)" d="
M493.788 153.65
C499.637 153.65 505.248 155.974 509.384 160.11
C513.519 164.246 515.843 169.856 515.843 175.705
C515.843 181.555 513.519 187.165 509.384 191.301
C505.248 195.437 499.637 197.761 493.788 197.761
C487.939 197.761 482.329 195.437 478.193 191.301
C474.057 187.165 471.733 181.555 471.733 175.705
C471.733 169.856 474.057 164.246 478.193 160.11
C482.329 155.974 487.939 153.65 493.788 153.65
z
" style="fill:#e6e600;fill-opacity:0.4;stroke:#e6e600;stroke-opacity:0.4;"/>
   </g>
   <g id="patch_13">
    <path clip-path="url(#pc9ec208b2e)" d="
M472.039 188.755
L469.58 188.944
L470.145 189.885
L438.647 208.784
L438.653 208.793
L470.15 189.894
L470.715 190.835
z
" style="stroke:#000000;"/>
   </g>
   <g id="patch_14">
    <path clip-path="url(#pc9ec208b2e)" d="
M438.65 137.109
C444.499 137.109 450.109 139.433 454.245 143.568
C458.381 147.704 460.705 153.315 460.705 159.164
C460.705 165.013 458.381 170.623 454.245 174.759
C450.109 178.895 444.499 181.219 438.65 181.219
C432.801 181.219 427.19 178.895 423.054 174.759
C418.918 170.623 416.594 165.013 416.594 159.164
C416.594 153.315 418.918 147.704 423.054 143.568
C427.19 139.433 432.801 137.109 438.65 137.109
z
" style="fill:#e6e600;fill-opacity:0.4;stroke:#e6e600;stroke-opacity:0.4;"/>
   </g>
   <g id="patch_15">
    <path clip-path="url(#pc9ec208b2e)" d="
M438.65 184.528
L437.547 186.733
L438.644 186.733
L438.644 208.788
L438.655 208.788
L438.655 186.733
L439.752 186.733
z
" style="stroke:#000000;"/>
   </g>
   <g id="patch_16">
    <path clip-path="url(#pc9ec208b2e)" d="
M405.567 120.567
C411.416 120.567 417.026 122.891 421.162 127.027
C425.298 131.163 427.622 136.773 427.622 142.622
C427.622 148.472 425.298 154.082 421.162 158.218
C417.026 162.354 411.416 164.678 405.567 164.678
C399.718 164.678 394.107 162.354 389.971 158.218
C385.835 154.082 383.511 148.472 383.511 142.622
C383.511 136.773 385.835 131.163 389.971 127.027
C394.107 122.891 399.718 120.567 405.567 120.567
z
" style="fill:#e6e600;fill-opacity:0.4;stroke:#e6e600;stroke-opacity:0.4;"/>
   </g>
   <g id="patch_17">
    <path clip-path="url(#pc9ec208b2e)" d="
M416.91 165.308
L416.91 167.774
L417.891 167.284
L438.645 208.791
L438.655 208.786
L417.901 167.279
L418.882 166.788
z
" style="stroke:#000000;"/>
   </g>
   <g id="patch_18">
    <path clip-path="url(#pc9ec208b2e)" d="
M488.274 115.053
C494.123 115.053 499.734 117.377 503.87 121.513
C508.006 125.649 510.33 131.259 510.33 137.109
C510.33 142.958 508.006 148.568 503.87 152.704
C499.734 156.84 494.123 159.164 488.274 159.164
C482.425 159.164 476.815 156.84 472.679 152.704
C468.543 148.568 466.219 142.958 466.219 137.109
C466.219 131.259 468.543 125.649 472.679 121.513
C476.815 117.377 482.425 115.053 488.274 115.053
z
" style="fill:#e6e600;fill-opacity:0.4;stroke:#e6e600;stroke-opacity:0.4;"/>
   </g>
   <g id="patch_19">
    <path clip-path="url(#pc9ec208b2e)" d="
M473.837 157.962
L471.675 159.148
L472.577 159.773
L438.645 208.785
L438.654 208.792
L472.586 159.779
L473.488 160.404
z
" style="stroke:#000000;"/>
   </g>
   <g id="matplotlib.axis_3">
    <g id="xtick_6">
     <g id="line2d_21">
      <g>
       <use style="stroke:#000000;stroke-width:0.5;" x="339.400679348" xlink:href="#mc7db9fdffb" y="274.954488636"/>
      </g>
     </g>
     <g id="line2d_22">
      <g>
       <use style="stroke:#000000;stroke-width:0.5;" x="339.400679348" xlink:href="#m5a7d422ac3" y="21.318125"/>
      </g>
     </g>
     <g id="text_32">
      <!-- −5 -->
      <g transform="translate(332.995991848 286.552926136)scale(0.1 -0.1)">
       <use xlink:href="#DejaVuSans-2212"/>
       <use x="83.7890625" xlink:href="#DejaVuSans-35"/>
      </g>
     </g>
    </g>
    <g id="xtick_7">
     <g id="line2d_23">
      <g>
       <use style="stroke:#000000;stroke-width:0.5;" x="394.539019269" xlink:href="#mc7db9fdffb" y="274.954488636"/>
      </g>
     </g>
     <g id="line2d_24">
      <g>
       <use style="stroke:#000000;stroke-width:0.5;" x="394.539019269" xlink:href="#m5a7d422ac3" y="21.318125"/>
      </g>
     </g>
     <g id="text_33">
      <!-- 0 -->
      <g transform="translate(392.019488019 286.552926136)scale(0.1 -0.1)">
       <use xlink:href="#DejaVuSans-30"/>
      </g>
     </g>
    </g>
    <g id="xtick_8">
     <g id="line2d_25">
      <g>
       <use style="stroke:#000000;stroke-width:0.5;" x="449.67735919" xlink:href="#mc7db9fdffb" y="274.954488636"/>
      </g>
     </g>
     <g id="line2d_26">
      <g>
       <use style="stroke:#000000;stroke-width:0.5;" x="449.67735919" xlink:href="#m5a7d422ac3" y="21.318125"/>
      </g>
     </g>
     <g id="text_34">
      <!-- 5 -->
      <g transform="translate(447.31876544 286.552926136)scale(0.1 -0.1)">
       <use xlink:href="#DejaVuSans-35"/>
      </g>
     </g>
    </g>
    <g id="xtick_9">
     <g id="line2d_27">
      <g>
       <use style="stroke:#000000;stroke-width:0.5;" x="504.815699111" xlink:href="#mc7db9fdffb" y="274.954488636"/>
      </g>
     </g>
     <g id="line2d_28">
      <g>
       <use style="stroke:#000000;stroke-width:0.5;" x="504.815699111" xlink:href="#m5a7d422ac3" y="21.318125"/>
      </g>
     </g>
     <g id="text_35">
      <!-- 10 -->
      <g transform="translate(499.334449111 286.552926136)scale(0.1 -0.1)">
       <use xlink:href="#DejaVuSans-31"/>
       <use x="63.623046875" xlink:href="#DejaVuSans-30"/>
      </g>
     </g>
    </g>
    <g id="xtick_10">
     <g id="line2d_29">
      <g>
       <use style="stroke:#000000;stroke-width:0.5;" x="559.954039032" xlink:href="#mc7db9fdffb" y="274.954488636"/>
      </g>
     </g>
     <g id="line2d_30">
      <g>
       <use style="stroke:#000000;stroke-width:0.5;" x="559.954039032" xlink:href="#m5a7d422ac3" y="21.318125"/>
      </g>
     </g>
     <g id="text_36">
      <!-- 15 -->
      <g transform="translate(554.577476532 286.552926136)scale(0.1 -0.1)">
       <use xlink:href="#DejaVuSans-31"/>
       <use x="63.623046875" xlink:href="#DejaVuSans-35"/>
      </g>
     </g>
    </g>
    <g id="text_37">
     <!-- timestamp: 2257 -->
     <g transform="translate(412.650568182 301.231051136)scale(0.1 -0.1)">
      <use xlink:href="#DejaVuSans-74"/>
      <use x="39.208984375" xlink:href="#DejaVuSans-69"/>
      <use x="66.9921875" xlink:href="#DejaVuSans-6d"/>
      <use x="164.404296875" xlink:href="#DejaVuSans-65"/>
      <use x="225.927734375" xlink:href="#DejaVuSans-73"/>
      <use x="278.02734375" xlink:href="#DejaVuSans-74"/>
      <use x="317.236328125" xlink:href="#DejaVuSans-61"/>
      <use x="378.515625" xlink:href="#DejaVuSans-6d"/>
      <use x="475.927734375" xlink:href="#DejaVuSans-70"/>
      <use x="539.404296875" xlink:href="#DejaVuSans-3a"/>
      <use x="573.095703125" xlink:href="#DejaVuSans-20"/>
      <use x="604.8828125" xlink:href="#DejaVuSans-32"/>
      <use x="668.505859375" xlink:href="#DejaVuSans-32"/>
      <use x="732.12890625" xlink:href="#DejaVuSans-35"/>
      <use x="795.751953125" xlink:href="#DejaVuSans-37"/>
     </g>
    </g>
   </g>
   <g id="matplotlib.axis_4">
    <g id="ytick_6">
     <g id="line2d_31">
      <g>
       <use style="stroke:#000000;stroke-width:0.5;" x="328.373011364" xlink:href="#md7965d1ba0" y="32.3457929842"/>
      </g>
     </g>
     <g id="line2d_32">
      <g>
       <use style="stroke:#000000;stroke-width:0.5;" x="582.009375" xlink:href="#md9a1c1a7cd" y="32.3457929842"/>
      </g>
     </g>
     <g id="text_38">
      <!-- −5 -->
      <g transform="translate(311.563636364 35.1051679842)scale(0.1 -0.1)">
       <use xlink:href="#DejaVuSans-2212"/>
       <use x="83.7890625" xlink:href="#DejaVuSans-35"/>
      </g>
     </g>
    </g>
    <g id="ytick_7">
     <g id="line2d_33">
      <g>
       <use style="stroke:#000000;stroke-width:0.5;" x="328.373011364" xlink:href="#md7965d1ba0" y="87.4841329051"/>
      </g>
     </g>
     <g id="line2d_34">
      <g>
       <use style="stroke:#000000;stroke-width:0.5;" x="582.009375" xlink:href="#md9a1c1a7cd" y="87.4841329051"/>
      </g>
     </g>
     <g id="text_39">
      <!-- 0 -->
      <g transform="translate(319.333948864 90.2435079051)scale(0.1 -0.1)">
       <use xlink:href="#DejaVuSans-30"/>
      </g>
     </g>
    </g>
    <g id="ytick_8">
     <g id="line2d_35">
      <g>
       <use style="stroke:#000000;stroke-width:0.5;" x="328.373011364" xlink:href="#md7965d1ba0" y="142.622472826"/>
      </g>
     </g>
     <g id="line2d_36">
      <g>
       <use style="stroke:#000000;stroke-width:0.5;" x="582.009375" xlink:href="#md9a1c1a7cd" y="142.622472826"/>
      </g>
     </g>
     <g id="text_40">
      <!-- 5 -->
      <g transform="translate(319.655823864 145.381847826)scale(0.1 -0.1)">
       <use xlink:href="#DejaVuSans-35"/>
      </g>
     </g>
    </g>
    <g id="ytick_9">
     <g id="line2d_37">
      <g>
       <use style="stroke:#000000;stroke-width:0.5;" x="328.373011364" xlink:href="#md7965d1ba0" y="197.760812747"/>
      </g>
     </g>
     <g id="line2d_38">
      <g>
       <use style="stroke:#000000;stroke-width:0.5;" x="582.009375" xlink:href="#md9a1c1a7cd" y="197.760812747"/>
      </g>
     </g>
     <g id="text_41">
      <!-- 10 -->
      <g transform="translate(313.410511364 200.520187747)scale(0.1 -0.1)">
       <use xlink:href="#DejaVuSans-31"/>
       <use x="63.623046875" xlink:href="#DejaVuSans-30"/>
      </g>
     </g>
    </g>
    <g id="ytick_10">
     <g id="line2d_39">
      <g>
       <use style="stroke:#000000;stroke-width:0.5;" x="328.373011364" xlink:href="#md7965d1ba0" y="252.899152668"/>
      </g>
     </g>
     <g id="line2d_40">
      <g>
       <use style="stroke:#000000;stroke-width:0.5;" x="582.009375" xlink:href="#md9a1c1a7cd" y="252.899152668"/>
      </g>
     </g>
     <g id="text_42">
      <!-- 15 -->
      <g transform="translate(313.619886364 255.658527668)scale(0.1 -0.1)">
       <use xlink:href="#DejaVuSans-31"/>
       <use x="63.623046875" xlink:href="#DejaVuSans-35"/>
      </g>
     </g>
    </g>
   </g>
   <g id="patch_20">
    <path d="
M328.373 274.954
L582.009 274.954" style="fill:none;stroke:#000000;"/>
   </g>
   <g id="patch_21">
    <path d="
M328.373 274.954
L328.373 21.3181" style="fill:none;stroke:#000000;"/>
   </g>
   <g id="patch_22">
    <path d="
M582.009 274.954
L582.009 21.3181" style="fill:none;stroke:#000000;"/>
   </g>
   <g id="patch_23">
    <path d="
M328.373 21.3181
L582.009 21.3181" style="fill:none;stroke:#000000;"/>
   </g>
   <g id="text_43">
    <!-- 21 -->
    <g transform="translate(434.774144149 171.895150811)scale(0.1 -0.1)">
     <use xlink:href="#DejaVuSans-32"/>
     <use x="63.623046875" xlink:href="#DejaVuSans-31"/>
    </g>
   </g>
   <g id="text_44">
    <!-- 22 -->
    <g transform="translate(528.127916165 192.51856958)scale(0.1 -0.1)">
     <use xlink:href="#DejaVuSans-32"/>
     <use x="63.623046875" xlink:href="#DejaVuSans-32"/>
    </g>
   </g>
   <g id="text_45">
    <!-- 24 -->
    <g transform="translate(501.078255744 133.452427153)scale(0.1 -0.1)">
     <use xlink:href="#DejaVuSans-32"/>
     <use x="63.623046875" xlink:href="#DejaVuSans-34"/>
    </g>
   </g>
   <g id="text_46">
    <!-- 25 -->
    <g transform="translate(489.9586496 137.418930124)scale(0.1 -0.1)">
     <use xlink:href="#DejaVuSans-32"/>
     <use x="63.623046875" xlink:href="#DejaVuSans-35"/>
    </g>
   </g>
   <g id="text_47">
    <!-- 27 -->
    <g transform="translate(483.115543043 133.104908766)scale(0.1 -0.1)">
     <use xlink:href="#DejaVuSans-32"/>
     <use x="63.623046875" xlink:href="#DejaVuSans-37"/>
    </g>
   </g>
   <g id="text_48">
    <!-- 28 -->
    <g transform="translate(488.721609869 181.30211405)scale(0.1 -0.1)">
     <use xlink:href="#DejaVuSans-32"/>
     <use x="63.623046875" xlink:href="#DejaVuSans-38"/>
    </g>
   </g>
   <g id="text_49">
    <!-- 29 -->
    <g transform="translate(471.111326781 143.326742706)scale(0.1 -0.1)">
     <use xlink:href="#DejaVuSans-32"/>
     <use x="63.623046875" xlink:href="#DejaVuSans-39"/>
    </g>
   </g>
   <g id="text_50">
    <!-- 30 -->
    <g transform="translate(480.359657404 181.140338249)scale(0.1 -0.1)">
     <use xlink:href="#DejaVuSans-33"/>
     <use x="63.623046875" xlink:href="#DejaVuSans-30"/>
    </g>
   </g>
   <g id="text_51">
    <!-- 31 -->
    <g transform="translate(401.797419138 150.349010806)scale(0.1 -0.1)">
     <use xlink:href="#DejaVuSans-33"/>
     <use x="63.623046875" xlink:href="#DejaVuSans-31"/>
    </g>
   </g>
   <g id="text_52">
    <!-- 34 -->
    <g transform="translate(397.756461974 148.180016734)scale(0.1 -0.1)">
     <use xlink:href="#DejaVuSans-33"/>
     <use x="63.623046875" xlink:href="#DejaVuSans-34"/>
    </g>
   </g>
   <g id="text_53">
    <!-- 35 -->
    <g transform="translate(435.614258555 159.366513783)scale(0.1 -0.1)">
     <use xlink:href="#DejaVuSans-33"/>
     <use x="63.623046875" xlink:href="#DejaVuSans-35"/>
    </g>
   </g>
   <g id="text_54">
    <!-- 36 -->
    <g transform="translate(539.453400924 173.92034417)scale(0.1 -0.1)">
     <use xlink:href="#DejaVuSans-33"/>
     <use x="63.623046875" xlink:href="#DejaVuSans-36"/>
    </g>
   </g>
   <g id="text_55">
    <!-- b1 -->
    <g transform="translate(439.610720007 155.262201797)scale(0.1 -0.1)">
     <use xlink:href="#DejaVuSans-62"/>
     <use x="63.4765625" xlink:href="#DejaVuSans-31"/>
    </g>
   </g>
   <g id="text_56">
    <!-- b2 -->
    <g transform="translate(402.062625369 144.081696444)scale(0.1 -0.1)">
     <use xlink:href="#DejaVuSans-62"/>
     <use x="63.4765625" xlink:href="#DejaVuSans-32"/>
    </g>
   </g>
   <g id="text_57">
    <!-- b3 -->
    <g transform="translate(432.237200988 163.482809162)scale(0.1 -0.1)">
     <use xlink:href="#DejaVuSans-62"/>
     <use x="63.4765625" xlink:href="#DejaVuSans-33"/>
    </g>
   </g>
   <g id="text_58">
    <!-- b4 -->
    <g transform="translate(527.21364224 194.591696511)scale(0.1 -0.1)">
     <use xlink:href="#DejaVuSans-62"/>
     <use x="63.4765625" xlink:href="#DejaVuSans-34"/>
    </g>
   </g>
   <g id="text_59">
    <!-- b5 -->
    <g transform="translate(486.833734402 177.083959833)scale(0.1 -0.1)">
     <use xlink:href="#DejaVuSans-62"/>
     <use x="63.4765625" xlink:href="#DejaVuSans-35"/>
    </g>
   </g>
   <g id="text_60">
    <!-- b6 -->
    <g transform="translate(482.835504908 137.281121109)scale(0.1 -0.1)">
     <use xlink:href="#DejaVuSans-62"/>
     <use x="63.4765625" xlink:href="#DejaVuSans-36"/>
    </g>
   </g>
   <g id="text_61">
    <!-- Clusters -->
    <g transform="translate(410.892503706 219.816148715)scale(0.14 -0.14)">
     <use xlink:href="#DejaVuSans-43"/>
     <use x="69.82421875" xlink:href="#DejaVuSans-6c"/>
     <use x="97.607421875" xlink:href="#DejaVuSans-75"/>
     <use x="160.986328125" xlink:href="#DejaVuSans-73"/>
     <use x="213.0859375" xlink:href="#DejaVuSans-74"/>
     <use x="252.294921875" xlink:href="#DejaVuSans-65"/>
     <use x="313.818359375" xlink:href="#DejaVuSans-72"/>
     <use x="354.931640625" xlink:href="#DejaVuSans-73"/>
    </g>
   </g>
   <g id="text_62">
    <!-- Interactive group session 2 -->
    <defs>
     <path d="
M9.8125 72.9062
L19.6719 72.9062
L19.6719 0
L9.8125 0
z
" id="DejaVuSans-49"/>
     <path d="
M2.98438 54.6875
L12.5 54.6875
L29.5938 8.79688
L46.6875 54.6875
L56.2031 54.6875
L35.6875 0
L23.4844 0
z
" id="DejaVuSans-76"/>
    </defs>
    <g transform="translate(374.299943182 16.318125)scale(0.12 -0.12)">
     <use xlink:href="#DejaVuSans-49"/>
     <use x="29.4921875" xlink:href="#DejaVuSans-6e"/>
     <use x="92.87109375" xlink:href="#DejaVuSans-74"/>
     <use x="132.080078125" xlink:href="#DejaVuSans-65"/>
     <use x="193.603515625" xlink:href="#DejaVuSans-72"/>
     <use x="234.716796875" xlink:href="#DejaVuSans-61"/>
     <use x="295.99609375" xlink:href="#DejaVuSans-63"/>
     <use x="350.9765625" xlink:href="#DejaVuSans-74"/>
     <use x="390.185546875" xlink:href="#DejaVuSans-69"/>
     <use x="417.96875" xlink:href="#DejaVuSans-76"/>
     <use x="477.1484375" xlink:href="#DejaVuSans-65"/>
     <use x="538.671875" xlink:href="#DejaVuSans-20"/>
     <use x="570.458984375" xlink:href="#DejaVuSans-67"/>
     <use x="633.935546875" xlink:href="#DejaVuSans-72"/>
     <use x="672.798828125" xlink:href="#DejaVuSans-6f"/>
     <use x="733.98046875" xlink:href="#DejaVuSans-75"/>
     <use x="797.359375" xlink:href="#DejaVuSans-70"/>
     <use x="860.8359375" xlink:href="#DejaVuSans-20"/>
     <use x="892.623046875" xlink:href="#DejaVuSans-73"/>
     <use x="944.72265625" xlink:href="#DejaVuSans-65"/>
     <use x="1006.24609375" xlink:href="#DejaVuSans-73"/>
     <use x="1058.345703125" xlink:href="#DejaVuSans-73"/>
     <use x="1110.4453125" xlink:href="#DejaVuSans-69"/>
     <use x="1138.228515625" xlink:href="#DejaVuSans-6f"/>
     <use x="1199.41015625" xlink:href="#DejaVuSans-6e"/>
     <use x="1262.7890625" xlink:href="#DejaVuSans-20"/>
     <use x="1294.576171875" xlink:href="#DejaVuSans-32"/>
    </g>
   </g>
   <g id="legend_2">
    <g id="patch_24">
     <path d="
M466.521 66.1456
L576.009 66.1456
L576.009 27.3181
L466.521 27.3181
L466.521 66.1456
z
" style="fill:#ffffff;stroke:#000000;"/>
    </g>
    <g id="patch_25">
     <path d="
M471.321 41.2362
L495.321 41.2362
L495.321 32.8362
L471.321 32.8362
z
" style="fill:#ff0000;fill-opacity:0.5;stroke:#ff0000;stroke-opacity:0.5;"/>
    </g>
    <g id="text_63">
     <!-- bench area -->
     <g transform="translate(504.920625 41.23625)scale(0.12 -0.12)">
      <use xlink:href="#DejaVuSans-62"/>
      <use x="63.4765625" xlink:href="#DejaVuSans-65"/>
      <use x="125.0" xlink:href="#DejaVuSans-6e"/>
      <use x="188.37890625" xlink:href="#DejaVuSans-63"/>
      <use x="243.359375" xlink:href="#DejaVuSans-68"/>
      <use x="306.73828125" xlink:href="#DejaVuSans-20"/>
      <use x="338.525390625" xlink:href="#DejaVuSans-61"/>
      <use x="399.8046875" xlink:href="#DejaVuSans-72"/>
      <use x="438.66796875" xlink:href="#DejaVuSans-65"/>
      <use x="500.19140625" xlink:href="#DejaVuSans-61"/>
     </g>
    </g>
    <g id="PathCollection_6">
     <defs>
      <path d="
M0 8.66025
C2.29673 8.66025 4.49969 7.74776 6.12372 6.12372
C7.74776 4.49969 8.66025 2.29673 8.66025 0
C8.66025 -2.29673 7.74776 -4.49969 6.12372 -6.12372
C4.49969 -7.74776 2.29673 -8.66025 0 -8.66025
C-2.29673 -8.66025 -4.49969 -7.74776 -6.12372 -6.12372
C-7.74776 -4.49969 -8.66025 -2.29673 -8.66025 0
C-8.66025 2.29673 -7.74776 4.49969 -6.12372 6.12372
C-4.49969 7.74776 -2.29673 8.66025 0 8.66025
z
" id="C5_0_2aea4494f3"/>
      <path d="
M0 8.66025
C2.29673 8.66025 4.49969 7.74776 6.12372 6.12372
C7.74776 4.49969 8.66025 2.29673 8.66025 0
C8.66025 -2.29673 7.74776 -4.49969 6.12372 -6.12372
C4.49969 -7.74776 2.29673 -8.66025 0 -8.66025
C-2.29673 -8.66025 -4.49969 -7.74776 -6.12372 -6.12372
C-7.74776 -4.49969 -8.66025 -2.29673 -8.66025 0
C-8.66025 2.29673 -7.74776 4.49969 -6.12372 6.12372
C-4.49969 7.74776 -2.29673 8.66025 0 8.66025
z
" id="C5_1_2aea4494f3"/>
      <path d="
M0 8.66025
C2.29673 8.66025 4.49969 7.74776 6.12372 6.12372
C7.74776 4.49969 8.66025 2.29673 8.66025 0
C8.66025 -2.29673 7.74776 -4.49969 6.12372 -6.12372
C4.49969 -7.74776 2.29673 -8.66025 0 -8.66025
C-2.29673 -8.66025 -4.49969 -7.74776 -6.12372 -6.12372
C-7.74776 -4.49969 -8.66025 -2.29673 -8.66025 0
C-8.66025 2.29673 -7.74776 4.49969 -6.12372 6.12372
C-4.49969 7.74776 -2.29673 8.66025 0 8.66025
z
" id="C5_2_2aea4494f3"/>
     </defs>
     <use style="fill:#008000;fill-opacity:0.5;stroke:#008000;stroke-opacity:0.5;" x="474.920625" xlink:href="#C5_0_2aea4494f3" y="55.7"/>
     <use style="fill:#008000;fill-opacity:0.5;stroke:#008000;stroke-opacity:0.5;" x="483.320625" xlink:href="#C5_1_2aea4494f3" y="54.65"/>
     <use style="fill:#008000;fill-opacity:0.5;stroke:#008000;stroke-opacity:0.5;" x="491.720625" xlink:href="#C5_2_2aea4494f3" y="56.225"/>
    </g>
    <g id="text_64">
     <!-- beacons -->
     <g transform="translate(504.920625 58.85)scale(0.12 -0.12)">
      <use xlink:href="#DejaVuSans-62"/>
      <use x="63.4765625" xlink:href="#DejaVuSans-65"/>
      <use x="125.0" xlink:href="#DejaVuSans-61"/>
      <use x="186.279296875" xlink:href="#DejaVuSans-63"/>
      <use x="241.259765625" xlink:href="#DejaVuSans-6f"/>
      <use x="302.44140625" xlink:href="#DejaVuSans-6e"/>
      <use x="365.8203125" xlink:href="#DejaVuSans-73"/>
     </g>
    </g>
   </g>
  </g>
 </g>
 <defs>
  <clipPath id="pc9ec208b2e">
   <rect height="253.636363636" width="253.636363636" x="328.373011364" y="21.318125"/>
  </clipPath>
  <clipPath id="p596da3d001">
   <rect height="253.636363636" width="253.636363636" x="24.009375" y="21.318125"/>
  </clipPath>
 </defs>
</svg>
