<?xml version="1.0" encoding="utf-8" standalone="no"?>
<!DOCTYPE svg PUBLIC "-//W3C//DTD SVG 1.1//EN"
  "http://www.w3.org/Graphics/SVG/1.1/DTD/svg11.dtd">
<!-- Created with matplotlib (http://matplotlib.org/) -->
<svg height="265pt" version="1.1" viewBox="0 0 596 265" width="596pt" xmlns="http://www.w3.org/2000/svg" xmlns:xlink="http://www.w3.org/1999/xlink">
 <defs>
  <style type="text/css">
*{stroke-linecap:butt;stroke-linejoin:round;}
  </style>
 </defs>
 <g id="figure_1">
  <g id="patch_1">
   <path d="
M0 265.396
L596.391 265.396
L596.391 0
L0 0
z
" style="fill:#ffffff;"/>
  </g>
  <g id="axes_1">
   <g id="patch_2">
    <path d="
M31.1906 244.518
L284.827 244.518
L284.827 21.3181
L31.1906 21.3181
L31.1906 244.518" style="fill:none;"/>
   </g>
   <g id="patch_3">
    <path clip-path="url(#pb5536c19c9)" d="
M39.6452 244.518
L73.4634 244.518
L73.4634 102.482
L39.6452 102.482
z
" style="fill:#0000ff;stroke:#000000;stroke-linejoin:miter;"/>
   </g>
   <g id="patch_4">
    <path clip-path="url(#pb5536c19c9)" d="
M124.191 244.518
L158.009 244.518
L158.009 122.773
L124.191 122.773
z
" style="fill:#0000ff;stroke:#000000;stroke-linejoin:miter;"/>
   </g>
   <g id="patch_5">
    <path clip-path="url(#pb5536c19c9)" d="
M208.736 244.518
L242.554 244.518
L242.554 130.889
L208.736 130.889
z
" style="fill:#0000ff;stroke:#000000;stroke-linejoin:miter;"/>
   </g>
   <g id="patch_6">
    <path clip-path="url(#pb5536c19c9)" d="
M73.4634 244.518
L107.282 244.518
L107.282 121.758
L73.4634 121.758
z
" style="fill:#ffff00;stroke:#000000;stroke-linejoin:miter;"/>
   </g>
   <g id="patch_7">
    <path clip-path="url(#pb5536c19c9)" d="
M158.009 244.518
L191.827 244.518
L191.827 121.758
L158.009 121.758
z
" style="fill:#ffff00;stroke:#000000;stroke-linejoin:miter;"/>
   </g>
   <g id="patch_8">
    <path clip-path="url(#pb5536c19c9)" d="
M242.554 244.518
L276.372 244.518
L276.372 125.478
L242.554 125.478
z
" style="fill:#ffff00;stroke:#000000;stroke-linejoin:miter;"/>
   </g>
   <g id="LineCollection_1">
    <path clip-path="url(#pb5536c19c9)" d="
M56.5543 116.325
L56.5543 88.6384" style="fill:none;stroke:#000000;"/>
    <path clip-path="url(#pb5536c19c9)" d="
M141.1 135.722
L141.1 109.823" style="fill:none;stroke:#000000;"/>
    <path clip-path="url(#pb5536c19c9)" d="
M225.645 146.463
L225.645 115.315" style="fill:none;stroke:#000000;"/>
   </g>
   <g id="LineCollection_2">
    <path clip-path="url(#pb5536c19c9)" d="
M90.3724 129.427
L90.3724 114.089" style="fill:none;stroke:#000000;"/>
    <path clip-path="url(#pb5536c19c9)" d="
M174.918 134.778
L174.918 108.738" style="fill:none;stroke:#000000;"/>
    <path clip-path="url(#pb5536c19c9)" d="
M259.463 142.389
L259.463 108.567" style="fill:none;stroke:#000000;"/>
   </g>
   <g id="line2d_1">
    <defs>
     <path d="
M3 1.83697e-16
L-3 -1.83697e-16" id="mcf9903d1bd" style="stroke:#000000;stroke-width:0.5;"/>
    </defs>
    <g clip-path="url(#pb5536c19c9)">
     <use style="stroke:#000000;stroke-width:0.5;" x="56.5542613636" xlink:href="#mcf9903d1bd" y="116.325077695"/>
     <use style="stroke:#000000;stroke-width:0.5;" x="141.099715909" xlink:href="#mcf9903d1bd" y="135.721907157"/>
     <use style="stroke:#000000;stroke-width:0.5;" x="225.645170455" xlink:href="#mcf9903d1bd" y="146.462764964"/>
    </g>
   </g>
   <g id="line2d_2">
    <g clip-path="url(#pb5536c19c9)">
     <use style="stroke:#000000;stroke-width:0.5;" x="56.5542613636" xlink:href="#mcf9903d1bd" y="88.6384450318"/>
     <use style="stroke:#000000;stroke-width:0.5;" x="141.099715909" xlink:href="#mcf9903d1bd" y="109.823433752"/>
     <use style="stroke:#000000;stroke-width:0.5;" x="225.645170455" xlink:href="#mcf9903d1bd" y="115.315303218"/>
    </g>
   </g>
   <g id="line2d_3">
    <g clip-path="url(#pb5536c19c9)">
     <use style="stroke:#000000;stroke-width:0.5;" x="90.3724431818" xlink:href="#mcf9903d1bd" y="129.427101464"/>
     <use style="stroke:#000000;stroke-width:0.5;" x="174.917897727" xlink:href="#mcf9903d1bd" y="134.778125"/>
     <use style="stroke:#000000;stroke-width:0.5;" x="259.463352273" xlink:href="#mcf9903d1bd" y="142.389470304"/>
    </g>
   </g>
   <g id="line2d_4">
    <g clip-path="url(#pb5536c19c9)">
     <use style="stroke:#000000;stroke-width:0.5;" x="90.3724431818" xlink:href="#mcf9903d1bd" y="114.089148536"/>
     <use style="stroke:#000000;stroke-width:0.5;" x="174.917897727" xlink:href="#mcf9903d1bd" y="108.738125"/>
     <use style="stroke:#000000;stroke-width:0.5;" x="259.463352273" xlink:href="#mcf9903d1bd" y="108.566779696"/>
    </g>
   </g>
   <g id="patch_9">
    <path d="
M31.1906 21.3181
L284.827 21.3181" style="fill:none;stroke:#000000;stroke-linecap:square;stroke-linejoin:miter;"/>
   </g>
   <g id="patch_10">
    <path d="
M31.1906 244.518
L31.1906 21.3181" style="fill:none;stroke:#000000;stroke-linecap:square;stroke-linejoin:miter;"/>
   </g>
   <g id="patch_11">
    <path d="
M284.827 244.518
L284.827 21.3181" style="fill:none;stroke:#000000;stroke-linecap:square;stroke-linejoin:miter;"/>
   </g>
   <g id="patch_12">
    <path d="
M31.1906 244.518
L284.827 244.518" style="fill:none;stroke:#000000;stroke-linecap:square;stroke-linejoin:miter;"/>
   </g>
   <g id="matplotlib.axis_1">
    <g id="xtick_1">
     <g id="line2d_5">
      <defs>
       <path d="
M0 0
L0 -4" id="mc7db9fdffb" style="stroke:#000000;stroke-width:0.5;"/>
      </defs>
      <g>
       <use style="stroke:#000000;stroke-width:0.5;" x="73.4633522727" xlink:href="#mc7db9fdffb" y="244.518125"/>
      </g>
     </g>
     <g id="line2d_6">
      <defs>
       <path d="
M0 0
L0 4" id="m5a7d422ac3" style="stroke:#000000;stroke-width:0.5;"/>
      </defs>
      <g>
       <use style="stroke:#000000;stroke-width:0.5;" x="73.4633522727" xlink:href="#m5a7d422ac3" y="21.318125"/>
      </g>
     </g>
     <g id="text_1">
      <!-- Session 1 -->
      <defs>
       <path d="
M56.2031 29.5938
L56.2031 25.2031
L14.8906 25.2031
Q15.4844 15.9219 20.4844 11.0625
Q25.4844 6.20312 34.4219 6.20312
Q39.5938 6.20312 44.4531 7.46875
Q49.3125 8.73438 54.1094 11.2812
L54.1094 2.78125
Q49.2656 0.734375 44.1875 -0.34375
Q39.1094 -1.42188 33.8906 -1.42188
Q20.7969 -1.42188 13.1562 6.1875
Q5.51562 13.8125 5.51562 26.8125
Q5.51562 40.2344 12.7656 48.1094
Q20.0156 56 32.3281 56
Q43.3594 56 49.7812 48.8906
Q56.2031 41.7969 56.2031 29.5938
M47.2188 32.2344
Q47.125 39.5938 43.0938 43.9844
Q39.0625 48.3906 32.4219 48.3906
Q24.9062 48.3906 20.3906 44.1406
Q15.875 39.8906 15.1875 32.1719
z
" id="BitstreamVeraSans-Roman-65"/>
       <path d="
M12.4062 8.29688
L28.5156 8.29688
L28.5156 63.9219
L10.9844 60.4062
L10.9844 69.3906
L28.4219 72.9062
L38.2812 72.9062
L38.2812 8.29688
L54.3906 8.29688
L54.3906 0
L12.4062 0
z
" id="BitstreamVeraSans-Roman-31"/>
       <path d="
M54.8906 33.0156
L54.8906 0
L45.9062 0
L45.9062 32.7188
Q45.9062 40.4844 42.875 44.3281
Q39.8438 48.1875 33.7969 48.1875
Q26.5156 48.1875 22.3125 43.5469
Q18.1094 38.9219 18.1094 30.9062
L18.1094 0
L9.07812 0
L9.07812 54.6875
L18.1094 54.6875
L18.1094 46.1875
Q21.3438 51.125 25.7031 53.5625
Q30.0781 56 35.7969 56
Q45.2188 56 50.0469 50.1719
Q54.8906 44.3438 54.8906 33.0156" id="BitstreamVeraSans-Roman-6e"/>
       <path d="
M53.5156 70.5156
L53.5156 60.8906
Q47.9062 63.5781 42.9219 64.8906
Q37.9375 66.2188 33.2969 66.2188
Q25.25 66.2188 20.875 63.0938
Q16.5 59.9688 16.5 54.2031
Q16.5 49.3594 19.4062 46.8906
Q22.3125 44.4375 30.4219 42.9219
L36.375 41.7031
Q47.4062 39.5938 52.6562 34.2969
Q57.9062 29 57.9062 20.125
Q57.9062 9.51562 50.7969 4.04688
Q43.7031 -1.42188 29.9844 -1.42188
Q24.8125 -1.42188 18.9688 -0.25
Q13.1406 0.921875 6.89062 3.21875
L6.89062 13.375
Q12.8906 10.0156 18.6562 8.29688
Q24.4219 6.59375 29.9844 6.59375
Q38.4219 6.59375 43.0156 9.90625
Q47.6094 13.2344 47.6094 19.3906
Q47.6094 24.75 44.3125 27.7812
Q41.0156 30.8125 33.5 32.3281
L27.4844 33.5
Q16.4531 35.6875 11.5156 40.375
Q6.59375 45.0625 6.59375 53.4219
Q6.59375 63.0938 13.4062 68.6562
Q20.2188 74.2188 32.1719 74.2188
Q37.3125 74.2188 42.625 73.2812
Q47.9531 72.3594 53.5156 70.5156" id="BitstreamVeraSans-Roman-53"/>
       <path id="BitstreamVeraSans-Roman-20"/>
       <path d="
M30.6094 48.3906
Q23.3906 48.3906 19.1875 42.75
Q14.9844 37.1094 14.9844 27.2969
Q14.9844 17.4844 19.1562 11.8438
Q23.3438 6.20312 30.6094 6.20312
Q37.7969 6.20312 41.9844 11.8594
Q46.1875 17.5312 46.1875 27.2969
Q46.1875 37.0156 41.9844 42.7031
Q37.7969 48.3906 30.6094 48.3906
M30.6094 56
Q42.3281 56 49.0156 48.375
Q55.7188 40.7656 55.7188 27.2969
Q55.7188 13.875 49.0156 6.21875
Q42.3281 -1.42188 30.6094 -1.42188
Q18.8438 -1.42188 12.1719 6.21875
Q5.51562 13.875 5.51562 27.2969
Q5.51562 40.7656 12.1719 48.375
Q18.8438 56 30.6094 56" id="BitstreamVeraSans-Roman-6f"/>
       <path d="
M9.42188 54.6875
L18.4062 54.6875
L18.4062 0
L9.42188 0
z

M9.42188 75.9844
L18.4062 75.9844
L18.4062 64.5938
L9.42188 64.5938
z
" id="BitstreamVeraSans-Roman-69"/>
       <path d="
M44.2812 53.0781
L44.2812 44.5781
Q40.4844 46.5312 36.375 47.5
Q32.2812 48.4844 27.875 48.4844
Q21.1875 48.4844 17.8438 46.4375
Q14.5 44.3906 14.5 40.2812
Q14.5 37.1562 16.8906 35.375
Q19.2812 33.5938 26.5156 31.9844
L29.5938 31.2969
Q39.1562 29.25 43.1875 25.5156
Q47.2188 21.7812 47.2188 15.0938
Q47.2188 7.46875 41.1875 3.01562
Q35.1562 -1.42188 24.6094 -1.42188
Q20.2188 -1.42188 15.4531 -0.5625
Q10.6875 0.296875 5.42188 2
L5.42188 11.2812
Q10.4062 8.6875 15.2344 7.39062
Q20.0625 6.10938 24.8125 6.10938
Q31.1562 6.10938 34.5625 8.28125
Q37.9844 10.4531 37.9844 14.4062
Q37.9844 18.0625 35.5156 20.0156
Q33.0625 21.9688 24.7031 23.7812
L21.5781 24.5156
Q13.2344 26.2656 9.51562 29.9062
Q5.8125 33.5469 5.8125 39.8906
Q5.8125 47.6094 11.2812 51.7969
Q16.75 56 26.8125 56
Q31.7812 56 36.1719 55.2656
Q40.5781 54.5469 44.2812 53.0781" id="BitstreamVeraSans-Roman-73"/>
      </defs>
      <g transform="translate(50.0774147727 256.1165625)scale(0.1 -0.1)">
       <use xlink:href="#BitstreamVeraSans-Roman-53"/>
       <use x="63.4765625" xlink:href="#BitstreamVeraSans-Roman-65"/>
       <use x="125.0" xlink:href="#BitstreamVeraSans-Roman-73"/>
       <use x="177.099609375" xlink:href="#BitstreamVeraSans-Roman-73"/>
       <use x="229.19921875" xlink:href="#BitstreamVeraSans-Roman-69"/>
       <use x="256.982421875" xlink:href="#BitstreamVeraSans-Roman-6f"/>
       <use x="318.1640625" xlink:href="#BitstreamVeraSans-Roman-6e"/>
       <use x="381.54296875" xlink:href="#BitstreamVeraSans-Roman-20"/>
       <use x="413.330078125" xlink:href="#BitstreamVeraSans-Roman-31"/>
      </g>
     </g>
    </g>
    <g id="xtick_2">
     <g id="line2d_7">
      <g>
       <use style="stroke:#000000;stroke-width:0.5;" x="158.008806818" xlink:href="#mc7db9fdffb" y="244.518125"/>
      </g>
     </g>
     <g id="line2d_8">
      <g>
       <use style="stroke:#000000;stroke-width:0.5;" x="158.008806818" xlink:href="#m5a7d422ac3" y="21.318125"/>
      </g>
     </g>
     <g id="text_2">
      <!-- Session 2 -->
      <defs>
       <path d="
M19.1875 8.29688
L53.6094 8.29688
L53.6094 0
L7.32812 0
L7.32812 8.29688
Q12.9375 14.1094 22.625 23.8906
Q32.3281 33.6875 34.8125 36.5312
Q39.5469 41.8438 41.4219 45.5312
Q43.3125 49.2188 43.3125 52.7812
Q43.3125 58.5938 39.2344 62.25
Q35.1562 65.9219 28.6094 65.9219
Q23.9688 65.9219 18.8125 64.3125
Q13.6719 62.7031 7.8125 59.4219
L7.8125 69.3906
Q13.7656 71.7812 18.9375 73
Q24.125 74.2188 28.4219 74.2188
Q39.75 74.2188 46.4844 68.5469
Q53.2188 62.8906 53.2188 53.4219
Q53.2188 48.9219 51.5312 44.8906
Q49.8594 40.875 45.4062 35.4062
Q44.1875 33.9844 37.6406 27.2188
Q31.1094 20.4531 19.1875 8.29688" id="BitstreamVeraSans-Roman-32"/>
      </defs>
      <g transform="translate(134.661931818 256.1165625)scale(0.1 -0.1)">
       <use xlink:href="#BitstreamVeraSans-Roman-53"/>
       <use x="63.4765625" xlink:href="#BitstreamVeraSans-Roman-65"/>
       <use x="125.0" xlink:href="#BitstreamVeraSans-Roman-73"/>
       <use x="177.099609375" xlink:href="#BitstreamVeraSans-Roman-73"/>
       <use x="229.19921875" xlink:href="#BitstreamVeraSans-Roman-69"/>
       <use x="256.982421875" xlink:href="#BitstreamVeraSans-Roman-6f"/>
       <use x="318.1640625" xlink:href="#BitstreamVeraSans-Roman-6e"/>
       <use x="381.54296875" xlink:href="#BitstreamVeraSans-Roman-20"/>
       <use x="413.330078125" xlink:href="#BitstreamVeraSans-Roman-32"/>
      </g>
     </g>
    </g>
    <g id="xtick_3">
     <g id="line2d_9">
      <g>
       <use style="stroke:#000000;stroke-width:0.5;" x="242.554261364" xlink:href="#mc7db9fdffb" y="244.518125"/>
      </g>
     </g>
     <g id="line2d_10">
      <g>
       <use style="stroke:#000000;stroke-width:0.5;" x="242.554261364" xlink:href="#m5a7d422ac3" y="21.318125"/>
      </g>
     </g>
     <g id="text_3">
      <!-- Session 3 -->
      <defs>
       <path d="
M40.5781 39.3125
Q47.6562 37.7969 51.625 33
Q55.6094 28.2188 55.6094 21.1875
Q55.6094 10.4062 48.1875 4.48438
Q40.7656 -1.42188 27.0938 -1.42188
Q22.5156 -1.42188 17.6562 -0.515625
Q12.7969 0.390625 7.625 2.20312
L7.625 11.7188
Q11.7188 9.32812 16.5938 8.10938
Q21.4844 6.89062 26.8125 6.89062
Q36.0781 6.89062 40.9375 10.5469
Q45.7969 14.2031 45.7969 21.1875
Q45.7969 27.6406 41.2812 31.2656
Q36.7656 34.9062 28.7188 34.9062
L20.2188 34.9062
L20.2188 43.0156
L29.1094 43.0156
Q36.375 43.0156 40.2344 45.9219
Q44.0938 48.8281 44.0938 54.2969
Q44.0938 59.9062 40.1094 62.9062
Q36.1406 65.9219 28.7188 65.9219
Q24.6562 65.9219 20.0156 65.0312
Q15.375 64.1562 9.8125 62.3125
L9.8125 71.0938
Q15.4375 72.6562 20.3438 73.4375
Q25.25 74.2188 29.5938 74.2188
Q40.8281 74.2188 47.3594 69.1094
Q53.9062 64.0156 53.9062 55.3281
Q53.9062 49.2656 50.4375 45.0938
Q46.9688 40.9219 40.5781 39.3125" id="BitstreamVeraSans-Roman-33"/>
      </defs>
      <g transform="translate(219.107386364 256.1165625)scale(0.1 -0.1)">
       <use xlink:href="#BitstreamVeraSans-Roman-53"/>
       <use x="63.4765625" xlink:href="#BitstreamVeraSans-Roman-65"/>
       <use x="125.0" xlink:href="#BitstreamVeraSans-Roman-73"/>
       <use x="177.099609375" xlink:href="#BitstreamVeraSans-Roman-73"/>
       <use x="229.19921875" xlink:href="#BitstreamVeraSans-Roman-69"/>
       <use x="256.982421875" xlink:href="#BitstreamVeraSans-Roman-6f"/>
       <use x="318.1640625" xlink:href="#BitstreamVeraSans-Roman-6e"/>
       <use x="381.54296875" xlink:href="#BitstreamVeraSans-Roman-20"/>
       <use x="413.330078125" xlink:href="#BitstreamVeraSans-Roman-33"/>
      </g>
     </g>
    </g>
   </g>
   <g id="matplotlib.axis_2">
    <g id="ytick_1">
     <g id="line2d_11">
      <path clip-path="url(#pb5536c19c9)" d="
M31.1906 244.518
L284.827 244.518" style="fill:none;stroke:#000000;stroke-dasharray:1.000000,3.000000;stroke-dashoffset:0.0;stroke-width:0.5;"/>
     </g>
     <g id="line2d_12">
      <defs>
       <path d="
M0 0
L4 0" id="md7965d1ba0" style="stroke:#000000;stroke-width:0.5;"/>
      </defs>
      <g>
       <use style="stroke:#000000;stroke-width:0.5;" x="31.190625" xlink:href="#md7965d1ba0" y="244.518125"/>
      </g>
     </g>
     <g id="line2d_13">
      <defs>
       <path d="
M0 0
L-4 0" id="md9a1c1a7cd" style="stroke:#000000;stroke-width:0.5;"/>
      </defs>
      <g>
       <use style="stroke:#000000;stroke-width:0.5;" x="284.826988636" xlink:href="#md9a1c1a7cd" y="244.518125"/>
      </g>
     </g>
     <g id="text_4">
      <!-- 0 -->
      <defs>
       <path d="
M31.7812 66.4062
Q24.1719 66.4062 20.3281 58.9062
Q16.5 51.4219 16.5 36.375
Q16.5 21.3906 20.3281 13.8906
Q24.1719 6.39062 31.7812 6.39062
Q39.4531 6.39062 43.2812 13.8906
Q47.125 21.3906 47.125 36.375
Q47.125 51.4219 43.2812 58.9062
Q39.4531 66.4062 31.7812 66.4062
M31.7812 74.2188
Q44.0469 74.2188 50.5156 64.5156
Q56.9844 54.8281 56.9844 36.375
Q56.9844 17.9688 50.5156 8.26562
Q44.0469 -1.42188 31.7812 -1.42188
Q19.5312 -1.42188 13.0625 8.26562
Q6.59375 17.9688 6.59375 36.375
Q6.59375 54.8281 13.0625 64.5156
Q19.5312 74.2188 31.7812 74.2188" id="BitstreamVeraSans-Roman-30"/>
      </defs>
      <g transform="translate(22.1515625 247.2775)scale(0.1 -0.1)">
       <use xlink:href="#BitstreamVeraSans-Roman-30"/>
      </g>
     </g>
    </g>
    <g id="ytick_2">
     <g id="line2d_14">
      <path clip-path="url(#pb5536c19c9)" d="
M31.1906 199.878
L284.827 199.878" style="fill:none;stroke:#000000;stroke-dasharray:1.000000,3.000000;stroke-dashoffset:0.0;stroke-width:0.5;"/>
     </g>
     <g id="line2d_15">
      <g>
       <use style="stroke:#000000;stroke-width:0.5;" x="31.190625" xlink:href="#md7965d1ba0" y="199.878125"/>
      </g>
     </g>
     <g id="line2d_16">
      <g>
       <use style="stroke:#000000;stroke-width:0.5;" x="284.826988636" xlink:href="#md9a1c1a7cd" y="199.878125"/>
      </g>
     </g>
     <g id="text_5">
      <!-- 1 -->
      <g transform="translate(22.85 202.6375)scale(0.1 -0.1)">
       <use xlink:href="#BitstreamVeraSans-Roman-31"/>
      </g>
     </g>
    </g>
    <g id="ytick_3">
     <g id="line2d_17">
      <path clip-path="url(#pb5536c19c9)" d="
M31.1906 155.238
L284.827 155.238" style="fill:none;stroke:#000000;stroke-dasharray:1.000000,3.000000;stroke-dashoffset:0.0;stroke-width:0.5;"/>
     </g>
     <g id="line2d_18">
      <g>
       <use style="stroke:#000000;stroke-width:0.5;" x="31.190625" xlink:href="#md7965d1ba0" y="155.238125"/>
      </g>
     </g>
     <g id="line2d_19">
      <g>
       <use style="stroke:#000000;stroke-width:0.5;" x="284.826988636" xlink:href="#md9a1c1a7cd" y="155.238125"/>
      </g>
     </g>
     <g id="text_6">
      <!-- 2 -->
      <g transform="translate(22.5625 157.9975)scale(0.1 -0.1)">
       <use xlink:href="#BitstreamVeraSans-Roman-32"/>
      </g>
     </g>
    </g>
    <g id="ytick_4">
     <g id="line2d_20">
      <path clip-path="url(#pb5536c19c9)" d="
M31.1906 110.598
L284.827 110.598" style="fill:none;stroke:#000000;stroke-dasharray:1.000000,3.000000;stroke-dashoffset:0.0;stroke-width:0.5;"/>
     </g>
     <g id="line2d_21">
      <g>
       <use style="stroke:#000000;stroke-width:0.5;" x="31.190625" xlink:href="#md7965d1ba0" y="110.598125"/>
      </g>
     </g>
     <g id="line2d_22">
      <g>
       <use style="stroke:#000000;stroke-width:0.5;" x="284.826988636" xlink:href="#md9a1c1a7cd" y="110.598125"/>
      </g>
     </g>
     <g id="text_7">
      <!-- 3 -->
      <g transform="translate(22.3921875 113.3575)scale(0.1 -0.1)">
       <use xlink:href="#BitstreamVeraSans-Roman-33"/>
      </g>
     </g>
    </g>
    <g id="ytick_5">
     <g id="line2d_23">
      <path clip-path="url(#pb5536c19c9)" d="
M31.1906 65.9581
L284.827 65.9581" style="fill:none;stroke:#000000;stroke-dasharray:1.000000,3.000000;stroke-dashoffset:0.0;stroke-width:0.5;"/>
     </g>
     <g id="line2d_24">
      <g>
       <use style="stroke:#000000;stroke-width:0.5;" x="31.190625" xlink:href="#md7965d1ba0" y="65.958125"/>
      </g>
     </g>
     <g id="line2d_25">
      <g>
       <use style="stroke:#000000;stroke-width:0.5;" x="284.826988636" xlink:href="#md9a1c1a7cd" y="65.958125"/>
      </g>
     </g>
     <g id="text_8">
      <!-- 4 -->
      <defs>
       <path d="
M37.7969 64.3125
L12.8906 25.3906
L37.7969 25.3906
z

M35.2031 72.9062
L47.6094 72.9062
L47.6094 25.3906
L58.0156 25.3906
L58.0156 17.1875
L47.6094 17.1875
L47.6094 0
L37.7969 0
L37.7969 17.1875
L4.89062 17.1875
L4.89062 26.7031
z
" id="BitstreamVeraSans-Roman-34"/>
      </defs>
      <g transform="translate(21.878125 68.7175)scale(0.1 -0.1)">
       <use xlink:href="#BitstreamVeraSans-Roman-34"/>
      </g>
     </g>
    </g>
    <g id="ytick_6">
     <g id="line2d_26">
      <path clip-path="url(#pb5536c19c9)" d="
M31.1906 21.3181
L284.827 21.3181" style="fill:none;stroke:#000000;stroke-dasharray:1.000000,3.000000;stroke-dashoffset:0.0;stroke-width:0.5;"/>
     </g>
     <g id="line2d_27">
      <g>
       <use style="stroke:#000000;stroke-width:0.5;" x="31.190625" xlink:href="#md7965d1ba0" y="21.318125"/>
      </g>
     </g>
     <g id="line2d_28">
      <g>
       <use style="stroke:#000000;stroke-width:0.5;" x="284.826988636" xlink:href="#md9a1c1a7cd" y="21.318125"/>
      </g>
     </g>
     <g id="text_9">
      <!-- 5 -->
      <defs>
       <path d="
M10.7969 72.9062
L49.5156 72.9062
L49.5156 64.5938
L19.8281 64.5938
L19.8281 46.7344
Q21.9688 47.4688 24.1094 47.8281
Q26.2656 48.1875 28.4219 48.1875
Q40.625 48.1875 47.75 41.5
Q54.8906 34.8125 54.8906 23.3906
Q54.8906 11.625 47.5625 5.09375
Q40.2344 -1.42188 26.9062 -1.42188
Q22.3125 -1.42188 17.5469 -0.640625
Q12.7969 0.140625 7.71875 1.70312
L7.71875 11.625
Q12.1094 9.23438 16.7969 8.0625
Q21.4844 6.89062 26.7031 6.89062
Q35.1562 6.89062 40.0781 11.3281
Q45.0156 15.7656 45.0156 23.3906
Q45.0156 31 40.0781 35.4375
Q35.1562 39.8906 26.7031 39.8906
Q22.75 39.8906 18.8125 39.0156
Q14.8906 38.1406 10.7969 36.2812
z
" id="BitstreamVeraSans-Roman-35"/>
      </defs>
      <g transform="translate(22.4734375 24.0775)scale(0.1 -0.1)">
       <use xlink:href="#BitstreamVeraSans-Roman-35"/>
      </g>
     </g>
    </g>
    <g id="text_10">
     <!-- Score -->
     <defs>
      <path d="
M41.1094 46.2969
Q39.5938 47.1719 37.8125 47.5781
Q36.0312 48 33.8906 48
Q26.2656 48 22.1875 43.0469
Q18.1094 38.0938 18.1094 28.8125
L18.1094 0
L9.07812 0
L9.07812 54.6875
L18.1094 54.6875
L18.1094 46.1875
Q20.9531 51.1719 25.4844 53.5781
Q30.0312 56 36.5312 56
Q37.4531 56 38.5781 55.875
Q39.7031 55.7656 41.0625 55.5156
z
" id="BitstreamVeraSans-Roman-72"/>
      <path d="
M48.7812 52.5938
L48.7812 44.1875
Q44.9688 46.2969 41.1406 47.3438
Q37.3125 48.3906 33.4062 48.3906
Q24.6562 48.3906 19.8125 42.8438
Q14.9844 37.3125 14.9844 27.2969
Q14.9844 17.2812 19.8125 11.7344
Q24.6562 6.20312 33.4062 6.20312
Q37.3125 6.20312 41.1406 7.25
Q44.9688 8.29688 48.7812 10.4062
L48.7812 2.09375
Q45.0156 0.34375 40.9844 -0.53125
Q36.9688 -1.42188 32.4219 -1.42188
Q20.0625 -1.42188 12.7812 6.34375
Q5.51562 14.1094 5.51562 27.2969
Q5.51562 40.6719 12.8594 48.3281
Q20.2188 56 33.0156 56
Q37.1562 56 41.1094 55.1406
Q45.0625 54.2969 48.7812 52.5938" id="BitstreamVeraSans-Roman-63"/>
     </defs>
     <g transform="translate(14.7984375 146.324375)rotate(-90.0)scale(0.1 -0.1)">
      <use xlink:href="#BitstreamVeraSans-Roman-53"/>
      <use x="63.4765625" xlink:href="#BitstreamVeraSans-Roman-63"/>
      <use x="118.45703125" xlink:href="#BitstreamVeraSans-Roman-6f"/>
      <use x="179.638671875" xlink:href="#BitstreamVeraSans-Roman-72"/>
      <use x="218.501953125" xlink:href="#BitstreamVeraSans-Roman-65"/>
     </g>
    </g>
   </g>
   <g id="text_11">
    <!-- Statement 1 -->
    <defs>
     <path d="
M52 44.1875
Q55.375 50.25 60.0625 53.125
Q64.75 56 71.0938 56
Q79.6406 56 84.2812 50.0156
Q88.9219 44.0469 88.9219 33.0156
L88.9219 0
L79.8906 0
L79.8906 32.7188
Q79.8906 40.5781 77.0938 44.375
Q74.3125 48.1875 68.6094 48.1875
Q61.625 48.1875 57.5625 43.5469
Q53.5156 38.9219 53.5156 30.9062
L53.5156 0
L44.4844 0
L44.4844 32.7188
Q44.4844 40.625 41.7031 44.4062
Q38.9219 48.1875 33.1094 48.1875
Q26.2188 48.1875 22.1562 43.5312
Q18.1094 38.875 18.1094 30.9062
L18.1094 0
L9.07812 0
L9.07812 54.6875
L18.1094 54.6875
L18.1094 46.1875
Q21.1875 51.2188 25.4844 53.6094
Q29.7812 56 35.6875 56
Q41.6562 56 45.8281 52.9688
Q50 49.9531 52 44.1875" id="BitstreamVeraSans-Roman-6d"/>
     <path d="
M18.3125 70.2188
L18.3125 54.6875
L36.8125 54.6875
L36.8125 47.7031
L18.3125 47.7031
L18.3125 18.0156
Q18.3125 11.3281 20.1406 9.42188
Q21.9688 7.51562 27.5938 7.51562
L36.8125 7.51562
L36.8125 0
L27.5938 0
Q17.1875 0 13.2344 3.875
Q9.28125 7.76562 9.28125 18.0156
L9.28125 47.7031
L2.6875 47.7031
L2.6875 54.6875
L9.28125 54.6875
L9.28125 70.2188
z
" id="BitstreamVeraSans-Roman-74"/>
     <path d="
M34.2812 27.4844
Q23.3906 27.4844 19.1875 25
Q14.9844 22.5156 14.9844 16.5
Q14.9844 11.7188 18.1406 8.90625
Q21.2969 6.10938 26.7031 6.10938
Q34.1875 6.10938 38.7031 11.4062
Q43.2188 16.7031 43.2188 25.4844
L43.2188 27.4844
z

M52.2031 31.2031
L52.2031 0
L43.2188 0
L43.2188 8.29688
Q40.1406 3.32812 35.5469 0.953125
Q30.9531 -1.42188 24.3125 -1.42188
Q15.9219 -1.42188 10.9531 3.29688
Q6 8.01562 6 15.9219
Q6 25.1406 12.1719 29.8281
Q18.3594 34.5156 30.6094 34.5156
L43.2188 34.5156
L43.2188 35.4062
Q43.2188 41.6094 39.1406 45
Q35.0625 48.3906 27.6875 48.3906
Q23 48.3906 18.5469 47.2656
Q14.1094 46.1406 10.0156 43.8906
L10.0156 52.2031
Q14.9375 54.1094 19.5781 55.0469
Q24.2188 56 28.6094 56
Q40.4844 56 46.3438 49.8438
Q52.2031 43.7031 52.2031 31.2031" id="BitstreamVeraSans-Roman-61"/>
    </defs>
    <g transform="translate(121.265369318 16.318125)scale(0.12 -0.12)">
     <use xlink:href="#BitstreamVeraSans-Roman-53"/>
     <use x="63.4765625" xlink:href="#BitstreamVeraSans-Roman-74"/>
     <use x="102.685546875" xlink:href="#BitstreamVeraSans-Roman-61"/>
     <use x="163.96484375" xlink:href="#BitstreamVeraSans-Roman-74"/>
     <use x="203.173828125" xlink:href="#BitstreamVeraSans-Roman-65"/>
     <use x="264.697265625" xlink:href="#BitstreamVeraSans-Roman-6d"/>
     <use x="362.109375" xlink:href="#BitstreamVeraSans-Roman-65"/>
     <use x="423.6328125" xlink:href="#BitstreamVeraSans-Roman-6e"/>
     <use x="487.01171875" xlink:href="#BitstreamVeraSans-Roman-74"/>
     <use x="526.220703125" xlink:href="#BitstreamVeraSans-Roman-20"/>
     <use x="558.0078125" xlink:href="#BitstreamVeraSans-Roman-31"/>
    </g>
   </g>
   <g id="legend_1">
    <g id="patch_13">
     <path d="
M172.801 66.1456
L278.827 66.1456
L278.827 27.3181
L172.801 27.3181
L172.801 66.1456" style="fill:none;stroke:#000000;stroke-linejoin:miter;"/>
    </g>
    <g id="patch_14">
     <path d="
M177.601 41.2362
L201.601 41.2362
L201.601 32.8362
L177.601 32.8362
z
" style="fill:#0000ff;stroke:#000000;stroke-linejoin:miter;"/>
    </g>
    <g id="text_12">
     <!-- Control -->
     <defs>
      <path d="
M64.4062 67.2812
L64.4062 56.8906
Q59.4219 61.5312 53.7812 63.8125
Q48.1406 66.1094 41.7969 66.1094
Q29.2969 66.1094 22.6562 58.4688
Q16.0156 50.8281 16.0156 36.375
Q16.0156 21.9688 22.6562 14.3281
Q29.2969 6.6875 41.7969 6.6875
Q48.1406 6.6875 53.7812 8.98438
Q59.4219 11.2812 64.4062 15.9219
L64.4062 5.60938
Q59.2344 2.09375 53.4375 0.328125
Q47.6562 -1.42188 41.2188 -1.42188
Q24.6562 -1.42188 15.125 8.70312
Q5.60938 18.8438 5.60938 36.375
Q5.60938 53.9531 15.125 64.0781
Q24.6562 74.2188 41.2188 74.2188
Q47.75 74.2188 53.5312 72.4844
Q59.3281 70.75 64.4062 67.2812" id="BitstreamVeraSans-Roman-43"/>
      <path d="
M9.42188 75.9844
L18.4062 75.9844
L18.4062 0
L9.42188 0
z
" id="BitstreamVeraSans-Roman-6c"/>
     </defs>
     <g transform="translate(211.201363636 41.23625)scale(0.12 -0.12)">
      <use xlink:href="#BitstreamVeraSans-Roman-43"/>
      <use x="69.82421875" xlink:href="#BitstreamVeraSans-Roman-6f"/>
      <use x="131.005859375" xlink:href="#BitstreamVeraSans-Roman-6e"/>
      <use x="194.384765625" xlink:href="#BitstreamVeraSans-Roman-74"/>
      <use x="233.59375" xlink:href="#BitstreamVeraSans-Roman-72"/>
      <use x="272.45703125" xlink:href="#BitstreamVeraSans-Roman-6f"/>
      <use x="333.638671875" xlink:href="#BitstreamVeraSans-Roman-6c"/>
     </g>
    </g>
    <g id="patch_15">
     <path d="
M177.601 58.85
L201.601 58.85
L201.601 50.45
L177.601 50.45
z
" style="fill:#ffff00;stroke:#000000;stroke-linejoin:miter;"/>
    </g>
    <g id="text_13">
     <!-- Interactive -->
     <defs>
      <path d="
M9.8125 72.9062
L19.6719 72.9062
L19.6719 0
L9.8125 0
z
" id="BitstreamVeraSans-Roman-49"/>
      <path d="
M2.98438 54.6875
L12.5 54.6875
L29.5938 8.79688
L46.6875 54.6875
L56.2031 54.6875
L35.6875 0
L23.4844 0
z
" id="BitstreamVeraSans-Roman-76"/>
     </defs>
     <g transform="translate(211.201363636 58.85)scale(0.12 -0.12)">
      <use xlink:href="#BitstreamVeraSans-Roman-49"/>
      <use x="29.4921875" xlink:href="#BitstreamVeraSans-Roman-6e"/>
      <use x="92.87109375" xlink:href="#BitstreamVeraSans-Roman-74"/>
      <use x="132.080078125" xlink:href="#BitstreamVeraSans-Roman-65"/>
      <use x="193.603515625" xlink:href="#BitstreamVeraSans-Roman-72"/>
      <use x="234.716796875" xlink:href="#BitstreamVeraSans-Roman-61"/>
      <use x="295.99609375" xlink:href="#BitstreamVeraSans-Roman-63"/>
      <use x="350.9765625" xlink:href="#BitstreamVeraSans-Roman-74"/>
      <use x="390.185546875" xlink:href="#BitstreamVeraSans-Roman-69"/>
      <use x="417.96875" xlink:href="#BitstreamVeraSans-Roman-76"/>
      <use x="477.1484375" xlink:href="#BitstreamVeraSans-Roman-65"/>
     </g>
    </g>
   </g>
  </g>
  <g id="axes_2">
   <g id="patch_16">
    <path d="
M335.554 244.518
L589.191 244.518
L589.191 21.3181
L335.554 21.3181
L335.554 244.518" style="fill:none;"/>
   </g>
   <g id="patch_17">
    <path clip-path="url(#p4cb6ad04a1)" d="
M344.009 244.518
L377.827 244.518
L377.827 159.296
L344.009 159.296
z
" style="fill:#0000ff;stroke:#000000;stroke-linejoin:miter;"/>
   </g>
   <g id="patch_18">
    <path clip-path="url(#p4cb6ad04a1)" d="
M428.554 244.518
L462.372 244.518
L462.372 126.831
L428.554 126.831
z
" style="fill:#0000ff;stroke:#000000;stroke-linejoin:miter;"/>
   </g>
   <g id="patch_19">
    <path clip-path="url(#p4cb6ad04a1)" d="
M513.1 244.518
L546.918 244.518
L546.918 130.889
L513.1 130.889
z
" style="fill:#0000ff;stroke:#000000;stroke-linejoin:miter;"/>
   </g>
   <g id="patch_20">
    <path clip-path="url(#p4cb6ad04a1)" d="
M377.827 244.518
L411.645 244.518
L411.645 162.678
L377.827 162.678
z
" style="fill:#ffff00;stroke:#000000;stroke-linejoin:miter;"/>
   </g>
   <g id="patch_21">
    <path clip-path="url(#p4cb6ad04a1)" d="
M462.372 244.518
L496.191 244.518
L496.191 162.678
L462.372 162.678
z
" style="fill:#ffff00;stroke:#000000;stroke-linejoin:miter;"/>
   </g>
   <g id="patch_22">
    <path clip-path="url(#p4cb6ad04a1)" d="
M546.918 244.518
L580.736 244.518
L580.736 162.678
L546.918 162.678
z
" style="fill:#ffff00;stroke:#000000;stroke-linejoin:miter;"/>
   </g>
   <g id="LineCollection_3">
    <path clip-path="url(#p4cb6ad04a1)" d="
M360.918 169.963
L360.918 148.629" style="fill:none;stroke:#000000;"/>
    <path clip-path="url(#p4cb6ad04a1)" d="
M445.463 141.205
L445.463 112.457" style="fill:none;stroke:#000000;"/>
    <path clip-path="url(#p4cb6ad04a1)" d="
M530.009 147.487
L530.009 114.291" style="fill:none;stroke:#000000;"/>
   </g>
   <g id="LineCollection_4">
    <path clip-path="url(#p4cb6ad04a1)" d="
M394.736 176.43
L394.736 148.926" style="fill:none;stroke:#000000;"/>
    <path clip-path="url(#p4cb6ad04a1)" d="
M479.282 174.244
L479.282 151.112" style="fill:none;stroke:#000000;"/>
    <path clip-path="url(#p4cb6ad04a1)" d="
M563.827 175.384
L563.827 149.972" style="fill:none;stroke:#000000;"/>
   </g>
   <g id="line2d_29">
    <g clip-path="url(#p4cb6ad04a1)">
     <use style="stroke:#000000;stroke-width:0.5;" x="360.917897727" xlink:href="#mcf9903d1bd" y="169.963298449"/>
     <use style="stroke:#000000;stroke-width:0.5;" x="445.463352273" xlink:href="#mcf9903d1bd" y="141.204754996"/>
     <use style="stroke:#000000;stroke-width:0.5;" x="530.008806818" xlink:href="#mcf9903d1bd" y="147.486587304"/>
    </g>
   </g>
   <g id="line2d_30">
    <g clip-path="url(#p4cb6ad04a1)">
     <use style="stroke:#000000;stroke-width:0.5;" x="360.917897727" xlink:href="#mcf9903d1bd" y="148.629315188"/>
     <use style="stroke:#000000;stroke-width:0.5;" x="445.463352273" xlink:href="#mcf9903d1bd" y="112.45694955"/>
     <use style="stroke:#000000;stroke-width:0.5;" x="530.008806818" xlink:href="#mcf9903d1bd" y="114.291480878"/>
    </g>
   </g>
   <g id="line2d_31">
    <g clip-path="url(#p4cb6ad04a1)">
     <use style="stroke:#000000;stroke-width:0.5;" x="394.736079545" xlink:href="#mcf9903d1bd" y="176.430390268"/>
     <use style="stroke:#000000;stroke-width:0.5;" x="479.281534091" xlink:href="#mcf9903d1bd" y="174.244075026"/>
     <use style="stroke:#000000;stroke-width:0.5;" x="563.826988636" xlink:href="#mcf9903d1bd" y="175.38434395"/>
    </g>
   </g>
   <g id="line2d_32">
    <g clip-path="url(#p4cb6ad04a1)">
     <use style="stroke:#000000;stroke-width:0.5;" x="394.736079545" xlink:href="#mcf9903d1bd" y="148.925859732"/>
     <use style="stroke:#000000;stroke-width:0.5;" x="479.281534091" xlink:href="#mcf9903d1bd" y="151.112174974"/>
     <use style="stroke:#000000;stroke-width:0.5;" x="563.826988636" xlink:href="#mcf9903d1bd" y="149.97190605"/>
    </g>
   </g>
   <g id="patch_23">
    <path d="
M335.554 21.3181
L589.191 21.3181" style="fill:none;stroke:#000000;stroke-linecap:square;stroke-linejoin:miter;"/>
   </g>
   <g id="patch_24">
    <path d="
M335.554 244.518
L335.554 21.3181" style="fill:none;stroke:#000000;stroke-linecap:square;stroke-linejoin:miter;"/>
   </g>
   <g id="patch_25">
    <path d="
M589.191 244.518
L589.191 21.3181" style="fill:none;stroke:#000000;stroke-linecap:square;stroke-linejoin:miter;"/>
   </g>
   <g id="patch_26">
    <path d="
M335.554 244.518
L589.191 244.518" style="fill:none;stroke:#000000;stroke-linecap:square;stroke-linejoin:miter;"/>
   </g>
   <g id="matplotlib.axis_3">
    <g id="xtick_4">
     <g id="line2d_33">
      <g>
       <use style="stroke:#000000;stroke-width:0.5;" x="377.826988636" xlink:href="#mc7db9fdffb" y="244.518125"/>
      </g>
     </g>
     <g id="line2d_34">
      <g>
       <use style="stroke:#000000;stroke-width:0.5;" x="377.826988636" xlink:href="#m5a7d422ac3" y="21.318125"/>
      </g>
     </g>
     <g id="text_14">
      <!-- Session 1 -->
      <g transform="translate(354.441051136 256.1165625)scale(0.1 -0.1)">
       <use xlink:href="#BitstreamVeraSans-Roman-53"/>
       <use x="63.4765625" xlink:href="#BitstreamVeraSans-Roman-65"/>
       <use x="125.0" xlink:href="#BitstreamVeraSans-Roman-73"/>
       <use x="177.099609375" xlink:href="#BitstreamVeraSans-Roman-73"/>
       <use x="229.19921875" xlink:href="#BitstreamVeraSans-Roman-69"/>
       <use x="256.982421875" xlink:href="#BitstreamVeraSans-Roman-6f"/>
       <use x="318.1640625" xlink:href="#BitstreamVeraSans-Roman-6e"/>
       <use x="381.54296875" xlink:href="#BitstreamVeraSans-Roman-20"/>
       <use x="413.330078125" xlink:href="#BitstreamVeraSans-Roman-31"/>
      </g>
     </g>
    </g>
    <g id="xtick_5">
     <g id="line2d_35">
      <g>
       <use style="stroke:#000000;stroke-width:0.5;" x="462.372443182" xlink:href="#mc7db9fdffb" y="244.518125"/>
      </g>
     </g>
     <g id="line2d_36">
      <g>
       <use style="stroke:#000000;stroke-width:0.5;" x="462.372443182" xlink:href="#m5a7d422ac3" y="21.318125"/>
      </g>
     </g>
     <g id="text_15">
      <!-- Session 2 -->
      <g transform="translate(439.025568182 256.1165625)scale(0.1 -0.1)">
       <use xlink:href="#BitstreamVeraSans-Roman-53"/>
       <use x="63.4765625" xlink:href="#BitstreamVeraSans-Roman-65"/>
       <use x="125.0" xlink:href="#BitstreamVeraSans-Roman-73"/>
       <use x="177.099609375" xlink:href="#BitstreamVeraSans-Roman-73"/>
       <use x="229.19921875" xlink:href="#BitstreamVeraSans-Roman-69"/>
       <use x="256.982421875" xlink:href="#BitstreamVeraSans-Roman-6f"/>
       <use x="318.1640625" xlink:href="#BitstreamVeraSans-Roman-6e"/>
       <use x="381.54296875" xlink:href="#BitstreamVeraSans-Roman-20"/>
       <use x="413.330078125" xlink:href="#BitstreamVeraSans-Roman-32"/>
      </g>
     </g>
    </g>
    <g id="xtick_6">
     <g id="line2d_37">
      <g>
       <use style="stroke:#000000;stroke-width:0.5;" x="546.917897727" xlink:href="#mc7db9fdffb" y="244.518125"/>
      </g>
     </g>
     <g id="line2d_38">
      <g>
       <use style="stroke:#000000;stroke-width:0.5;" x="546.917897727" xlink:href="#m5a7d422ac3" y="21.318125"/>
      </g>
     </g>
     <g id="text_16">
      <!-- Session 3 -->
      <g transform="translate(523.471022727 256.1165625)scale(0.1 -0.1)">
       <use xlink:href="#BitstreamVeraSans-Roman-53"/>
       <use x="63.4765625" xlink:href="#BitstreamVeraSans-Roman-65"/>
       <use x="125.0" xlink:href="#BitstreamVeraSans-Roman-73"/>
       <use x="177.099609375" xlink:href="#BitstreamVeraSans-Roman-73"/>
       <use x="229.19921875" xlink:href="#BitstreamVeraSans-Roman-69"/>
       <use x="256.982421875" xlink:href="#BitstreamVeraSans-Roman-6f"/>
       <use x="318.1640625" xlink:href="#BitstreamVeraSans-Roman-6e"/>
       <use x="381.54296875" xlink:href="#BitstreamVeraSans-Roman-20"/>
       <use x="413.330078125" xlink:href="#BitstreamVeraSans-Roman-33"/>
      </g>
     </g>
    </g>
   </g>
   <g id="matplotlib.axis_4">
    <g id="ytick_7">
     <g id="line2d_39">
      <path clip-path="url(#p4cb6ad04a1)" d="
M335.554 244.518
L589.191 244.518" style="fill:none;stroke:#000000;stroke-dasharray:1.000000,3.000000;stroke-dashoffset:0.0;stroke-width:0.5;"/>
     </g>
     <g id="line2d_40">
      <g>
       <use style="stroke:#000000;stroke-width:0.5;" x="335.554261364" xlink:href="#md7965d1ba0" y="244.518125"/>
      </g>
     </g>
     <g id="line2d_41">
      <g>
       <use style="stroke:#000000;stroke-width:0.5;" x="589.190625" xlink:href="#md9a1c1a7cd" y="244.518125"/>
      </g>
     </g>
     <g id="text_17">
      <!-- 0 -->
      <g transform="translate(326.515198864 247.2775)scale(0.1 -0.1)">
       <use xlink:href="#BitstreamVeraSans-Roman-30"/>
      </g>
     </g>
    </g>
    <g id="ytick_8">
     <g id="line2d_42">
      <path clip-path="url(#p4cb6ad04a1)" d="
M335.554 199.878
L589.191 199.878" style="fill:none;stroke:#000000;stroke-dasharray:1.000000,3.000000;stroke-dashoffset:0.0;stroke-width:0.5;"/>
     </g>
     <g id="line2d_43">
      <g>
       <use style="stroke:#000000;stroke-width:0.5;" x="335.554261364" xlink:href="#md7965d1ba0" y="199.878125"/>
      </g>
     </g>
     <g id="line2d_44">
      <g>
       <use style="stroke:#000000;stroke-width:0.5;" x="589.190625" xlink:href="#md9a1c1a7cd" y="199.878125"/>
      </g>
     </g>
     <g id="text_18">
      <!-- 1 -->
      <g transform="translate(327.213636364 202.6375)scale(0.1 -0.1)">
       <use xlink:href="#BitstreamVeraSans-Roman-31"/>
      </g>
     </g>
    </g>
    <g id="ytick_9">
     <g id="line2d_45">
      <path clip-path="url(#p4cb6ad04a1)" d="
M335.554 155.238
L589.191 155.238" style="fill:none;stroke:#000000;stroke-dasharray:1.000000,3.000000;stroke-dashoffset:0.0;stroke-width:0.5;"/>
     </g>
     <g id="line2d_46">
      <g>
       <use style="stroke:#000000;stroke-width:0.5;" x="335.554261364" xlink:href="#md7965d1ba0" y="155.238125"/>
      </g>
     </g>
     <g id="line2d_47">
      <g>
       <use style="stroke:#000000;stroke-width:0.5;" x="589.190625" xlink:href="#md9a1c1a7cd" y="155.238125"/>
      </g>
     </g>
     <g id="text_19">
      <!-- 2 -->
      <g transform="translate(326.926136364 157.9975)scale(0.1 -0.1)">
       <use xlink:href="#BitstreamVeraSans-Roman-32"/>
      </g>
     </g>
    </g>
    <g id="ytick_10">
     <g id="line2d_48">
      <path clip-path="url(#p4cb6ad04a1)" d="
M335.554 110.598
L589.191 110.598" style="fill:none;stroke:#000000;stroke-dasharray:1.000000,3.000000;stroke-dashoffset:0.0;stroke-width:0.5;"/>
     </g>
     <g id="line2d_49">
      <g>
       <use style="stroke:#000000;stroke-width:0.5;" x="335.554261364" xlink:href="#md7965d1ba0" y="110.598125"/>
      </g>
     </g>
     <g id="line2d_50">
      <g>
       <use style="stroke:#000000;stroke-width:0.5;" x="589.190625" xlink:href="#md9a1c1a7cd" y="110.598125"/>
      </g>
     </g>
     <g id="text_20">
      <!-- 3 -->
      <g transform="translate(326.755823864 113.3575)scale(0.1 -0.1)">
       <use xlink:href="#BitstreamVeraSans-Roman-33"/>
      </g>
     </g>
    </g>
    <g id="ytick_11">
     <g id="line2d_51">
      <path clip-path="url(#p4cb6ad04a1)" d="
M335.554 65.9581
L589.191 65.9581" style="fill:none;stroke:#000000;stroke-dasharray:1.000000,3.000000;stroke-dashoffset:0.0;stroke-width:0.5;"/>
     </g>
     <g id="line2d_52">
      <g>
       <use style="stroke:#000000;stroke-width:0.5;" x="335.554261364" xlink:href="#md7965d1ba0" y="65.958125"/>
      </g>
     </g>
     <g id="line2d_53">
      <g>
       <use style="stroke:#000000;stroke-width:0.5;" x="589.190625" xlink:href="#md9a1c1a7cd" y="65.958125"/>
      </g>
     </g>
     <g id="text_21">
      <!-- 4 -->
      <g transform="translate(326.241761364 68.7175)scale(0.1 -0.1)">
       <use xlink:href="#BitstreamVeraSans-Roman-34"/>
      </g>
     </g>
    </g>
    <g id="ytick_12">
     <g id="line2d_54">
      <path clip-path="url(#p4cb6ad04a1)" d="
M335.554 21.3181
L589.191 21.3181" style="fill:none;stroke:#000000;stroke-dasharray:1.000000,3.000000;stroke-dashoffset:0.0;stroke-width:0.5;"/>
     </g>
     <g id="line2d_55">
      <g>
       <use style="stroke:#000000;stroke-width:0.5;" x="335.554261364" xlink:href="#md7965d1ba0" y="21.318125"/>
      </g>
     </g>
     <g id="line2d_56">
      <g>
       <use style="stroke:#000000;stroke-width:0.5;" x="589.190625" xlink:href="#md9a1c1a7cd" y="21.318125"/>
      </g>
     </g>
     <g id="text_22">
      <!-- 5 -->
      <g transform="translate(326.837073864 24.0775)scale(0.1 -0.1)">
       <use xlink:href="#BitstreamVeraSans-Roman-35"/>
      </g>
     </g>
    </g>
   </g>
   <g id="text_23">
    <!-- Statement 2 -->
    <g transform="translate(425.675880682 16.318125)scale(0.12 -0.12)">
     <use xlink:href="#BitstreamVeraSans-Roman-53"/>
     <use x="63.4765625" xlink:href="#BitstreamVeraSans-Roman-74"/>
     <use x="102.685546875" xlink:href="#BitstreamVeraSans-Roman-61"/>
     <use x="163.96484375" xlink:href="#BitstreamVeraSans-Roman-74"/>
     <use x="203.173828125" xlink:href="#BitstreamVeraSans-Roman-65"/>
     <use x="264.697265625" xlink:href="#BitstreamVeraSans-Roman-6d"/>
     <use x="362.109375" xlink:href="#BitstreamVeraSans-Roman-65"/>
     <use x="423.6328125" xlink:href="#BitstreamVeraSans-Roman-6e"/>
     <use x="487.01171875" xlink:href="#BitstreamVeraSans-Roman-74"/>
     <use x="526.220703125" xlink:href="#BitstreamVeraSans-Roman-20"/>
     <use x="558.0078125" xlink:href="#BitstreamVeraSans-Roman-32"/>
    </g>
   </g>
   <g id="legend_2">
    <g id="patch_27">
     <path d="
M477.165 66.1456
L583.191 66.1456
L583.191 27.3181
L477.165 27.3181
L477.165 66.1456" style="fill:none;stroke:#000000;stroke-linejoin:miter;"/>
    </g>
    <g id="patch_28">
     <path d="
M481.965 41.2362
L505.965 41.2362
L505.965 32.8362
L481.965 32.8362
z
" style="fill:#0000ff;stroke:#000000;stroke-linejoin:miter;"/>
    </g>
    <g id="text_24">
     <!-- Control -->
     <g transform="translate(515.565 41.23625)scale(0.12 -0.12)">
      <use xlink:href="#BitstreamVeraSans-Roman-43"/>
      <use x="69.82421875" xlink:href="#BitstreamVeraSans-Roman-6f"/>
      <use x="131.005859375" xlink:href="#BitstreamVeraSans-Roman-6e"/>
      <use x="194.384765625" xlink:href="#BitstreamVeraSans-Roman-74"/>
      <use x="233.59375" xlink:href="#BitstreamVeraSans-Roman-72"/>
      <use x="272.45703125" xlink:href="#BitstreamVeraSans-Roman-6f"/>
      <use x="333.638671875" xlink:href="#BitstreamVeraSans-Roman-6c"/>
     </g>
    </g>
    <g id="patch_29">
     <path d="
M481.965 58.85
L505.965 58.85
L505.965 50.45
L481.965 50.45
z
" style="fill:#ffff00;stroke:#000000;stroke-linejoin:miter;"/>
    </g>
    <g id="text_25">
     <!-- Interactive -->
     <g transform="translate(515.565 58.85)scale(0.12 -0.12)">
      <use xlink:href="#BitstreamVeraSans-Roman-49"/>
      <use x="29.4921875" xlink:href="#BitstreamVeraSans-Roman-6e"/>
      <use x="92.87109375" xlink:href="#BitstreamVeraSans-Roman-74"/>
      <use x="132.080078125" xlink:href="#BitstreamVeraSans-Roman-65"/>
      <use x="193.603515625" xlink:href="#BitstreamVeraSans-Roman-72"/>
      <use x="234.716796875" xlink:href="#BitstreamVeraSans-Roman-61"/>
      <use x="295.99609375" xlink:href="#BitstreamVeraSans-Roman-63"/>
      <use x="350.9765625" xlink:href="#BitstreamVeraSans-Roman-74"/>
      <use x="390.185546875" xlink:href="#BitstreamVeraSans-Roman-69"/>
      <use x="417.96875" xlink:href="#BitstreamVeraSans-Roman-76"/>
      <use x="477.1484375" xlink:href="#BitstreamVeraSans-Roman-65"/>
     </g>
    </g>
   </g>
  </g>
 </g>
 <defs>
  <clipPath id="pb5536c19c9">
   <rect height="223.2" width="253.636363636" x="31.190625" y="21.318125"/>
  </clipPath>
  <clipPath id="p4cb6ad04a1">
   <rect height="223.2" width="253.636363636" x="335.554261364" y="21.318125"/>
  </clipPath>
 </defs>
</svg>
